<svg width="336" height="247" viewBox="0 0 336 247" fill="none" xmlns="http://www.w3.org/2000/svg">
<path d="M111.154 48.4034C117.847 37.6699 132.482 35.312 142.194 43.4169L143.989 44.9152C148.729 48.8711 151.469 54.7265 151.469 60.9003V204.341C151.469 215.794 142.219 225.096 130.766 225.161L37.7028 225.685C21.3208 225.778 11.2657 207.783 19.9454 193.889C52.1644 142.315 77.8939 101.742 111.154 48.4034Z" fill="#254139"/>
<path d="M20.9078 218.54C17.2394 213.869 16.3223 206.7 16.3223 203.7L36.5617 223.162C32.8722 223.567 24.5761 223.211 20.9078 218.54Z" fill="#254139"/>
<rect x="15.0164" y="37.8672" width="129.919" height="181.887" rx="20.7871" fill="#365E53"/>
<circle cx="81.5352" cy="128.291" r="44.6922" fill="#EDB465"/>
<mask id="mask0_134_10082" style="mask-type:luminance" maskUnits="userSpaceOnUse" x="68" y="98" width="26" height="25">
<path d="M68.7388 98.6692H93.7931V122.822H68.7388V98.6692Z" fill="white"/>
</mask>
<g mask="url(#mask0_134_10082)">
<path d="M93.6408 110.681C93.6408 117.338 88.0778 122.731 81.2101 122.731C74.3431 122.731 68.7808 117.338 68.7808 110.681C68.7808 104.027 74.3459 98.6318 81.2101 98.6318C88.0749 98.6318 93.6408 104.027 93.6408 110.681Z" fill="#CF363E"/>
</g>
<path d="M109.65 133.48C109.65 140.137 104.085 145.531 97.2193 145.531C90.3537 145.531 84.7893 140.137 84.7893 133.48C84.7893 126.826 90.3537 121.432 97.2193 121.432C104.085 121.432 109.65 126.826 109.65 133.48Z" fill="#CF363E"/>
<path d="M77.8148 133.586C77.8148 136.023 77.0692 138.29 75.7856 140.186C73.5649 143.468 69.7347 145.634 65.3827 145.634C58.5171 145.634 52.9541 140.241 52.9541 133.586C52.9541 126.931 58.5171 121.535 65.3827 121.535C72.2483 121.535 77.8148 126.931 77.8148 133.586Z" fill="#CF363E"/>
<path d="M95.7886 156.967C89.6504 156.971 86.4214 151.98 84.726 146.992C83.0312 142.003 82.8721 137.01 82.8721 137.01L79.7403 136.984C79.7403 136.984 79.1524 156.951 66.8794 156.962L95.7893 156.967H95.7886Z" fill="#CF363E"/>
<path d="M72.7607 119.532C79.7418 126.51 79.7418 136.987 79.7418 136.987L82.8736 137.012C82.8736 137.012 82.8736 126.314 89.6603 119.532" fill="#CF363E"/>
<path d="M74.1577 141.944C81.1388 134.967 91.6227 134.967 91.6227 134.967L91.6466 131.836C91.6466 131.836 80.9423 131.836 74.1577 125.054" fill="#CF363E"/>
<path d="M88.1585 141.997C81.1775 135.019 70.6943 135.019 70.6943 135.019L70.6689 131.889C70.6689 131.889 81.3739 131.889 88.1585 125.107" fill="#CF363E"/>
<mask id="mask1_134_10082" style="mask-type:luminance" maskUnits="userSpaceOnUse" x="68" y="98" width="26" height="25">
<path d="M68.7388 98.6692H93.7931V122.822H68.7388V98.6692Z" fill="white"/>
</mask>
<g mask="url(#mask1_134_10082)">
<path d="M93.6408 110.681C93.6408 117.338 88.0778 122.731 81.2101 122.731C74.3431 122.731 68.7808 117.338 68.7808 110.681C68.7808 104.027 74.3459 98.6318 81.2101 98.6318C88.0749 98.6318 93.6408 104.027 93.6408 110.681Z" fill="#CF363E"/>
</g>
<path d="M109.65 133.48C109.65 140.137 104.085 145.531 97.2193 145.531C90.3537 145.531 84.7893 140.137 84.7893 133.48C84.7893 126.826 90.3537 121.432 97.2193 121.432C104.085 121.432 109.65 126.826 109.65 133.48Z" fill="#CF363E"/>
<path d="M77.8148 133.586C77.8148 136.023 77.0692 138.29 75.7856 140.186C73.5649 143.468 69.7347 145.634 65.3827 145.634C58.5171 145.634 52.9541 140.241 52.9541 133.586C52.9541 126.931 58.5171 121.535 65.3827 121.535C72.2483 121.535 77.8148 126.931 77.8148 133.586Z" fill="#CF363E"/>
<path d="M95.7886 156.967C89.6504 156.971 86.4214 151.98 84.726 146.992C83.0312 142.003 82.8721 137.01 82.8721 137.01L79.7403 136.984C79.7403 136.984 79.1524 156.951 66.8794 156.962L95.7893 156.967H95.7886Z" fill="#CF363E"/>
<path d="M72.7607 119.532C79.7418 126.51 79.7418 136.987 79.7418 136.987L82.8736 137.012C82.8736 137.012 82.8736 126.314 89.6603 119.532" fill="#CF363E"/>
<path d="M74.1577 141.944C81.1388 134.967 91.6227 134.967 91.6227 134.967L91.6466 131.836C91.6466 131.836 80.9423 131.836 74.1577 125.054" fill="#CF363E"/>
<path d="M88.1585 141.997C81.1775 135.019 70.6943 135.019 70.6943 135.019L70.6689 131.889C70.6689 131.889 81.3739 131.889 88.1585 125.107" fill="#CF363E"/>
<path d="M259.035 22.0401C266.221 10.7479 282.057 9.14875 291.398 18.7354L295.724 23.1756C299.513 27.0635 301.633 32.2771 301.633 37.7054V182.14C301.633 193.594 292.38 202.898 280.925 202.96L183.359 203.491C166.829 203.581 156.776 185.276 165.619 171.309C198.627 119.169 225.113 75.3443 259.035 22.0401Z" fill="#161A4D"/>
<path d="M165.848 196.342C162.179 191.671 161.262 184.502 161.262 181.502L181.502 200.964C177.812 201.369 169.516 201.013 165.848 196.342Z" fill="#161A4D"/>
<rect x="159.957" y="8.48755" width="135.24" height="189.336" rx="21.6384" fill="#4C5195"/>
<circle cx="229.199" cy="102.615" r="46.5227" fill="#85935E"/>
<mask id="mask2_134_10082" style="mask-type:luminance" maskUnits="userSpaceOnUse" x="199" y="77" width="61" height="60">
<path d="M199.209 77.6465H259.022V136.147H199.209V77.6465Z" fill="white"/>
</mask>
<g mask="url(#mask2_134_10082)">
<path d="M229.116 136.148C229.116 136.148 205.687 119.547 200.269 101.617C194.651 83.023 212.401 68.2117 229.116 84.936C245.83 68.2117 263.579 83.023 257.961 101.617C252.543 119.547 229.116 136.148 229.116 136.148Z" fill="#365E53"/>
</g>
<path d="M145.356 158.666C151.91 148.277 166.097 145.988 175.573 153.804L177.358 155.276C182.049 159.145 184.766 164.908 184.766 170.989V309.279C184.766 320.483 175.716 329.584 164.512 329.646L73.6735 330.152C57.5998 330.242 47.7709 312.546 56.3599 298.959C87.7639 249.282 112.892 210.118 145.356 158.666Z" fill="#711136"/>
<rect x="49.6194" y="148.524" width="129.271" height="175.495" rx="20.0566" fill="#9A3C60"/>
<ellipse cx="112.295" cy="236.522" rx="43.1217" ry="57.4121" fill="#85935E"/>
<path d="M147.864 235.668L114.251 275.883L80.6433 235.668L114.251 197.161L147.864 235.668Z" fill="#9B1A2E"/>
<path d="M291.751 153.053C299.087 141.09 316.048 140.069 324.833 151.013L330.771 158.41C333.674 162.026 335.256 166.524 335.256 171.161V311.77C335.256 323.019 326.137 332.138 314.888 332.138H220.157C204.171 332.138 194.397 314.542 202.73 300.898C233.837 249.963 260.204 204.495 291.751 153.053Z" fill="#5C1912"/>
<rect x="198.15" y="142.982" width="131.23" height="183.722" rx="20.9967" fill="#9B1A2E"/>
<ellipse cx="265.258" cy="234.575" rx="45.3432" ry="48.9707" fill="#4C5195"/>
<path d="M265.029 197.394C265.029 197.394 235.331 220.49 235.331 245.238C235.331 252.527 241.242 258.435 248.529 258.435C255.015 258.435 260.397 253.754 261.507 247.588C261.081 252.872 259.689 262.125 255.129 266.685H274.929C270.368 262.125 268.975 252.872 268.552 247.588C269.662 253.754 275.044 258.435 281.528 258.435C288.817 258.435 294.728 252.527 294.728 245.238C294.727 220.49 265.029 197.394 265.029 197.394Z" fill="#EDB465"/>
</svg>
