<svg width="324" height="213" viewBox="0 0 324 213" fill="none" xmlns="http://www.w3.org/2000/svg">
<mask id="mask0_202_2860" style="mask-type:luminance" maskUnits="userSpaceOnUse" x="155" y="0" width="169" height="147">
<path d="M155.324 0H323.685V146.76H155.324V0Z" fill="white"/>
</mask>
<g mask="url(#mask0_202_2860)">
<path d="M196.981 2.75008L156.13 73.562C155.065 75.404 155.184 77.7058 156.439 79.4286L196.771 134.911C199.565 138.743 203.892 141.164 208.624 141.519L278.225 146.746C280.285 146.903 282.258 145.858 283.291 144.065L322.856 75.4855C323.953 73.5882 323.79 71.2165 322.448 69.488L280.57 15.5279C277.98 12.1901 274.195 10.0018 270.016 9.42853L202.382 0.113623C200.214 -0.189017 198.078 0.858583 196.981 2.75008Z" fill="#5C1912"/>
</g>
<mask id="mask1_202_2860" style="mask-type:luminance" maskUnits="userSpaceOnUse" x="201" y="56" width="123" height="91">
<path d="M201.512 56.6167H323.685V146.76H201.512V56.6167Z" fill="white"/>
</mask>
<g mask="url(#mask1_202_2860)">
<path d="M249.766 56.7188L201.989 139.532C204.006 140.655 206.261 141.342 208.618 141.519L278.22 146.745C280.28 146.903 282.253 145.858 283.286 144.065L322.85 75.4853C323.456 74.4406 323.639 73.2534 323.488 72.1068L249.766 56.7188Z" fill="#9B1A2E"/>
</g>
<path d="M245.019 59.1923C246.241 60.7608 248.025 61.7968 249.998 62.0674L323.505 72.1884C323.4 71.2223 323.06 70.2823 322.44 69.4879L280.565 15.522C277.975 12.1842 274.186 9.9959 270.01 9.42263L202.373 0.107722C201.372 -0.029047 200.389 0.145552 199.501 0.529672L245.019 59.1923Z" fill="#CF363E"/>
<path d="M265.107 30.0954C258.894 26.4987 252.189 25.5471 250.085 29.1933C248.403 32.1062 252.16 38.1678 258.379 41.7616C264.592 45.3555 271.296 46.307 273.4 42.6637C275.076 39.7421 271.319 33.6835 265.107 30.0954ZM220.982 55.4211C225.146 52.9622 229.683 54.6122 231.013 60.243C232.343 65.8768 230.079 71.3825 225.493 74.5718C221.329 77.0308 216.792 75.3779 215.462 69.7471C214.132 64.1162 216.815 57.8801 220.982 55.4211ZM265.278 81.0175C265.322 76.1811 261.623 73.0703 256.091 74.7348C250.551 76.4022 246.922 81.1106 246.456 86.6804C246.413 91.5168 250.111 94.6247 255.643 92.9601C261.181 91.3014 265.235 85.8597 265.278 81.0175ZM274.692 103C274.736 98.1632 271.037 95.0553 265.505 96.7199C259.965 98.3844 256.336 103.096 255.87 108.662C255.827 113.499 259.525 116.61 265.057 114.945C270.589 113.281 274.648 107.836 274.692 103ZM284.458 123.207C284.502 118.367 280.803 115.259 275.271 116.924C269.733 118.588 266.102 123.3 265.636 128.87C265.593 133.706 269.291 136.814 274.823 135.149C280.355 133.485 284.409 128.043 284.458 123.207ZM197.234 94.0776C201.398 91.6186 205.935 93.2686 207.265 98.9024C208.594 104.533 206.33 110.039 201.744 113.228C197.58 115.687 193.043 114.037 191.713 108.403C190.389 102.767 193.067 96.5365 197.234 94.0776ZM197.749 24.709C201.913 22.2501 206.45 23.9029 207.78 29.5338C209.109 35.1646 206.848 40.6704 202.259 43.8597C198.095 46.3216 193.558 44.6687 192.229 39.0379C190.907 33.3983 193.585 27.168 197.749 24.709ZM172.199 64.5585C176.363 62.0996 180.9 63.7496 182.23 69.3833C183.56 75.0142 181.296 80.5199 176.71 83.7092C172.545 86.1682 168.009 84.5182 166.679 78.8845C165.349 73.2536 168.035 67.0175 172.199 64.5585Z" fill="white"/>
<mask id="mask2_202_2860" style="mask-type:luminance" maskUnits="userSpaceOnUse" x="0" y="63" width="168" height="150">
<path d="M0 63.1353H167.616V212.683H0V63.1353Z" fill="white"/>
</mask>
<g mask="url(#mask2_202_2860)">
<path d="M1.36499 138.796L42.2156 209.607C43.2806 211.449 45.3293 212.497 47.4448 212.27L115.617 205.056C120.329 204.559 124.589 202.009 127.26 198.087L166.586 140.373C167.75 138.665 167.834 136.438 166.798 134.646L127.243 66.0601C126.146 64.1628 124.016 63.1152 121.848 63.4178L54.2048 72.7327C50.0289 73.306 46.243 75.4943 43.6531 78.8292L1.7753 132.792C0.439608 134.527 0.276648 136.898 1.36499 138.796Z" fill="#5C1912"/>
</g>
<path d="M74.458 120.029L122.231 202.842C124.21 201.657 125.936 200.042 127.266 198.092L166.591 140.378C167.758 138.67 167.84 136.444 166.807 134.652L127.242 66.06C126.637 65.0124 125.703 64.2645 124.632 63.8164L74.458 120.029Z" fill="#9B1A2E"/>
<mask id="mask3_202_2860" style="mask-type:luminance" maskUnits="userSpaceOnUse" x="0" y="63" width="126" height="73">
<path d="M0 63.1353H125.153V135.952H0V63.1353Z" fill="white"/>
</mask>
<g mask="url(#mask3_202_2860)">
<path d="M74.2253 125.377C76.1953 125.107 77.985 124.071 79.2014 122.502L124.714 63.8485C123.826 63.4614 122.843 63.2868 121.842 63.4236L54.2045 72.7327C50.0286 73.306 46.2427 75.4943 43.6528 78.8291L1.77502 132.798C1.1581 133.601 0.817631 134.538 0.709961 135.498L74.2253 125.377Z" fill="#CF363E"/>
</g>
<path d="M59.0822 93.4166C52.8694 97.0104 48.6935 102.339 50.7916 105.985C52.4736 108.898 59.5944 108.671 65.813 105.083C72.0259 101.489 76.2047 96.1607 74.1065 92.5145C72.4217 89.6016 65.3038 89.8286 59.0822 93.4166ZM58.9396 144.327C58.8931 139.491 62.5946 136.38 68.1265 138.044C73.6642 139.709 77.293 144.42 77.7586 149.99C77.8052 154.826 74.1065 157.934 68.5717 156.27C63.0398 154.611 58.9891 149.169 58.9396 144.327ZM103.241 118.731C99.0772 116.269 94.5406 117.922 93.2107 123.553C91.8808 129.186 94.1419 134.689 98.731 137.881C102.895 140.34 107.432 138.687 108.762 133.057C110.092 127.426 107.406 121.19 103.241 118.731ZM149.333 123.2C145.169 120.741 140.632 122.394 139.302 128.025C137.972 133.656 140.233 139.162 144.822 142.351C148.987 144.813 153.523 143.16 154.853 137.529C156.177 131.896 153.497 125.659 149.333 123.2ZM50.6956 167.753C50.652 162.916 54.3506 159.808 59.8825 161.473C65.4231 163.137 69.0519 167.849 69.5175 173.415C69.5611 178.255 65.8625 181.363 60.3306 179.698C54.7987 178.034 50.748 172.592 50.6956 167.753ZM42.4545 191.181C42.4108 186.344 46.1094 183.237 51.6414 184.901C57.182 186.566 60.8108 191.277 61.2764 196.844C61.32 201.68 57.6214 204.791 52.0895 203.126C46.5576 201.459 42.5069 196.017 42.4545 191.181Z" fill="white"/>
</svg>
