<svg width="796" height="588" viewBox="0 0 796 588" fill="none" xmlns="http://www.w3.org/2000/svg">
<path d="M215.569 139.632C214.637 126.615 225.96 116.007 238.879 117.856L252.432 119.796C257.617 120.538 262.32 123.24 265.573 127.346L472.606 388.643C479.563 397.424 478.168 410.166 469.475 417.234L278.838 572.221C265.987 582.668 246.693 574.279 245.51 557.76C234.289 401.063 227.028 299.662 215.569 139.632Z" fill="#CE7B39"/>
<path d="M258.099 573.943C250.397 573.779 244.552 568.791 242.593 566.318L280.969 562.024C276.555 566.065 265.802 574.107 258.099 573.943Z" fill="#CE7B39"/>
<rect x="17.6187" y="284.022" width="281.413" height="376.581" rx="20.4664" transform="rotate(-38.3907 17.6187 284.022)" fill="#EDB465"/>
<path d="M68.332 309.488L54.8194 292.434C54.7008 292.284 55.5041 290.795 57.2293 287.967C58.9375 285.118 59.9733 283.549 60.3366 283.262C60.6999 282.974 61.592 282.98 63.0129 283.281C64.4552 283.564 65.4557 284.058 66.0145 284.764L80.2891 302.78C80.4246 302.951 79.681 304.427 78.0582 307.209C76.4399 309.952 75.3636 311.535 74.8294 311.959C74.3164 312.365 73.354 312.38 71.942 312.003C70.5513 311.609 69.348 310.77 68.332 309.488ZM75.1854 306.876C75.5914 306.554 75.8727 306.053 76.0292 305.372L63.4564 289.504C62.2033 287.923 61.0318 287.564 59.9419 288.427C59.5144 288.766 59.2247 289.256 59.0726 289.899L71.6709 305.799C72.9239 307.381 74.0954 307.74 75.1854 306.876ZM84.1191 301.05L75.5086 290.182C74.9498 289.477 74.3176 288.987 73.612 288.711C72.9064 288.435 72.3292 288.475 71.8804 288.83L71.3216 288.125C71.4543 287.985 72.1026 286.411 73.2665 283.401C73.4499 283.325 73.6824 283.246 73.9638 283.162C74.2283 283.056 74.667 283.039 75.2799 283.11C75.9142 283.164 76.4091 283.416 76.7647 283.865C76.8421 283.699 77.0446 283.208 77.372 282.392C78.2423 280.241 78.8591 279.022 79.2224 278.734C79.6071 278.429 80.1763 278.292 80.9299 278.321C81.7048 278.333 82.4215 278.513 83.08 278.861C83.1058 278.806 83.3661 278.234 83.8609 277.146C84.8506 274.971 85.5163 273.747 85.8583 273.476C86.5422 272.935 87.5389 272.875 88.8485 273.299C90.1581 273.722 91.1092 274.308 91.7019 275.056L99.398 284.769C100.329 285.945 101.403 286.225 102.62 285.609L103.179 286.314L101.234 291.038C100.611 291.218 99.9275 291.255 99.1828 291.15C98.4211 291.023 97.8879 290.767 97.5831 290.382L90.0902 280.925C88.9896 279.536 88.0798 278.761 87.3609 278.6C86.625 278.418 85.9686 278.555 85.3915 279.012L84.6143 279.941L92.666 290.103C93.5973 291.279 94.6713 291.559 95.8878 290.943L96.4466 291.648L94.5017 296.372C93.8792 296.552 93.1955 296.589 92.4508 296.484C91.6891 296.357 91.1559 296.101 90.8511 295.716L83.4852 286.419C81.5379 283.962 79.9765 283.198 78.8011 284.13L77.8315 285.211L85.934 295.437C86.9669 296.741 87.9892 297.131 89.0009 296.608L89.5597 297.313L87.7697 301.706C87.1471 301.886 86.4635 301.923 85.7188 301.818C84.9571 301.69 84.4239 301.435 84.1191 301.05ZM105.164 265.068L112.352 274.14C112.979 274.931 113.547 275.385 114.058 275.502C114.551 275.598 115.116 275.499 115.752 275.204L116.311 275.909L114.366 280.633C113.743 280.813 113.06 280.85 112.315 280.745C111.553 280.618 111.029 280.372 110.741 280.009L108.435 285.332C108.337 285.34 108.199 285.363 108.02 285.4C107.824 285.416 107.472 285.434 106.966 285.453C106.463 285.433 105.984 285.378 105.529 285.286C104.329 285.089 103.374 284.542 102.663 283.644L98.497 278.387C98.226 278.045 98.4346 277.166 99.1225 275.752C99.8105 274.337 100.575 273.018 101.415 271.796L102.682 269.904C101.717 268.686 100.728 268.096 99.7141 268.134C98.6834 268.15 97.2492 268.887 95.4112 270.343L94.6492 269.381C97.0305 265.581 98.4241 263.52 98.8302 263.199C99.5355 262.64 100.573 262.566 101.942 262.977C103.311 263.388 104.385 264.085 105.164 265.068ZM105.595 279.442C106.035 279.998 106.56 280.33 107.168 280.439C107.781 280.51 108.29 280.385 108.696 280.063C109.102 279.742 109.403 279.243 109.598 278.567L103.857 271.322C103.476 271.937 103.196 272.419 103.02 272.768C102.865 273.099 102.748 273.522 102.669 274.037C102.52 274.99 102.945 276.097 103.944 277.358L105.595 279.442ZM117.773 274.385L105.2 258.517C104.743 257.94 104.325 257.61 103.946 257.527C103.551 257.423 103.118 257.557 102.648 257.93L101.937 257.032C103.563 253.378 104.959 250.046 106.123 247.036L107.448 247.656C107.319 247.932 107.189 248.383 107.059 249.008C106.911 249.612 106.836 250.176 106.834 250.7C106.836 252.02 107.244 253.193 108.056 254.219L110.215 256.943C111.519 254.067 112.353 252.484 112.716 252.196C113.4 251.655 114.39 251.566 115.687 251.929C116.985 252.293 118.04 252.988 118.852 254.014L126.32 263.439C127.251 264.614 128.325 264.894 129.542 264.278L130.1 264.983L128.156 269.707C127.533 269.887 126.849 269.925 126.105 269.819C125.343 269.692 124.81 269.436 124.505 269.051L117.139 259.755C115.48 257.66 114.155 256.779 113.166 257.111C112.701 257.27 112.073 257.663 111.282 258.29L119.588 268.773C120.621 270.076 121.643 270.466 122.655 269.943L123.214 270.648L121.424 275.041C120.801 275.221 120.117 275.258 119.373 275.153C118.611 275.026 118.078 274.77 117.773 274.385Z" fill="#302E2F"/>
<path d="M407.703 383.961L414.018 397.236L402.539 388.052L407.703 383.961ZM393.558 380.888L396.917 378.227L393.938 374.467L383.912 382.411L386.891 386.171L389.723 383.927L421.741 409.558L424.248 407.572L406.642 370.522L409.449 368.297L406.47 364.538L396.445 372.481L399.423 376.241L402.782 373.58L405.601 379.506L398.683 384.988L393.558 380.888Z" fill="#302E2F"/>
<path d="M198.123 285.272C198.123 285.272 178.577 365.234 212.203 407.675C222.108 420.175 240.274 422.275 252.77 412.374C263.893 403.561 266.763 388.219 260.287 376.138C266.737 385.778 276.923 403.536 275.299 417.553L309.253 390.649C295.235 389.026 280.275 375.051 272.369 366.565C282.65 375.631 298.242 376.345 309.362 367.535C321.861 357.632 323.971 339.466 314.067 326.966C280.437 284.528 198.123 285.272 198.123 285.272Z" fill="#302E2F"/>
<path d="M98.9811 324.701C98.9811 324.701 92.0255 348.329 101.485 361.482C104.271 365.356 109.672 366.237 113.545 363.451C116.992 360.972 118.063 356.427 116.296 352.726C118.09 355.697 120.887 361.146 120.206 365.313L130.729 357.745C126.562 357.064 122.285 352.679 120.04 350.033C122.987 352.885 127.637 353.316 131.084 350.838C134.957 348.052 135.841 342.652 133.055 338.778C123.594 325.625 98.9811 324.701 98.9811 324.701Z" fill="#302E2F"/>
<path d="M389.172 367.379C389.172 367.379 364.542 367.602 354.481 354.903C351.517 351.163 352.149 345.728 355.888 342.765C359.216 340.128 363.881 340.342 366.957 343.055C364.59 340.517 360.114 336.335 355.921 335.849L366.08 327.799C365.594 331.993 368.641 337.307 370.572 340.191C368.635 336.576 369.493 331.985 372.821 329.349C376.56 326.386 381.996 327.014 384.96 330.754C395.02 343.454 389.172 367.379 389.172 367.379Z" fill="#302E2F"/>
<g filter="url(#filter0_d_167_2707)">
<path d="M364.123 70.6379C368.95 58.512 383.761 53.8899 394.588 61.178L405.945 68.8232C410.29 71.7483 413.349 76.2281 414.49 81.3403L487.155 406.699C489.597 417.633 482.794 428.498 471.892 431.077L232.802 487.64C216.685 491.452 202.966 475.502 209.091 460.115C267.19 314.155 304.788 219.702 364.123 70.6379Z" fill="#CE7B39"/>
<path d="M213.381 480.164C206.518 476.664 203.427 469.63 202.739 466.551L239.159 479.387C233.426 481.105 220.245 483.664 213.381 480.164Z" fill="#CE7B39"/>
<rect x="123.06" y="114.477" width="281.413" height="376.581" rx="20.4664" transform="rotate(-12.5896 123.06 114.477)" fill="#EDB465"/>
<path d="M153.04 156.178L147.634 131.976C147.587 131.763 149.15 130.634 152.323 128.588C155.489 126.512 157.33 125.416 157.845 125.301C158.361 125.186 159.273 125.635 160.582 126.648C161.921 127.655 162.703 128.658 162.926 129.659L168.636 155.226C168.69 155.469 167.195 156.615 164.15 158.664C161.129 160.676 159.239 161.767 158.481 161.936C157.753 162.099 156.758 161.636 155.496 160.549C154.265 159.455 153.446 157.998 153.04 156.178ZM161.368 156.897C161.944 156.768 162.481 156.394 162.979 155.773L157.95 133.254C157.449 131.01 156.425 130.06 154.878 130.406C154.271 130.541 153.731 130.901 153.256 131.484L158.296 154.049C158.797 156.293 159.821 157.243 161.368 156.897ZM179.47 130.024C179.621 129.99 180.055 130.148 180.77 130.498C181.478 130.817 182.23 131.334 183.026 132.048C183.816 132.731 184.298 133.467 184.474 134.256L186.181 141.898C186.303 142.444 185.649 143.291 184.217 144.439C182.786 145.586 181.37 146.587 179.968 147.441C178.591 148.258 177.841 148.681 177.72 148.708C178.241 151.043 179.579 152.257 181.733 152.349C182.788 152.368 184.013 152.222 185.408 151.91L185.703 153.229C181.102 156.008 178.634 157.435 178.301 157.51C177.391 157.713 176.323 157.282 175.099 156.219C173.867 155.124 173.059 153.713 172.672 151.984L169.259 136.699C169.211 136.486 170.774 135.357 173.947 133.311C177.113 131.235 178.954 130.139 179.47 130.024ZM179.493 137.613C179.303 136.764 178.947 136.095 178.424 135.607C177.894 135.088 177.326 134.897 176.719 135.032C176.113 135.168 175.496 135.544 174.87 136.162L177.217 146.671C179.777 145.303 180.776 143.36 180.214 140.843L179.493 137.613ZM192.75 151.035L189.306 135.613C189.082 134.612 188.677 133.795 188.09 133.162C187.502 132.529 186.89 132.283 186.253 132.425L186.03 131.425C186.235 131.347 187.682 130.053 190.369 127.542C190.595 127.555 190.873 127.589 191.203 127.642C191.527 127.666 191.985 127.866 192.579 128.242C193.203 128.613 193.586 129.116 193.728 129.753C193.89 129.621 194.341 129.218 195.082 128.543C197.042 126.768 198.28 125.823 198.795 125.708C199.341 125.586 199.994 125.727 200.752 126.131C201.542 126.527 202.188 127.068 202.691 127.751C202.744 127.708 203.295 127.25 204.342 126.379C206.437 124.638 207.727 123.713 208.212 123.605C209.183 123.388 210.235 123.822 211.369 124.906C212.502 125.99 213.188 127.063 213.425 128.124L216.503 141.909C216.876 143.577 217.839 144.396 219.393 144.368L219.616 145.369L215.277 149.251C214.549 149.127 213.829 148.826 213.118 148.348C212.399 147.84 211.979 147.313 211.857 146.767L208.86 133.347C208.419 131.376 207.87 130.129 207.213 129.607C206.548 129.055 205.806 128.871 204.987 129.053L203.729 129.621L206.95 144.042C207.322 145.71 208.286 146.53 209.839 146.501L210.063 147.502L205.724 151.385C204.996 151.261 204.276 150.96 203.564 150.482C202.846 149.974 202.425 149.447 202.303 148.901L199.357 135.708C198.578 132.22 197.355 130.663 195.686 131.035L194.155 131.664L197.396 146.176C197.809 148.026 198.665 148.933 199.963 148.898L200.186 149.899L196.17 153.519C195.442 153.395 194.722 153.094 194.011 152.616C193.292 152.108 192.872 151.581 192.75 151.035Z" fill="#302E2F"/>
<path d="M430.352 374.326L430.26 389.026L423.923 375.762L430.352 374.326ZM418.955 365.403L423.138 364.469L422.092 359.788L409.608 362.576L410.654 367.257L414.18 366.47L431.85 403.481L434.971 402.784L435.247 361.765L438.742 360.984L437.697 356.303L425.213 359.091L426.259 363.772L430.441 362.838L430.399 369.401L421.785 371.325L418.955 365.403Z" fill="#302E2F"/>
<g clip-path="url(#clip0_167_2707)">
<path fill-rule="evenodd" clip-rule="evenodd" d="M393.68 231.591L365.21 278.134L267.182 218.504L342.459 199.992L393.68 231.591Z" fill="#CE7B39"/>
<path fill-rule="evenodd" clip-rule="evenodd" d="M264.226 223.883L207.638 316.877L282.563 298.452L311.052 251.876L264.226 223.883Z" fill="#302E2F"/>
</g>
<path d="M173.798 179.688C173.798 179.688 158.119 198.683 161.65 214.495C162.691 219.152 167.311 222.084 171.967 221.044C176.111 220.118 178.882 216.359 178.711 212.262C179.193 215.698 179.624 221.809 177.361 225.373L190.011 222.548C186.447 220.285 184.237 214.572 183.212 211.256C184.801 215.037 188.908 217.26 193.051 216.335C197.708 215.295 200.642 210.676 199.602 206.019C196.069 190.207 173.798 179.688 173.798 179.688Z" fill="#302E2F"/>
<path d="M421.294 351.24C421.294 351.24 399.023 340.721 395.492 324.909C394.451 320.251 397.386 315.633 402.041 314.593C406.185 313.668 410.292 315.891 411.881 319.672C410.855 316.356 408.646 310.643 405.081 308.38L417.732 305.555C415.468 309.12 415.899 315.23 416.382 318.667C416.212 314.569 418.983 310.809 423.126 309.884C427.782 308.844 432.403 311.776 433.443 316.433C436.973 332.245 421.294 351.24 421.294 351.24Z" fill="#302E2F"/>
</g>
<g filter="url(#filter1_d_167_2707)">
<path d="M597.738 39.0859C605.83 28.8459 621.344 28.6509 629.635 38.73L638.333 49.303C641.661 53.3482 643.311 58.5154 642.943 63.7406L619.561 396.294C618.776 407.47 609.151 415.936 597.967 415.291L352.685 401.142C336.151 400.188 327.564 380.981 337.832 367.987C435.234 244.728 498.264 164.966 597.738 39.0859Z" fill="#CE7B39"/>
<path d="M336.212 388.426C330.635 383.11 329.684 375.486 329.905 372.338L361.135 395.051C355.151 395.058 341.788 393.742 336.212 388.426Z" fill="#CE7B39"/>
<rect x="354.202" y="12.1797" width="281.413" height="376.581" rx="20.4664" transform="rotate(4.02186 354.202 12.1797)" fill="#EDB465"/>
<path d="M371.171 66.5101L373.979 39.5117C374.004 39.2749 376.018 38.6465 380.023 37.6267C384.031 36.573 386.323 36.076 386.898 36.1359C387.473 36.1957 388.264 36.979 389.27 38.4857C390.31 39.996 390.772 41.3094 390.656 42.4259L387.69 70.9467C387.661 71.2173 385.711 71.8866 381.838 72.9543C378.002 73.9918 375.662 74.4665 374.816 74.3786C374.004 74.2941 373.132 73.4682 372.201 71.9008C371.303 70.3369 370.96 68.54 371.171 66.5101ZM379.564 70.153C380.207 70.2198 380.895 70.0178 381.628 69.5468L384.241 44.4262C384.501 41.9226 383.768 40.5811 382.043 40.4016C381.366 40.3312 380.68 40.5164 379.985 40.957L377.367 66.1284C377.106 68.632 377.839 69.9736 379.564 70.153ZM407.698 48.5586C407.867 48.5762 408.262 48.8908 408.883 49.5025C409.506 50.0803 410.107 50.8781 410.686 51.8958C411.267 52.8796 411.512 53.8114 411.421 54.691L410.534 63.2168C410.471 63.8258 409.497 64.4769 407.612 65.1701C405.728 65.8632 403.91 66.4094 402.158 66.8087C400.444 67.1776 399.519 67.355 399.384 67.3409C399.113 69.946 400.079 71.6709 402.283 72.5157C403.371 72.9024 404.693 73.1767 406.25 73.3386L406.097 74.8103C400.355 76.0941 397.298 76.7166 396.925 76.6779C395.91 76.5723 394.952 75.7545 394.051 74.2245C393.154 72.6606 392.805 70.9145 393.006 68.986L394.779 51.9344C394.804 51.6976 396.819 51.0692 400.823 50.0494C404.831 48.9957 407.123 48.4987 407.698 48.5586ZM405.083 56.4429C405.181 55.4956 405.044 54.6777 404.671 53.9891C404.302 53.2667 403.779 52.8703 403.102 52.8C402.425 52.7296 401.655 52.9059 400.79 53.329L399.571 65.0519C402.704 64.5228 404.416 62.8542 404.708 60.0461L405.083 56.4429ZM414.174 74.9834L415.963 57.7796C416.079 56.6631 415.942 55.6743 415.553 54.813C415.164 53.9518 414.614 53.4842 413.904 53.4103L414.02 52.2938C414.26 52.2846 416.211 51.4445 419.873 49.7734C420.103 49.8657 420.38 49.9971 420.704 50.1677C421.032 50.3043 421.439 50.6715 421.924 51.2691C422.442 51.8702 422.665 52.5261 422.591 53.2365C422.805 53.1562 423.413 52.8946 424.417 52.4518C427.068 51.2912 428.681 50.7408 429.257 50.8006C429.866 50.8639 430.494 51.237 431.141 51.9199C431.822 52.6063 432.304 53.3917 432.589 54.2763C432.66 54.2495 433.39 53.9663 434.78 53.4269C437.56 52.3481 439.22 51.8368 439.762 51.8931C440.844 52.0057 441.785 52.8217 442.585 54.3412C443.384 55.8607 443.723 57.2125 443.599 58.3966L442 73.7735C441.807 75.6343 442.521 76.8201 444.144 77.3308L444.028 78.4473L438.174 80.9677C437.462 80.5858 436.819 80.0231 436.247 79.2796C435.678 78.5022 435.425 77.8091 435.488 77.2001L437.045 62.2292C437.274 60.0301 437.138 58.5454 436.636 57.7751C436.139 56.9709 435.433 56.5214 434.519 56.4264L433.016 56.5778L431.343 72.6652C431.15 74.526 431.864 75.7117 433.487 76.2225L433.371 77.3389L427.517 79.8593C426.804 79.4774 426.162 78.9147 425.589 78.1712C425.02 77.3939 424.768 76.7007 424.831 76.0918L426.362 61.3746C426.766 57.4839 426.038 55.4417 424.177 55.2482L422.369 55.368L420.686 71.5569C420.471 73.6206 421.043 74.86 422.402 75.2749L422.286 76.3914L416.86 78.751C416.147 78.3691 415.505 77.8064 414.932 77.0629C414.363 76.2856 414.11 75.5924 414.174 74.9834Z" fill="#302E2F"/>
<path d="M580.992 335.836C577.574 335.809 575.29 337.594 574.14 341.189C573.969 340.578 573.733 339.985 573.431 339.408C571.922 336.566 569.359 335.018 565.744 334.764C564.553 334.68 563.458 334.753 562.458 334.982C559.066 335.812 557.237 338.119 556.971 341.905C556.621 347.48 561.905 350.758 572.821 351.739L572.529 355.886C572.443 357.12 572.283 358.177 572.05 359.058C571.454 361.453 570.157 362.58 568.158 362.439C567.562 362.397 567.038 362.253 566.585 362.008C565.892 361.532 565.371 360.426 565.023 358.692C564.895 358.085 564.797 357.651 564.73 357.389C564.217 355.558 563.047 354.578 561.218 354.45C560.792 354.42 560.384 354.455 559.992 354.556C558.389 354.87 557.528 355.857 557.412 357.516C557.361 358.239 557.504 358.933 557.842 359.598C559.155 362.212 562.703 363.723 568.488 364.129C569.976 364.234 571.369 364.182 572.666 363.974C577.687 363.088 580.384 359.986 580.758 354.669L581.695 341.335C581.839 339.294 582.381 338.263 583.323 338.244C584.553 338.373 585.193 339.914 585.242 342.867L586.905 342.92C586.87 341.592 586.755 340.494 586.56 339.626C585.953 337.317 584.097 336.054 580.992 335.836ZM568.868 337.74C569.166 337.761 569.502 337.849 569.876 338.004C571.614 338.81 572.783 340.73 573.382 343.764L572.947 349.953C571.039 349.733 569.481 349.388 568.275 348.919C566.038 347.907 565.018 345.997 565.215 343.19C565.518 339.492 566.736 337.676 568.868 337.74Z" fill="#302E2F"/>
<mask id="path-23-inside-1_167_2707" fill="white">
<path fill-rule="evenodd" clip-rule="evenodd" d="M425.991 173.364L389.85 168.474L384.623 207.101L420.764 211.991L425.991 173.364ZM394.028 193.399C395.168 184.973 407.149 178.586 407.149 178.586C407.149 178.586 417.001 187.927 415.862 196.353C415.526 198.835 413.081 200.552 410.402 200.19C408.018 199.868 406.255 198.006 406.131 195.851C406.044 197.672 406.129 200.891 407.596 202.671L400.318 201.686C402.204 200.36 403.142 197.279 403.542 195.501C402.85 197.545 400.656 198.871 398.272 198.549C395.593 198.186 393.692 195.881 394.028 193.399Z"/>
</mask>
<path fill-rule="evenodd" clip-rule="evenodd" d="M425.991 173.364L389.85 168.474L384.623 207.101L420.764 211.991L425.991 173.364ZM394.028 193.399C395.168 184.973 407.149 178.586 407.149 178.586C407.149 178.586 417.001 187.927 415.862 196.353C415.526 198.835 413.081 200.552 410.402 200.19C408.018 199.868 406.255 198.006 406.131 195.851C406.044 197.672 406.129 200.891 407.596 202.671L400.318 201.686C402.204 200.36 403.142 197.279 403.542 195.501C402.85 197.545 400.656 198.871 398.272 198.549C395.593 198.186 393.692 195.881 394.028 193.399Z" fill="#302E2F"/>
<path d="M389.85 168.474L389.891 168.17L389.587 168.129L389.546 168.433L389.85 168.474ZM425.991 173.364L426.294 173.405L426.335 173.101L426.032 173.06L425.991 173.364ZM384.623 207.101L384.32 207.06L384.279 207.364L384.582 207.405L384.623 207.101ZM420.764 211.991L420.723 212.295L421.027 212.336L421.068 212.032L420.764 211.991ZM407.149 178.586L407.359 178.364L407.199 178.212L407.004 178.316L407.149 178.586ZM415.862 196.353L416.165 196.394L416.165 196.394L415.862 196.353ZM406.131 195.851L406.437 195.834L405.825 195.837L406.131 195.851ZM407.596 202.671L407.555 202.974L408.33 203.079L407.832 202.476L407.596 202.671ZM400.318 201.686L400.142 201.435L399.502 201.885L400.277 201.99L400.318 201.686ZM403.542 195.501L403.841 195.568L403.251 195.403L403.542 195.501ZM389.809 168.778L425.949 173.668L426.032 173.06L389.891 168.17L389.809 168.778ZM384.927 207.142L390.153 168.515L389.546 168.433L384.32 207.06L384.927 207.142ZM420.805 211.687L384.665 206.797L384.582 207.405L420.723 212.295L420.805 211.687ZM425.687 173.323L420.461 211.95L421.068 212.032L426.294 173.405L425.687 173.323ZM407.149 178.586C407.004 178.316 407.004 178.316 407.004 178.316C407.004 178.316 407.004 178.316 407.004 178.316C407.003 178.316 407.002 178.317 407.002 178.317C407 178.318 406.998 178.319 406.995 178.321C406.988 178.324 406.98 178.329 406.968 178.335C406.944 178.348 406.91 178.367 406.865 178.392C406.775 178.442 406.645 178.515 406.478 178.612C406.145 178.805 405.668 179.09 405.094 179.458C403.945 180.193 402.4 181.263 400.818 182.599C397.669 185.258 394.311 189.025 393.724 193.358L394.332 193.44C394.886 189.347 398.087 185.708 401.214 183.067C402.769 181.753 404.291 180.699 405.424 179.974C405.99 179.611 406.459 179.331 406.785 179.142C406.948 179.048 407.076 178.976 407.162 178.928C407.206 178.904 407.239 178.886 407.261 178.874C407.272 178.868 407.28 178.864 407.285 178.861C407.288 178.859 407.29 178.858 407.291 178.857C407.292 178.857 407.292 178.857 407.292 178.857C407.293 178.857 407.293 178.857 407.293 178.857C407.293 178.857 407.293 178.857 407.149 178.586ZM416.165 196.394C416.751 192.061 414.514 187.537 412.185 184.137C411.015 182.428 409.81 180.987 408.898 179.972C408.442 179.465 408.058 179.064 407.788 178.789C407.653 178.652 407.547 178.546 407.474 178.474C407.437 178.438 407.409 178.411 407.389 178.392C407.38 178.383 407.373 178.376 407.367 178.371C407.365 178.369 407.363 178.367 407.362 178.366C407.361 178.365 407.36 178.365 407.36 178.364C407.36 178.364 407.36 178.364 407.36 178.364C407.36 178.364 407.359 178.364 407.149 178.586C406.938 178.808 406.938 178.808 406.938 178.808C406.938 178.809 406.938 178.809 406.938 178.809C406.938 178.809 406.939 178.809 406.939 178.81C406.94 178.811 406.942 178.812 406.944 178.814C406.948 178.819 406.955 178.825 406.964 178.834C406.982 178.851 407.009 178.877 407.044 178.912C407.115 178.981 407.219 179.084 407.351 179.219C407.615 179.488 407.993 179.882 408.442 180.382C409.342 181.382 410.529 182.803 411.68 184.483C413.992 187.86 416.112 192.219 415.558 196.312L416.165 196.394ZM410.361 200.494C413.185 200.876 415.804 199.065 416.165 196.394L415.558 196.312C415.248 198.604 412.977 200.229 410.443 199.886L410.361 200.494ZM405.825 195.869C405.958 198.183 407.845 200.153 410.361 200.494L410.443 199.886C408.191 199.582 406.552 197.829 406.437 195.834L405.825 195.869ZM407.832 202.476C407.15 201.648 406.774 200.463 406.584 199.229C406.394 198.003 406.394 196.765 406.437 195.866L405.825 195.837C405.781 196.758 405.78 198.04 405.978 199.323C406.175 200.599 406.575 201.913 407.359 202.865L407.832 202.476ZM400.277 201.99L407.555 202.974L407.637 202.367L400.359 201.382L400.277 201.99ZM403.243 195.434C403.045 196.312 402.716 197.505 402.208 198.637C401.696 199.776 401.019 200.819 400.142 201.435L400.494 201.937C401.503 201.227 402.238 200.067 402.767 198.889C403.299 197.705 403.638 196.468 403.841 195.568L403.243 195.434ZM398.231 198.853C400.747 199.193 403.089 197.795 403.832 195.599L403.251 195.403C402.611 197.296 400.565 198.55 398.313 198.245L398.231 198.853ZM393.724 193.358C393.363 196.029 395.407 198.47 398.231 198.853L398.313 198.245C395.78 197.902 394.022 195.733 394.332 193.44L393.724 193.358Z" fill="#302E2F" mask="url(#path-23-inside-1_167_2707)"/>
<mask id="path-25-inside-2_167_2707" fill="white">
<path fill-rule="evenodd" clip-rule="evenodd" d="M420.415 214.574L384.274 209.685L379.048 248.312L415.189 253.201L420.415 214.574ZM388.453 234.609C389.593 226.183 401.573 219.796 401.573 219.796C401.573 219.796 411.426 229.137 410.286 237.563C409.95 240.045 407.505 241.763 404.826 241.4C402.443 241.078 400.68 239.216 400.556 237.062C400.468 238.882 400.554 242.101 402.02 243.881L394.742 242.896C396.629 241.57 397.566 238.489 397.966 236.711C397.274 238.755 395.08 240.082 392.696 239.759C390.018 239.397 388.117 237.091 388.453 234.609Z"/>
</mask>
<path fill-rule="evenodd" clip-rule="evenodd" d="M420.415 214.574L384.274 209.685L379.048 248.312L415.189 253.201L420.415 214.574ZM388.453 234.609C389.593 226.183 401.573 219.796 401.573 219.796C401.573 219.796 411.426 229.137 410.286 237.563C409.95 240.045 407.505 241.763 404.826 241.4C402.443 241.078 400.68 239.216 400.556 237.062C400.468 238.882 400.554 242.101 402.02 243.881L394.742 242.896C396.629 241.57 397.566 238.489 397.966 236.711C397.274 238.755 395.08 240.082 392.696 239.759C390.018 239.397 388.117 237.091 388.453 234.609Z" fill="#302E2F"/>
<path d="M384.274 209.685L384.315 209.381L384.011 209.34L383.97 209.643L384.274 209.685ZM420.415 214.574L420.719 214.615L420.76 214.312L420.456 214.271L420.415 214.574ZM379.048 248.312L378.744 248.271L378.703 248.574L379.007 248.615L379.048 248.312ZM415.189 253.201L415.148 253.505L415.451 253.546L415.492 253.242L415.189 253.201ZM401.573 219.796L401.784 219.574L401.624 219.422L401.429 219.526L401.573 219.796ZM410.286 237.563L410.59 237.604L410.59 237.604L410.286 237.563ZM400.556 237.062L400.862 237.044L400.25 237.047L400.556 237.062ZM402.02 243.881L401.979 244.185L402.754 244.289L402.257 243.686L402.02 243.881ZM394.742 242.896L394.566 242.645L393.926 243.095L394.701 243.2L394.742 242.896ZM397.966 236.711L398.265 236.779L397.676 236.613L397.966 236.711ZM384.233 209.988L420.374 214.878L420.456 214.271L384.315 209.381L384.233 209.988ZM379.352 248.353L384.578 209.726L383.97 209.643L378.744 248.271L379.352 248.353ZM415.23 252.898L379.089 248.008L379.007 248.615L415.148 253.505L415.23 252.898ZM420.111 214.533L414.885 253.16L415.492 253.242L420.719 214.615L420.111 214.533ZM401.573 219.796C401.429 219.526 401.429 219.526 401.429 219.526C401.428 219.526 401.428 219.526 401.428 219.526C401.428 219.527 401.427 219.527 401.426 219.527C401.425 219.528 401.422 219.529 401.419 219.531C401.413 219.534 401.404 219.539 401.392 219.546C401.369 219.558 401.334 219.577 401.29 219.602C401.2 219.652 401.069 219.725 400.902 219.822C400.569 220.015 400.093 220.3 399.518 220.668C398.369 221.403 396.824 222.473 395.243 223.809C392.094 226.468 388.735 230.236 388.149 234.568L388.756 234.65C389.31 230.557 392.511 226.918 395.638 224.277C397.194 222.963 398.716 221.909 399.849 221.184C400.415 220.822 400.883 220.542 401.21 220.352C401.373 220.258 401.5 220.186 401.587 220.138C401.63 220.114 401.663 220.096 401.685 220.084C401.696 220.078 401.704 220.074 401.71 220.071C401.712 220.069 401.714 220.068 401.716 220.068C401.716 220.067 401.717 220.067 401.717 220.067C401.717 220.067 401.717 220.067 401.717 220.067C401.717 220.067 401.717 220.067 401.573 219.796ZM410.59 237.604C411.176 233.272 408.939 228.747 406.61 225.347C405.44 223.639 404.235 222.197 403.323 221.183C402.866 220.675 402.483 220.274 402.213 219.999C402.078 219.862 401.971 219.756 401.898 219.684C401.861 219.649 401.833 219.621 401.814 219.603C401.804 219.593 401.797 219.586 401.792 219.582C401.789 219.579 401.788 219.577 401.786 219.576C401.786 219.575 401.785 219.575 401.785 219.575C401.784 219.574 401.784 219.574 401.784 219.574C401.784 219.574 401.784 219.574 401.573 219.796C401.362 220.019 401.362 220.019 401.362 220.019C401.362 220.019 401.362 220.019 401.362 220.019C401.363 220.019 401.363 220.02 401.364 220.02C401.365 220.021 401.366 220.023 401.368 220.025C401.373 220.029 401.38 220.035 401.389 220.044C401.407 220.061 401.434 220.088 401.469 220.122C401.539 220.191 401.643 220.294 401.776 220.429C402.04 220.698 402.417 221.093 402.867 221.592C403.766 222.593 404.953 224.013 406.104 225.693C408.417 229.07 410.536 233.429 409.982 237.522L410.59 237.604ZM404.785 241.704C407.609 242.086 410.229 240.275 410.59 237.604L409.983 237.522C409.672 239.815 407.401 241.439 404.867 241.097L404.785 241.704ZM400.25 237.079C400.383 239.393 402.269 241.364 404.785 241.704L404.867 241.097C402.616 240.792 400.977 239.039 400.862 237.044L400.25 237.079ZM402.257 243.686C401.575 242.859 401.199 241.673 401.008 240.44C400.819 239.213 400.819 237.975 400.862 237.076L400.25 237.047C400.205 237.968 400.204 239.251 400.402 240.533C400.599 241.81 400.999 243.124 401.784 244.076L402.257 243.686ZM394.701 243.2L401.979 244.185L402.061 243.577L394.783 242.592L394.701 243.2ZM397.667 236.644C397.47 237.522 397.141 238.715 396.632 239.848C396.121 240.986 395.443 242.029 394.566 242.645L394.919 243.147C395.928 242.437 396.662 241.277 397.191 240.099C397.723 238.915 398.063 237.678 398.265 236.779L397.667 236.644ZM392.655 240.063C395.171 240.403 397.514 239.005 398.256 236.81L397.676 236.613C397.035 238.506 394.989 239.76 392.737 239.455L392.655 240.063ZM388.149 234.568C387.787 237.239 389.831 239.681 392.655 240.063L392.737 239.455C390.204 239.113 388.446 236.943 388.756 234.65L388.149 234.568Z" fill="#302E2F" mask="url(#path-25-inside-2_167_2707)"/>
<rect x="429.229" y="173.871" width="10.978" height="38.8747" transform="rotate(7.70517 429.229 173.871)" fill="#302E2F" stroke="#302E2F" stroke-width="0.103419"/>
<rect x="427.868" y="183.941" width="10.1608" height="32.2992" transform="rotate(-82.2948 427.868 183.941)" fill="#302E2F" stroke="#302E2F" stroke-width="0.103419"/>
<rect x="424.017" y="212.395" width="10.1608" height="32.2992" transform="rotate(-82.2948 424.017 212.395)" fill="#302E2F" stroke="#302E2F" stroke-width="0.103419"/>
<rect x="425.934" y="198.233" width="10.1608" height="32.2992" transform="rotate(-82.2948 425.934 198.233)" fill="#302E2F" stroke="#302E2F" stroke-width="0.103419"/>
<rect x="423.656" y="215.073" width="10.978" height="38.8747" transform="rotate(7.70517 423.656 215.073)" fill="#302E2F" stroke="#302E2F" stroke-width="0.103419"/>
<rect x="422.294" y="225.142" width="10.1608" height="32.2992" transform="rotate(-82.2948 422.294 225.142)" fill="#302E2F" stroke="#302E2F" stroke-width="0.103419"/>
<rect x="418.443" y="253.597" width="10.1608" height="32.2992" transform="rotate(-82.2948 418.443 253.597)" fill="#302E2F" stroke="#302E2F" stroke-width="0.103419"/>
<rect x="420.36" y="239.434" width="10.1608" height="32.2992" transform="rotate(-82.2948 420.36 239.434)" fill="#302E2F" stroke="#302E2F" stroke-width="0.103419"/>
<rect x="464.537" y="178.649" width="10.978" height="38.8747" transform="rotate(7.70517 464.537 178.649)" fill="#302E2F" stroke="#302E2F" stroke-width="0.103419"/>
<rect x="496.648" y="182.993" width="10.978" height="38.8747" transform="rotate(7.70517 496.648 182.993)" fill="#302E2F" stroke="#302E2F" stroke-width="0.103419"/>
<rect x="480.662" y="180.83" width="10.978" height="38.8747" transform="rotate(7.70517 480.662 180.83)" fill="#302E2F" stroke="#302E2F" stroke-width="0.103419"/>
<rect x="474.157" y="190.203" width="10.1608" height="32.2992" transform="rotate(-82.2948 474.157 190.203)" fill="#302E2F" stroke="#302E2F" stroke-width="0.103419"/>
<rect x="458.963" y="219.85" width="10.978" height="38.8747" transform="rotate(7.70517 458.963 219.85)" fill="#302E2F" stroke="#302E2F" stroke-width="0.103419"/>
<rect x="491.073" y="224.194" width="10.978" height="38.8747" transform="rotate(7.70517 491.073 224.194)" fill="#302E2F" stroke="#302E2F" stroke-width="0.103419"/>
<rect x="475.088" y="222.032" width="10.978" height="38.8747" transform="rotate(7.70517 475.088 222.032)" fill="#302E2F" stroke="#302E2F" stroke-width="0.103419"/>
<rect x="468.582" y="231.405" width="10.1608" height="32.2992" transform="rotate(-82.2948 468.582 231.405)" fill="#302E2F" stroke="#302E2F" stroke-width="0.103419"/>
<path d="M433.798 165.717L440.898 147.84C442.458 143.914 446.491 141.556 450.677 142.122L542.796 154.586C548.582 155.369 552.183 161.276 550.227 166.777L506.31 290.32C504.853 294.419 500.724 296.936 496.413 296.352L403.606 283.796C397.449 282.963 393.873 276.389 396.52 270.767L402.3 258.493" stroke="#302E2F" stroke-width="3.61968"/>
<path d="M384.18 89.1747C384.18 89.1747 363.725 102.895 362.589 119.056C362.254 123.817 365.843 127.946 370.602 128.281C374.838 128.579 378.568 125.769 379.575 121.793C379.055 125.224 377.721 131.203 374.534 133.972L387.464 134.881C384.695 131.693 384.21 125.587 384.176 122.117C384.618 126.194 387.918 129.499 392.153 129.796C396.912 130.131 401.044 126.544 401.379 121.784C402.514 105.622 384.18 89.1747 384.18 89.1747Z" fill="#302E2F"/>
<path d="M572.303 324.322C572.303 324.322 553.969 307.875 555.106 291.713C555.44 286.953 559.572 283.366 564.331 283.701C568.567 283.998 571.867 287.303 572.308 291.38C572.273 287.91 571.789 281.804 569.02 278.616L581.95 279.525C578.762 282.294 577.428 288.272 576.909 291.704C577.917 287.728 581.647 284.918 585.882 285.216C590.641 285.55 594.231 289.68 593.896 294.441C592.758 310.602 572.303 324.322 572.303 324.322Z" fill="#302E2F"/>
</g>
<g filter="url(#filter2_d_167_2707)">
<path d="M744.536 184.653C754.427 176.138 769.695 178.896 775.919 190.368L782.448 202.401C784.946 207.006 785.583 212.392 784.229 217.452L698.049 539.495C695.153 550.317 684.094 556.8 673.236 554.04L435.118 493.516C419.067 489.436 414.288 468.947 426.839 458.142C545.899 355.649 622.944 289.325 744.536 184.653Z" fill="#CE7B39"/>
<path d="M421.364 477.899C416.9 471.62 417.415 463.954 418.231 460.906L444.573 489.142C438.697 488.011 425.827 484.179 421.364 477.899Z" fill="#CE7B39"/>
<rect x="510.557" y="111.937" width="281.413" height="376.581" rx="20.4664" transform="rotate(14.9816 510.557 111.937)" fill="#EDB465"/>
<path d="M519.777 173.406L527.007 145.555L529.045 144.402L525.735 143.542C523.598 142.987 522.239 143.252 521.659 144.335L520.503 144.035L518.626 138.948C519.219 138.392 519.917 137.937 520.719 137.585C521.521 137.232 522.237 137.137 522.868 137.301L536.74 140.902C538.877 141.457 540.236 141.193 540.816 140.11L541.972 140.41L543.849 145.496C543.256 146.053 542.558 146.507 541.756 146.86C540.954 147.213 540.238 147.307 539.607 147.144L533.722 145.616L526.792 172.31C526.456 173.606 526.355 174.571 526.489 175.204C526.624 175.838 527.13 176.268 528.005 176.495L527.582 178.124L515.637 179.847L515.233 177.947C516.003 178.147 516.857 177.883 517.794 177.154C518.652 176.442 519.313 175.192 519.777 173.406ZM535.541 176.04L541.775 152.025C542.111 150.729 542.212 149.764 542.077 149.131C541.943 148.498 541.437 148.067 540.562 147.84L540.984 146.211L552.93 144.488L553.334 146.388C552.563 146.188 551.71 146.452 550.772 147.181C549.915 147.894 549.254 149.143 548.79 150.93L542.378 175.627C542.133 176.573 542.113 177.297 542.319 177.799C542.535 178.267 543.028 178.6 543.798 178.8L543.416 180.272C535.495 181.543 531.517 182.175 531.482 182.166L531.078 180.266C531.358 180.339 531.723 180.302 532.172 180.157C532.656 180.021 533.079 179.832 533.441 179.589C534.395 178.939 535.095 177.756 535.541 176.04Z" fill="#302E2F"/>
<path d="M641.884 485.325L636.648 504.89C636.365 505.946 636.049 506.672 635.698 507.068C635.348 507.463 634.816 507.566 634.102 507.375L633.747 508.702L641.538 514.732L642.59 513.546C641.962 513.378 641.462 512.846 641.09 511.951C640.767 511.1 640.8 509.947 641.19 508.491L646.574 488.369C646.781 487.598 647.058 487.076 647.407 486.802C647.748 486.557 648.232 486.519 648.86 486.687L649.181 485.488C644.066 481.397 641.495 479.348 641.466 479.34L640.415 480.527C640.643 480.588 640.888 480.761 641.148 481.044C641.437 481.336 641.661 481.641 641.821 481.959C642.237 482.804 642.258 483.926 641.884 485.325ZM654.671 487.554L648.599 510.245L649.583 511.884L646.885 511.163C645.144 510.697 644.286 509.962 644.309 508.959L643.367 508.707L639.988 511.565C640.185 512.199 640.498 512.802 640.925 513.376C641.353 513.949 641.824 514.304 642.338 514.442L653.64 517.466C655.381 517.932 656.24 518.667 656.216 519.67L657.158 519.922L660.538 517.064C660.341 516.43 660.028 515.827 659.6 515.253C659.173 514.68 658.702 514.325 658.188 514.187L653.393 512.904L659.213 491.155C659.496 490.099 659.812 489.373 660.163 488.977C660.514 488.582 661.046 488.48 661.759 488.67L662.114 487.343L654.323 481.313L653.271 482.499C653.899 482.667 654.399 483.199 654.771 484.094C655.094 484.945 655.061 486.098 654.671 487.554Z" fill="#302E2F"/>
<mask id="path-51-inside-3_167_2707" fill="white">
<path fill-rule="evenodd" clip-rule="evenodd" d="M575.114 276.748L541.476 266.611L529.778 305.426L563.417 315.563L575.114 276.748ZM541.133 292.728C543.684 284.261 556.227 279.421 556.227 279.421C556.227 279.421 564.006 290.386 561.455 298.853C560.703 301.346 558.072 302.758 555.578 302.007C553.36 301.338 552.001 299.182 552.257 296.958C551.857 298.809 551.379 302.118 552.47 304.149L545.695 302.108C547.726 301.017 549.156 297.995 549.846 296.231C548.831 298.227 546.507 299.273 544.288 298.605C541.795 297.853 540.381 295.222 541.133 292.728Z"/>
</mask>
<path fill-rule="evenodd" clip-rule="evenodd" d="M575.114 276.748L541.476 266.611L529.778 305.426L563.417 315.563L575.114 276.748ZM541.133 292.728C543.684 284.261 556.227 279.421 556.227 279.421C556.227 279.421 564.006 290.386 561.455 298.853C560.703 301.346 558.072 302.758 555.578 302.007C553.36 301.338 552.001 299.182 552.257 296.958C551.857 298.809 551.379 302.118 552.47 304.149L545.695 302.108C547.726 301.017 549.156 297.995 549.846 296.231C548.831 298.227 546.507 299.273 544.288 298.605C541.795 297.853 540.381 295.222 541.133 292.728Z" fill="#302E2F"/>
<path d="M541.476 266.611L541.591 266.227L541.208 266.112L541.092 266.495L541.476 266.611ZM575.114 276.748L575.498 276.864L575.613 276.48L575.23 276.365L575.114 276.748ZM529.778 305.426L529.395 305.31L529.279 305.694L529.663 305.809L529.778 305.426ZM563.417 315.563L563.301 315.947L563.685 316.062L563.8 315.679L563.417 315.563ZM556.227 279.421L556.553 279.19L556.373 278.936L556.082 279.048L556.227 279.421ZM561.455 298.853L561.838 298.968L561.838 298.968L561.455 298.853ZM552.257 296.958L552.654 297.004L551.865 296.873L552.257 296.958ZM552.47 304.149L552.354 304.532L553.28 304.811L552.822 303.959L552.47 304.149ZM545.695 302.108L545.506 301.755L544.654 302.212L545.58 302.491L545.695 302.108ZM549.846 296.231L550.219 296.377L549.489 296.05L549.846 296.231ZM541.36 266.994L574.999 277.132L575.23 276.365L541.591 266.227L541.36 266.994ZM530.162 305.541L541.859 266.726L541.092 266.495L529.395 305.31L530.162 305.541ZM563.533 315.18L529.894 305.042L529.663 305.809L563.301 315.947L563.533 315.18ZM574.731 276.633L563.034 315.448L563.8 315.679L575.498 276.864L574.731 276.633ZM556.227 279.421C556.082 279.048 556.082 279.048 556.082 279.048C556.082 279.048 556.082 279.048 556.081 279.048C556.081 279.048 556.08 279.049 556.079 279.049C556.078 279.05 556.075 279.051 556.072 279.052C556.065 279.054 556.056 279.058 556.043 279.063C556.018 279.073 555.982 279.087 555.935 279.107C555.84 279.145 555.702 279.202 555.525 279.278C555.172 279.429 554.667 279.653 554.053 279.949C552.826 280.541 551.162 281.419 549.417 282.565C545.944 284.846 542.068 288.239 540.749 292.613L541.516 292.844C542.75 288.751 546.421 285.491 549.856 283.235C551.565 282.112 553.197 281.251 554.401 280.671C555.003 280.38 555.497 280.161 555.84 280.014C556.012 279.941 556.145 279.885 556.236 279.849C556.281 279.831 556.315 279.817 556.338 279.808C556.349 279.803 556.358 279.8 556.363 279.798C556.366 279.797 556.368 279.796 556.369 279.796C556.37 279.795 556.37 279.795 556.371 279.795C556.371 279.795 556.371 279.795 556.371 279.795C556.371 279.795 556.371 279.795 556.227 279.421ZM561.838 298.968C563.156 294.594 561.8 289.624 560.166 285.804C559.344 283.884 558.442 282.233 557.746 281.062C557.398 280.476 557.101 280.01 556.891 279.689C556.785 279.529 556.702 279.405 556.644 279.32C556.615 279.278 556.593 279.246 556.577 279.224C556.57 279.213 556.564 279.205 556.56 279.199C556.558 279.196 556.556 279.194 556.555 279.192C556.555 279.191 556.554 279.191 556.554 279.19C556.554 279.19 556.553 279.19 556.553 279.19C556.553 279.19 556.553 279.19 556.227 279.421C555.9 279.653 555.9 279.653 555.9 279.653C555.9 279.653 555.9 279.653 555.9 279.653C555.9 279.653 555.901 279.654 555.901 279.654C555.902 279.655 555.903 279.657 555.905 279.66C555.908 279.665 555.913 279.672 555.92 279.682C555.934 279.702 555.955 279.732 555.983 279.773C556.038 279.853 556.119 279.973 556.221 280.129C556.426 280.441 556.717 280.897 557.058 281.471C557.741 282.621 558.625 284.24 559.429 286.119C561.046 289.898 562.305 294.644 561.071 298.737L561.838 298.968ZM555.462 302.39C558.168 303.206 561.023 301.674 561.838 298.968L561.071 298.737C560.384 301.019 557.975 302.311 555.694 301.624L555.462 302.39ZM551.859 296.912C551.581 299.325 553.055 301.665 555.462 302.39L555.694 301.624C553.664 301.012 552.42 299.039 552.654 297.004L551.859 296.912ZM552.822 303.959C552.326 303.036 552.172 301.784 552.205 300.496C552.237 299.218 552.451 297.955 552.648 297.042L551.865 296.873C551.662 297.812 551.438 299.129 551.404 300.476C551.37 301.813 551.522 303.232 552.117 304.338L552.822 303.959ZM545.58 302.491L552.354 304.532L552.585 303.765L545.811 301.724L545.58 302.491ZM549.473 296.085C549.133 296.955 548.613 298.126 547.934 299.209C547.25 300.301 546.43 301.259 545.506 301.755L545.885 302.46C546.991 301.866 547.902 300.768 548.613 299.635C549.328 298.494 549.869 297.272 550.219 296.377L549.473 296.085ZM544.172 298.988C546.581 299.714 549.102 298.577 550.203 296.413L549.489 296.05C548.56 297.876 546.433 298.833 544.403 298.221L544.172 298.988ZM540.749 292.613C539.934 295.319 541.468 298.173 544.172 298.988L544.403 298.221C542.122 297.534 540.829 295.126 541.516 292.844L540.749 292.613Z" fill="#302E2F" mask="url(#path-51-inside-3_167_2707)"/>
<mask id="path-53-inside-4_167_2707" fill="white">
<path fill-rule="evenodd" clip-rule="evenodd" d="M562.635 318.159L528.996 308.021L517.299 346.836L550.938 356.974L562.635 318.159ZM528.654 334.139C531.205 325.672 543.747 320.832 543.747 320.832C543.747 320.832 551.527 331.796 548.976 340.263C548.224 342.757 545.592 344.169 543.099 343.418C540.88 342.749 539.521 340.592 539.777 338.368C539.378 340.22 538.9 343.529 539.99 345.56L533.216 343.518C535.247 342.428 536.677 339.406 537.367 337.642C536.352 339.637 534.028 340.684 531.809 340.015C529.316 339.264 527.902 336.633 528.654 334.139Z"/>
</mask>
<path fill-rule="evenodd" clip-rule="evenodd" d="M562.635 318.159L528.996 308.021L517.299 346.836L550.938 356.974L562.635 318.159ZM528.654 334.139C531.205 325.672 543.747 320.832 543.747 320.832C543.747 320.832 551.527 331.796 548.976 340.263C548.224 342.757 545.592 344.169 543.099 343.418C540.88 342.749 539.521 340.592 539.777 338.368C539.378 340.22 538.9 343.529 539.99 345.56L533.216 343.518C535.247 342.428 536.677 339.406 537.367 337.642C536.352 339.637 534.028 340.684 531.809 340.015C529.316 339.264 527.902 336.633 528.654 334.139Z" fill="#302E2F"/>
<path d="M528.996 308.021L529.112 307.638L528.728 307.523L528.613 307.906L528.996 308.021ZM562.635 318.159L563.018 318.274L563.134 317.891L562.75 317.775L562.635 318.159ZM517.299 346.836L516.915 346.721L516.8 347.104L517.183 347.22L517.299 346.836ZM550.938 356.974L550.822 357.357L551.205 357.473L551.321 357.089L550.938 356.974ZM543.747 320.832L544.074 320.6L543.894 320.346L543.603 320.458L543.747 320.832ZM548.976 340.263L549.359 340.379L549.359 340.379L548.976 340.263ZM539.777 338.368L540.175 338.414L539.386 338.284L539.777 338.368ZM539.99 345.56L539.875 345.943L540.801 346.222L540.343 345.37L539.99 345.56ZM533.216 343.518L533.027 343.165L532.175 343.623L533.101 343.902L533.216 343.518ZM537.367 337.642L537.74 337.788L537.01 337.46L537.367 337.642ZM528.881 308.405L562.519 318.542L562.75 317.775L529.112 307.638L528.881 308.405ZM517.682 346.952L529.38 308.137L528.613 307.906L516.915 346.721L517.682 346.952ZM551.053 356.59L517.414 346.453L517.183 347.22L550.822 357.357L551.053 356.59ZM562.251 318.043L550.554 356.858L551.321 357.089L563.018 318.274L562.251 318.043ZM543.747 320.832C543.603 320.458 543.603 320.458 543.603 320.458C543.603 320.458 543.603 320.459 543.602 320.459C543.602 320.459 543.601 320.459 543.6 320.459C543.598 320.46 543.596 320.461 543.593 320.462C543.586 320.465 543.576 320.469 543.564 320.474C543.539 320.483 543.503 320.498 543.455 320.517C543.361 320.556 543.222 320.613 543.046 320.688C542.693 320.839 542.188 321.064 541.574 321.36C540.347 321.951 538.683 322.829 536.938 323.976C533.464 326.256 529.588 329.649 528.27 334.024L529.037 334.255C530.271 330.162 533.942 326.901 537.377 324.645C539.086 323.523 540.717 322.662 541.922 322.081C542.524 321.791 543.018 321.571 543.361 321.425C543.533 321.351 543.666 321.296 543.756 321.259C543.802 321.241 543.836 321.227 543.859 321.218C543.87 321.214 543.878 321.211 543.884 321.208C543.887 321.207 543.889 321.207 543.89 321.206C543.891 321.206 543.891 321.206 543.891 321.206C543.892 321.206 543.892 321.206 543.892 321.206C543.892 321.206 543.892 321.206 543.747 320.832ZM549.359 340.379C550.677 336.005 549.321 331.035 547.686 327.215C546.865 325.295 545.963 323.644 545.267 322.473C544.919 321.887 544.622 321.421 544.411 321.1C544.306 320.939 544.222 320.815 544.165 320.731C544.136 320.689 544.113 320.657 544.098 320.635C544.091 320.624 544.085 320.615 544.081 320.61C544.079 320.607 544.077 320.604 544.076 320.603C544.075 320.602 544.075 320.601 544.075 320.601C544.074 320.601 544.074 320.601 544.074 320.6C544.074 320.6 544.074 320.6 543.747 320.832C543.421 321.064 543.421 321.064 543.421 321.064C543.421 321.064 543.421 321.064 543.421 321.064C543.421 321.064 543.421 321.064 543.422 321.065C543.423 321.066 543.424 321.068 543.425 321.07C543.429 321.075 543.434 321.083 543.441 321.093C543.455 321.113 543.476 321.143 543.504 321.183C543.559 321.264 543.64 321.383 543.742 321.539C543.947 321.851 544.237 322.308 544.579 322.882C545.262 324.031 546.146 325.65 546.95 327.53C548.567 331.309 549.825 336.055 548.592 340.148L549.359 340.379ZM542.983 343.801C545.688 344.616 548.544 343.085 549.359 340.379L548.592 340.148C547.905 342.43 545.496 343.722 543.214 343.034L542.983 343.801ZM539.38 338.323C539.102 340.735 540.575 343.075 542.983 343.801L543.214 343.034C541.185 342.423 539.941 340.45 540.175 338.414L539.38 338.323ZM540.343 345.37C539.847 344.446 539.693 343.195 539.725 341.907C539.758 340.629 539.972 339.366 540.169 338.453L539.386 338.284C539.183 339.223 538.959 340.54 538.925 341.887C538.891 343.224 539.043 344.642 539.638 345.749L540.343 345.37ZM533.101 343.902L539.875 345.943L540.106 345.176L533.332 343.135L533.101 343.902ZM536.994 337.496C536.654 338.366 536.134 339.537 535.455 340.62C534.77 341.711 533.951 342.669 533.027 343.165L533.406 343.871C534.512 343.277 535.423 342.179 536.133 341.046C536.849 339.904 537.39 338.682 537.74 337.788L536.994 337.496ZM531.693 340.399C534.101 341.124 536.623 339.988 537.724 337.824L537.01 337.46C536.081 339.286 533.954 340.243 531.924 339.632L531.693 340.399ZM528.27 334.024C527.455 336.729 528.988 339.584 531.693 340.399L531.924 339.632C529.643 338.944 528.349 336.537 529.037 334.255L528.27 334.024Z" fill="#302E2F" mask="url(#path-53-inside-4_167_2707)"/>
<rect x="578.13" y="277.745" width="10.54" height="40.4032" transform="rotate(16.7706 578.13 277.745)" fill="#302E2F" stroke="#302E2F" stroke-width="0.135128"/>
<rect x="575.089" y="287.837" width="10.54" height="31.0794" transform="rotate(-73.2294 575.089 287.837)" fill="#302E2F" stroke="#302E2F" stroke-width="0.135128"/>
<rect x="566.472" y="316.43" width="10.54" height="31.0794" transform="rotate(-73.2294 566.472 316.43)" fill="#302E2F" stroke="#302E2F" stroke-width="0.135128"/>
<rect x="570.761" y="302.198" width="10.54" height="31.0794" transform="rotate(-73.2294 570.761 302.198)" fill="#302E2F" stroke="#302E2F" stroke-width="0.135128"/>
<rect x="565.653" y="319.147" width="10.54" height="40.4032" transform="rotate(16.7706 565.653 319.147)" fill="#302E2F" stroke="#302E2F" stroke-width="0.135128"/>
<rect x="562.613" y="329.239" width="10.54" height="31.0794" transform="rotate(-73.2294 562.613 329.239)" fill="#302E2F" stroke="#302E2F" stroke-width="0.135128"/>
<rect x="553.995" y="357.832" width="10.54" height="31.0794" transform="rotate(-73.2294 553.995 357.832)" fill="#302E2F" stroke="#302E2F" stroke-width="0.135128"/>
<rect x="558.284" y="343.601" width="10.54" height="31.0794" transform="rotate(-73.2294 558.284 343.601)" fill="#302E2F" stroke="#302E2F" stroke-width="0.135128"/>
<rect x="610.992" y="287.649" width="10.54" height="40.4032" transform="rotate(16.7706 610.992 287.649)" fill="#302E2F" stroke="#302E2F" stroke-width="0.135128"/>
<rect x="640.879" y="296.656" width="10.54" height="40.4032" transform="rotate(16.7706 640.879 296.656)" fill="#302E2F" stroke="#302E2F" stroke-width="0.135128"/>
<rect x="626" y="292.172" width="10.54" height="40.4032" transform="rotate(16.7706 626 292.172)" fill="#302E2F" stroke="#302E2F" stroke-width="0.135128"/>
<rect x="618.173" y="300.821" width="10.54" height="31.0794" transform="rotate(-73.2294 618.173 300.821)" fill="#302E2F" stroke="#302E2F" stroke-width="0.135128"/>
<rect x="598.516" y="329.05" width="10.54" height="40.4032" transform="rotate(16.7706 598.516 329.05)" fill="#302E2F" stroke="#302E2F" stroke-width="0.135128"/>
<rect x="628.403" y="338.057" width="10.54" height="40.4032" transform="rotate(16.7706 628.403 338.057)" fill="#302E2F" stroke="#302E2F" stroke-width="0.135128"/>
<rect x="613.524" y="333.573" width="10.54" height="40.4032" transform="rotate(16.7706 613.524 333.573)" fill="#302E2F" stroke="#302E2F" stroke-width="0.135128"/>
<rect x="605.696" y="342.222" width="10.54" height="31.0794" transform="rotate(-73.2294 605.696 342.222)" fill="#302E2F" stroke="#302E2F" stroke-width="0.135128"/>
<path d="M583.894 270.025L592.725 254.563C595.501 249.703 601.265 247.404 606.623 249.019L686.331 273.039C693.566 275.219 697.015 283.457 693.494 290.142L632.451 406.007C629.771 411.094 623.861 413.569 618.356 411.91L538.347 387.799C530.676 385.487 527.374 376.456 531.745 369.742L537.719 360.563" stroke="#302E2F" stroke-width="4.72947"/>
<path d="M525.35 193.226C525.35 193.226 502.66 202.807 498.472 218.457C497.238 223.067 499.977 227.804 504.585 229.037C508.687 230.135 512.883 228.085 514.628 224.374C513.465 227.643 511.019 233.259 507.363 235.372L519.885 238.722C517.772 235.067 518.457 228.98 519.084 225.566C518.742 229.653 521.354 233.525 525.455 234.622C530.064 235.856 534.802 233.12 536.036 228.51C540.223 212.859 525.35 193.226 525.35 193.226Z" fill="#302E2F"/>
<path d="M665.336 459.85C665.336 459.85 650.463 440.217 654.651 424.567C655.885 419.957 660.624 417.221 665.232 418.454C669.334 419.552 671.945 423.423 671.603 427.51C672.228 424.096 672.914 418.009 670.802 414.354L683.324 417.705C679.667 419.817 677.221 425.432 676.059 428.702C677.804 424.991 682.001 422.941 686.101 424.039C690.711 425.272 693.449 430.009 692.216 434.619C688.026 450.269 665.336 459.85 665.336 459.85Z" fill="#302E2F"/>
</g>
<defs>
<filter id="filter0_d_167_2707" x="121.873" y="57.1025" width="370.93" height="441.411" filterUnits="userSpaceOnUse" color-interpolation-filters="sRGB">
<feFlood flood-opacity="0" result="BackgroundImageFix"/>
<feColorMatrix in="SourceAlpha" type="matrix" values="0 0 0 0 0 0 0 0 0 0 0 0 0 0 0 0 0 0 127 0" result="hardAlpha"/>
<feOffset dy="5.1512"/>
<feGaussianBlur stdDeviation="2.5756"/>
<feComposite in2="hardAlpha" operator="out"/>
<feColorMatrix type="matrix" values="0 0 0 0 0 0 0 0 0 0 0 0 0 0 0 0 0 0 0.25 0"/>
<feBlend mode="normal" in2="BackgroundImageFix" result="effect1_dropShadow_167_2707"/>
<feBlend mode="normal" in="SourceGraphic" in2="effect1_dropShadow_167_2707" result="shape"/>
</filter>
<filter id="filter1_d_167_2707" x="324.023" y="13.564" width="324.122" height="412.064" filterUnits="userSpaceOnUse" color-interpolation-filters="sRGB">
<feFlood flood-opacity="0" result="BackgroundImageFix"/>
<feColorMatrix in="SourceAlpha" type="matrix" values="0 0 0 0 0 0 0 0 0 0 0 0 0 0 0 0 0 0 127 0" result="hardAlpha"/>
<feOffset dy="5.1512"/>
<feGaussianBlur stdDeviation="2.5756"/>
<feComposite in2="hardAlpha" operator="out"/>
<feColorMatrix type="matrix" values="0 0 0 0 0 0 0 0 0 0 0 0 0 0 0 0 0 0 0.25 0"/>
<feBlend mode="normal" in2="BackgroundImageFix" result="effect1_dropShadow_167_2707"/>
<feBlend mode="normal" in="SourceGraphic" in2="effect1_dropShadow_167_2707" result="shape"/>
</filter>
<filter id="filter2_d_167_2707" x="412.534" y="116.526" width="377.542" height="448.451" filterUnits="userSpaceOnUse" color-interpolation-filters="sRGB">
<feFlood flood-opacity="0" result="BackgroundImageFix"/>
<feColorMatrix in="SourceAlpha" type="matrix" values="0 0 0 0 0 0 0 0 0 0 0 0 0 0 0 0 0 0 127 0" result="hardAlpha"/>
<feOffset dy="5.1512"/>
<feGaussianBlur stdDeviation="2.5756"/>
<feComposite in2="hardAlpha" operator="out"/>
<feColorMatrix type="matrix" values="0 0 0 0 0 0 0 0 0 0 0 0 0 0 0 0 0 0 0.25 0"/>
<feBlend mode="normal" in2="BackgroundImageFix" result="effect1_dropShadow_167_2707"/>
<feBlend mode="normal" in="SourceGraphic" in2="effect1_dropShadow_167_2707" result="shape"/>
</filter>
<clipPath id="clip0_167_2707">
<rect width="205.544" height="81.6346" fill="white" transform="translate(183.833 239.001) rotate(-13.816)"/>
</clipPath>
</defs>
</svg>
