<svg width="92" height="111" viewBox="0 0 92 111" fill="none" xmlns="http://www.w3.org/2000/svg">
<mask id="mask0_167_3281" style="mask-type:luminance" maskUnits="userSpaceOnUse" x="0" y="9" width="92" height="93">
<path d="M0 9.25781H91.9656V101.223H0V9.25781Z" fill="white"/>
</mask>
<g mask="url(#mask0_167_3281)">
<path d="M51.8678 9.41748H40.0764C17.486 12.3123 0.0238037 31.6341 0.0238037 55.0401C0.0238037 80.3956 20.5495 101.038 45.9721 101.038C71.1834 101.038 91.9204 80.6142 91.9204 55.0401C91.9204 31.6341 74.4592 12.3123 51.8678 9.41748Z" fill="#365E53"/>
</g>
<mask id="mask1_167_3281" style="mask-type:luminance" maskUnits="userSpaceOnUse" x="10" y="94" width="73" height="17">
<path d="M10.0107 94.0249H82.004V110.081H10.0107V94.0249Z" fill="white"/>
</mask>
<g mask="url(#mask1_167_3281)">
<path d="M70.0142 94.2441L81.8773 110.081H10.0682L23.2322 95.0207C37.5891 103.223 55.5947 103.123 70.0142 94.2441Z" fill="#4C5195"/>
</g>
<path d="M63.7871 49.2484L54.5792 58.0053L56.6349 70.0154L45.8631 64.3437L35.1549 69.9374L37.147 58.0053L28.1578 49.3935L40.4763 47.747L45.9947 36.1279L51.249 47.747L63.7871 49.2484Z" fill="#85935E"/>
<mask id="mask2_167_3281" style="mask-type:luminance" maskUnits="userSpaceOnUse" x="33" y="0" width="26" height="19">
<path d="M33.4666 0H58.3158V18.0827H33.4666V0Z" fill="white"/>
</mask>
<g mask="url(#mask2_167_3281)">
<path d="M33.6309 0H58.3132C58.276 0.0544304 47.0761 16.418 45.972 18.0292C44.868 16.418 33.669 0.0544304 33.6309 0Z" fill="#4C5195"/>
</g>
<path d="M56.9843 70.5678L56.6359 70.0153L54.5793 58.0052L63.7872 49.2483L64.0666 49.1558C66.5731 56.8785 63.9223 65.64 56.9843 70.5678Z" fill="#365E53"/>
<path d="M64.0664 49.1558L63.787 49.2484L51.249 47.747L45.9946 36.1279L45.9964 36C54.3851 36.0109 61.578 41.4739 64.0664 49.1558Z" fill="#365E53"/>
<path d="M56.6347 70.0154L56.984 70.5679C50.2682 75.3478 41.1992 75.2471 34.5913 70.2993L35.1547 69.9374L45.862 64.3438L56.6347 70.0154Z" fill="#365E53"/>
<path d="M45.9964 36L45.9946 36.1279L40.4762 47.747L28.1577 49.3935L27.8066 49.3772C30.2261 41.6036 37.4463 36 45.9964 36Z" fill="#365E53"/>
<path d="M27.8066 49.3774L28.1577 49.3938L37.1469 58.0056L35.1547 69.9376L34.5923 70.2996C28.0126 65.38 25.4607 56.9541 27.8066 49.3774Z" fill="#365E53"/>
<path d="M64.9919 55.0408L73.7978 51.3486L82.9431 55.0408C82.9431 65.261 78.8036 74.5151 72.1141 81.2119L63.7872 77.3028L59.4219 68.5051C62.8637 65.0596 64.9919 60.2988 64.9919 55.0408Z" fill="#85935E"/>
<path d="M72.1149 28.8701L67.3722 37.4773L59.4217 41.5759C55.8601 38.0098 51.0594 36.0005 45.972 36.0005L42.2843 26.9061L45.972 18.0303C56.1813 18.0303 65.4254 22.1733 72.1149 28.8701Z" fill="#85935E"/>
<path d="M45.972 74.0804L49.548 82.9707L45.972 92.0515C35.7626 92.0515 26.5194 87.9075 19.83 81.2117L24.2932 72.3059L32.5222 68.5049C36.0774 72.0637 40.8755 74.0804 45.972 74.0804Z" fill="#85935E"/>
<path d="M19.8302 28.8701L28.1581 31.8837L32.5225 41.576C29.0625 45.0405 26.9533 49.8077 26.9533 55.0411L17.1414 58.2108L9.0022 55.0411C9.0022 44.82 13.1407 35.5669 19.8302 28.8701Z" fill="#85935E"/>
<path d="M82.9432 55.0411H64.992C64.992 49.9356 62.9754 45.133 59.422 41.576L72.1152 28.8701C78.8037 35.5669 82.9432 44.82 82.9432 55.0411Z" fill="#EDB465"/>
<path d="M59.4217 68.5049L72.1148 81.2117C65.4253 87.9075 56.1812 92.0515 45.9719 92.0515V74.0804C51.2181 74.0804 55.9762 71.9549 59.4217 68.5049Z" fill="#EDB465"/>
<path d="M45.972 18.0303V36.0005C40.7203 36.0005 35.964 38.1305 32.5222 41.5759L19.83 28.8701C26.5194 22.1733 35.7626 18.0303 45.972 18.0303Z" fill="#EDB465"/>
<path d="M32.5225 68.5053L19.8302 81.212C13.1407 74.5153 9.0022 65.2612 9.0022 55.041H26.9533C26.9533 60.299 29.0807 65.0598 32.5225 68.5053Z" fill="#EDB465"/>
</svg>
