<svg width="24" height="26" viewBox="0 0 24 26" fill="none" xmlns="http://www.w3.org/2000/svg">
<path d="M12 0.5C14.875 0.5 17.375 3 17.375 5.75C17.3588 6.71926 17.0897 7.66748 16.5941 8.50066C16.0986 9.33384 15.394 10.0231 14.55 10.5C15.8 9.875 17.625 9.875 17.625 9.875C20.75 9.875 23.25 12.125 23.25 15.25C23.25 18.375 20.75 20.5 17.625 20.5C17.625 20.5 15.75 20.5 13.25 19.25C13.25 19.25 12.875 21.75 15.75 25.5H8.25C11.125 21.75 10.75 19.25 10.75 19.25C8.25 20.5 6.375 20.5 6.375 20.5C3.25 20.5 0.75 18.375 0.75 15.25C0.75 12.125 3.25 9.875 6.375 9.875C6.375 9.875 8.2 9.875 9.45 10.5C9.075 10.2875 6.7375 8.9625 6.625 5.75C6.625 3 9.125 0.5 12 0.5Z" fill="#4C5195"/>
</svg>