<svg width="58" height="58" viewBox="0 0 58 58" fill="none" xmlns="http://www.w3.org/2000/svg">
<path d="M46.0376 11.8657C43.822 9.62764 41.183 7.85318 38.2744 6.64578C35.3658 5.43837 32.246 4.82218 29.0968 4.83315C15.9018 4.83315 5.14762 15.5873 5.14762 28.7823C5.14762 33.0115 6.25928 37.1198 8.33762 40.7448L4.95428 53.1665L17.6418 49.8315C21.146 51.7407 25.0851 52.7557 29.0968 52.7557C42.2918 52.7557 53.046 42.0015 53.046 28.8065C53.046 22.4023 50.5568 16.3848 46.0376 11.8657ZM29.0968 48.6957C25.5201 48.6957 22.016 47.729 18.9468 45.9165L18.2218 45.4815L10.6818 47.4632L12.6876 40.1165L12.2043 39.3673C10.2172 36.1942 9.16204 32.5263 9.15928 28.7823C9.15928 17.8107 18.101 8.86899 29.0726 8.86899C34.3893 8.86899 39.3918 10.9473 43.1376 14.7173C44.9924 16.5636 46.4622 18.7596 47.462 21.1781C48.4618 23.5966 48.9715 26.1895 48.9618 28.8065C49.0101 39.7782 40.0685 48.6957 29.0968 48.6957ZM40.0201 33.809C39.416 33.519 36.4676 32.069 35.936 31.8515C35.3801 31.6582 34.9935 31.5615 34.5826 32.1415C34.1718 32.7457 33.036 34.099 32.6976 34.4857C32.3593 34.8965 31.9968 34.9448 31.3926 34.6307C30.7885 34.3407 28.8551 33.6882 26.5835 31.6582C24.7951 30.0632 23.611 28.1057 23.2485 27.5015C22.9101 26.8973 23.2001 26.5832 23.5143 26.269C23.7801 26.0032 24.1185 25.5681 24.4085 25.2298C24.6985 24.8915 24.8193 24.6257 25.0126 24.239C25.206 23.8281 25.1093 23.4898 24.9643 23.1998C24.8193 22.9098 23.611 19.9615 23.1276 18.7532C22.6443 17.5932 22.1368 17.7382 21.7743 17.714H20.6143C20.2035 17.714 19.5751 17.859 19.0193 18.4632C18.4876 19.0673 16.941 20.5173 16.941 23.4657C16.941 26.414 19.0918 29.2657 19.3818 29.6523C19.6718 30.0632 23.611 36.1048 29.6043 38.6907C31.0301 39.319 32.1418 39.6815 33.0118 39.9473C34.4376 40.4065 35.7426 40.334 36.7818 40.189C37.9418 40.0198 40.3343 38.739 40.8176 37.3373C41.3251 35.9357 41.3251 34.7515 41.156 34.4857C40.9868 34.2198 40.6243 34.099 40.0201 33.809Z" fill="white"/>
</svg>
