<svg width="507" height="522" viewBox="0 0 507 522" fill="none" xmlns="http://www.w3.org/2000/svg">
<g filter="url(#filter0_dddd_103_5249)">
<rect x="240.428" y="92.1022" width="194.533" height="273.94" rx="17.5" transform="rotate(8.88317 240.428 92.1022)" fill="#EDB465" stroke="#467448" stroke-width="5"/>
<rect x="32.0677" y="204.799" width="194.533" height="273.94" rx="17.5" transform="rotate(-31.1645 32.0677 204.799)" fill="#EDB465" stroke="#4C5195" stroke-width="5"/>
<path fill-rule="evenodd" clip-rule="evenodd" d="M129.928 231.723L118.402 246.812L117.508 246.074L129.033 230.985L129.928 231.723Z" fill="#4C5195"/>
<path d="M136.231 232.959L140.548 226.303C140.565 226.276 140.596 226.26 140.628 226.26L150.007 226.382C150.085 226.383 150.128 226.473 150.079 226.535L144.241 233.916C144.221 233.942 144.189 233.955 144.157 233.952L136.3 233.104C136.23 233.096 136.193 233.018 136.231 232.959Z" fill="#4C5195" stroke="#4C5195" stroke-width="0.232598"/>
<path fill-rule="evenodd" clip-rule="evenodd" d="M134.135 231.256C133.565 230.906 133.003 230.487 132.472 230.004C129.934 227.697 129.051 224.814 130.501 223.563C131.951 222.312 135.184 223.168 137.723 225.475C137.962 225.693 138.187 225.915 138.396 226.142L137.713 226.962C137.544 226.746 137.343 226.54 137.111 226.35C135.792 225.272 133.972 225.137 133.046 226.048C132.12 226.959 132.438 228.571 133.757 229.648C134.116 229.942 134.512 230.165 134.918 230.317L134.135 231.256Z" fill="#4C5195"/>
<path fill-rule="evenodd" clip-rule="evenodd" d="M148.164 223.928C148.377 222.818 148.356 221.535 148.051 220.216C147.258 216.783 144.843 214.411 142.657 214.918C140.472 215.425 139.344 218.62 140.137 222.053C140.348 222.967 140.674 223.805 141.08 224.534L141.471 224.5C141.319 224.179 141.207 223.826 141.144 223.449C140.836 221.616 141.811 219.919 143.322 219.659C144.833 219.398 146.307 220.673 146.615 222.506C146.706 223.048 146.685 223.579 146.571 224.064L148.164 223.928Z" fill="#4C5195"/>
<path fill-rule="evenodd" clip-rule="evenodd" d="M142.152 289.969L142.614 291.632L160.617 287.444L161.513 283.957L155.285 281.742L152.709 285.216L142.152 289.969ZM185.063 255.084L184.389 256.708L185.827 267.57L185.316 269.555L187.311 270.024L191.859 260.569L194.643 253.856L193.313 253.032L185.745 254.308L185.063 255.084Z" fill="#4C5195"/>
<path d="M142.152 289.969L142.056 289.755L141.872 289.838L141.926 290.032L142.152 289.969ZM142.614 291.632L142.388 291.695L142.448 291.912L142.667 291.861L142.614 291.632ZM160.617 287.444L160.67 287.673L160.809 287.64L160.844 287.502L160.617 287.444ZM161.513 283.957L161.741 284.015L161.795 283.807L161.592 283.735L161.513 283.957ZM155.285 281.742L155.364 281.52L155.2 281.462L155.096 281.601L155.285 281.742ZM152.709 285.216L152.805 285.431L152.861 285.405L152.897 285.356L152.709 285.216ZM184.389 256.708L184.172 256.618L184.147 256.676L184.156 256.739L184.389 256.708ZM185.063 255.084L184.886 254.928L184.86 254.958L184.845 254.994L185.063 255.084ZM185.827 267.57L186.055 267.629L186.066 267.585L186.06 267.539L185.827 267.57ZM185.316 269.555L185.089 269.497L185.029 269.729L185.263 269.784L185.316 269.555ZM187.311 270.024L187.258 270.253L187.442 270.296L187.523 270.126L187.311 270.024ZM191.859 260.569L192.071 260.671L192.076 260.659L191.859 260.569ZM194.643 253.856L194.86 253.946L194.937 253.761L194.767 253.656L194.643 253.856ZM193.313 253.032L193.437 252.832L193.361 252.785L193.274 252.8L193.313 253.032ZM185.745 254.308L185.706 254.076L185.623 254.09L185.568 254.153L185.745 254.308ZM141.926 290.032L142.388 291.695L142.841 291.569L142.379 289.906L141.926 290.032ZM142.667 291.861L160.67 287.673L160.563 287.215L142.561 291.403L142.667 291.861ZM160.844 287.502L161.741 284.015L161.286 283.898L160.389 287.385L160.844 287.502ZM161.592 283.735L155.364 281.52L155.206 281.963L161.435 284.178L161.592 283.735ZM155.096 281.601L152.52 285.076L152.897 285.356L155.474 281.882L155.096 281.601ZM152.612 285.002L142.056 289.755L142.249 290.184L152.805 285.431L152.612 285.002ZM184.606 256.798L185.28 255.174L184.845 254.994L184.172 256.618L184.606 256.798ZM186.06 267.539L184.622 256.677L184.156 256.739L185.594 267.601L186.06 267.539ZM185.544 269.614L186.055 267.629L185.599 267.512L185.089 269.497L185.544 269.614ZM187.365 269.795L185.37 269.326L185.263 269.784L187.258 270.253L187.365 269.795ZM191.647 260.467L187.1 269.922L187.523 270.126L192.071 260.671L191.647 260.467ZM194.426 253.766L191.642 260.479L192.076 260.659L194.86 253.946L194.426 253.766ZM193.189 253.232L194.519 254.056L194.767 253.656L193.437 252.832L193.189 253.232ZM193.274 252.8L185.706 254.076L185.784 254.54L193.352 253.264L193.274 252.8ZM185.568 254.153L184.886 254.928L185.239 255.239L185.921 254.464L185.568 254.153Z" fill="#4C5195"/>
<path fill-rule="evenodd" clip-rule="evenodd" d="M132.867 204.514L182.927 194.8L183.765 196.16C189.472 205.423 193.726 214.865 196.607 224.053L192.069 225.903L188.915 230.226C186.548 222.169 182.885 213.818 177.832 205.618L150.46 210.899C145.99 205.667 139.376 202.08 131.231 207.008C130.962 207.171 130.701 207.338 130.45 207.507L132.867 204.514ZM118.283 255.028C115.888 252.478 113.444 249.746 110.953 246.826L126.92 227.011C124.829 222.641 123.831 218.054 125.2 214.009L98.8021 246.702L100.048 248.161C100.634 248.848 101.219 249.526 101.801 250.196L116.733 233.023L117.108 233.349L102.131 250.575C103.405 252.035 104.67 253.455 105.925 254.835L110.586 249.474L110.962 249.801L106.262 255.206C108.318 257.458 110.348 259.603 112.351 261.644L112.464 261.336L114.949 257.082L118.283 255.028ZM190.368 275.078L201.238 252.475C201.237 266.162 197.591 278.029 190.379 285.686C182.733 293.806 171.482 296.778 157.62 292.734L164.06 290.995L166.52 285.064C175.196 285.398 181.86 281.633 186.227 275.131L190.368 275.078Z" fill="#4C5195"/>
<path fill-rule="evenodd" clip-rule="evenodd" d="M158.902 276.865L162.356 277.529C171.339 278.798 177.034 272.559 179.895 266.917L179.498 261.41L175.935 265.459L164.793 268.92L158.902 276.865ZM143.094 240.404L140.084 252.108L145.626 249.414L143.094 240.404Z" fill="#4C5195"/>
<path d="M158.902 276.865L158.713 276.724L158.49 277.025L158.857 277.096L158.902 276.865ZM162.356 277.529L162.312 277.76L162.324 277.761L162.356 277.529ZM179.895 266.917L180.105 267.023L180.134 266.965L180.13 266.9L179.895 266.917ZM179.498 261.41L179.732 261.393L179.692 260.833L179.321 261.254L179.498 261.41ZM175.935 265.459L176.005 265.683L176.068 265.664L176.112 265.614L175.935 265.459ZM164.793 268.92L164.723 268.696L164.65 268.719L164.604 268.78L164.793 268.92ZM143.094 240.404L143.32 240.341L143.084 239.499L142.866 240.346L143.094 240.404ZM140.084 252.108L139.856 252.05L139.73 252.542L140.187 252.32L140.084 252.108ZM145.626 249.414L145.728 249.626L145.905 249.54L145.852 249.35L145.626 249.414ZM158.857 277.096L162.312 277.76L162.401 277.298L158.946 276.634L158.857 277.096ZM162.324 277.761C171.456 279.052 177.226 272.7 180.105 267.023L179.685 266.811C176.841 272.418 171.222 278.544 162.389 277.296L162.324 277.761ZM180.13 266.9L179.732 261.393L179.263 261.427L179.661 266.934L180.13 266.9ZM179.321 261.254L175.759 265.303L176.112 265.614L179.674 261.565L179.321 261.254ZM175.866 265.234L164.723 268.696L164.863 269.145L176.005 265.683L175.866 265.234ZM164.604 268.78L158.713 276.724L159.091 277.005L164.982 269.06L164.604 268.78ZM142.866 240.346L139.856 252.05L140.312 252.167L143.322 240.463L142.866 240.346ZM140.187 252.32L145.728 249.626L145.523 249.203L139.981 251.897L140.187 252.32ZM145.852 249.35L143.32 240.341L142.868 240.468L145.399 249.478L145.852 249.35Z" fill="#4C5195"/>
<path fill-rule="evenodd" clip-rule="evenodd" d="M137.391 239.866C133.335 235.962 128.473 229.854 126.37 223.721C125.321 220.662 124.977 217.653 125.702 214.926C126.422 212.22 128.218 209.704 131.618 207.647C134.932 205.642 137.928 205.13 140.585 205.543C143.255 205.957 145.658 207.317 147.748 209.181C151.946 212.926 154.744 218.585 155.736 222.057L155.826 222.371L156.117 222.518L178.749 233.981L180.9 233.397L157.078 221.332C155.956 217.642 153.074 211.931 148.742 208.067C146.504 206.071 143.846 204.539 140.814 204.068C137.769 203.595 134.422 204.206 130.846 206.37C127.159 208.6 125.092 211.416 124.26 214.543C123.434 217.648 123.85 220.973 124.958 224.205C127.119 230.505 131.985 236.666 136.07 240.663L133.867 253.134L135.375 253.173L137.608 240.533L137.677 240.142L137.391 239.866ZM138.473 291.626L137.082 292.253L138.323 297.906L138.491 298.671L139.246 298.467L164.255 291.716L164.609 291.62L164.75 291.281L167.44 284.795L182.09 275.931L190.378 275.824L190.841 275.818L191.041 275.401L202.409 251.763L202.592 251.384L200.521 251.765L200.716 251.841L189.897 274.338L181.868 274.441L181.665 274.444L181.492 274.549L166.458 283.644L166.249 283.771L166.155 283.997L163.512 290.371L139.613 296.822L138.473 291.626Z" fill="#4C5195"/>
<path d="M146.696 274.913C146.35 277.355 145.53 279.568 144.236 281.552C142.925 283.511 141.143 285.188 138.888 286.583C136.862 287.837 134.749 288.64 132.549 288.991C130.375 289.327 128.265 289.257 126.219 288.782C124.174 288.307 122.255 287.441 120.461 286.184C118.652 284.902 117.132 283.266 115.901 281.278C114.671 279.289 113.894 277.211 113.569 275.045C113.229 272.854 113.303 270.737 113.791 268.695C114.279 266.652 115.159 264.733 116.43 262.938C117.726 261.126 119.388 259.594 121.414 258.34C123.593 256.992 125.739 256.186 127.853 255.923C129.992 255.644 132.152 255.822 134.332 256.457L132.871 262.164C131.484 261.734 130.087 261.572 128.68 261.676C127.299 261.765 125.887 262.256 124.443 263.149C123.176 263.933 122.125 264.896 121.291 266.039C120.441 267.157 119.847 268.377 119.51 269.699C119.197 271.006 119.159 272.388 119.394 273.844C119.613 275.274 120.159 276.694 121.031 278.104C121.904 279.513 122.938 280.648 124.136 281.509C125.318 282.343 126.564 282.913 127.873 283.217C129.207 283.505 130.572 283.531 131.967 283.295C133.347 283.033 134.67 282.51 135.936 281.727C137.456 280.786 138.612 279.654 139.404 278.329C140.205 276.963 140.711 275.431 140.922 273.734L146.696 274.913Z" fill="#4C5195"/>
<path d="M171.168 262.117C170.019 262.863 168.815 263.415 167.556 263.774C166.296 264.132 165.02 264.272 163.726 264.194C162.432 264.116 161.163 263.829 159.916 263.332C158.654 262.81 157.432 262.051 156.251 261.053L159.803 256.101C161.023 257.215 162.361 257.935 163.816 258.261C165.255 258.562 166.686 258.251 168.11 257.326C168.635 256.986 169.095 256.599 169.489 256.167C169.892 255.694 170.2 255.211 170.414 254.72C170.636 254.187 170.731 253.649 170.698 253.106C170.665 252.563 170.479 252.031 170.141 251.51C169.818 251.013 169.44 250.623 169.008 250.339C168.575 250.056 168.033 249.878 167.383 249.806C166.757 249.718 166.002 249.731 165.118 249.846C164.259 249.945 163.229 250.137 162.029 250.422L159.992 250.897C159.107 251.119 158.152 251.262 157.128 251.326C156.129 251.375 155.137 251.296 154.15 251.089C153.163 250.882 152.212 250.512 151.296 249.977C150.39 249.401 149.606 248.604 148.945 247.586C148.268 246.543 147.839 245.445 147.658 244.292C147.487 243.098 147.558 241.922 147.872 240.766C148.195 239.568 148.761 238.442 149.569 237.389C150.385 236.294 151.443 235.325 152.743 234.482C154.092 233.606 155.375 233.038 156.591 232.778C157.816 232.477 158.952 232.393 159.997 232.526C161.052 232.618 162.009 232.862 162.869 233.256C163.729 233.651 164.452 234.081 165.039 234.547L161.788 239.304C161.054 238.721 160.157 238.351 159.095 238.193C158.059 238.019 156.966 238.305 155.816 239.051C154.717 239.764 153.974 240.617 153.588 241.608C153.185 242.575 153.25 243.468 153.782 244.288C154.298 245.082 155.091 245.538 156.162 245.655C157.216 245.747 158.675 245.559 160.538 245.091L162.587 244.555C163.904 244.23 165.16 244.032 166.357 243.961C167.563 243.849 168.696 243.925 169.756 244.19C170.841 244.438 171.828 244.892 172.717 245.55C173.615 246.167 174.427 247.034 175.152 248.151C176.055 249.541 176.55 250.932 176.636 252.323C176.731 253.673 176.551 254.954 176.095 256.167C175.64 257.38 174.967 258.505 174.077 259.541C173.188 260.577 172.218 261.436 171.168 262.117Z" fill="#4C5195"/>
<path d="M150.592 269.81L137.793 261.797L141.475 259.319L149.452 264.547L149.625 264.431L147.654 255.161L151.262 252.732L155.352 275.17L151.868 277.515L150.592 269.81Z" fill="#4C5195"/>
<path d="M193.28 243.183C193.327 244.545 193.051 245.839 192.453 247.065C191.873 248.28 190.88 249.32 189.477 250.185C188.53 250.769 187.553 251.151 186.545 251.332C185.543 251.485 184.565 251.45 183.611 251.227C182.657 251.004 181.767 250.601 180.943 250.02C180.125 249.411 179.42 248.628 178.83 247.671C178.282 246.78 177.925 245.841 177.759 244.854C177.584 243.849 177.602 242.876 177.815 241.934C178.017 240.975 178.398 240.079 178.959 239.247C179.536 238.405 180.298 237.692 181.245 237.108C182.242 236.494 183.234 236.115 184.218 235.972C185.193 235.812 186.123 235.864 187.01 236.129C187.886 236.377 188.702 236.813 189.459 237.436C190.216 238.059 190.88 238.832 191.449 239.756C191.522 239.874 191.584 239.975 191.635 240.059C191.681 240.17 191.729 240.268 191.781 240.352C191.816 240.446 191.864 240.544 191.926 240.645L182.568 246.411C182.946 246.873 183.35 247.227 183.781 247.471C184.218 247.689 184.667 247.83 185.126 247.894C185.592 247.931 186.048 247.894 186.492 247.783C186.926 247.654 187.338 247.47 187.727 247.231C188.487 246.762 189.01 246.208 189.293 245.57C189.583 244.905 189.711 244.223 189.677 243.525L193.28 243.183ZM187.312 240.254C187.16 240.046 186.934 239.85 186.633 239.664C186.349 239.468 186.008 239.331 185.61 239.252C185.228 239.162 184.805 239.157 184.339 239.235C183.891 239.302 183.414 239.492 182.906 239.805C182.196 240.242 181.695 240.83 181.402 241.566C181.11 242.303 181.076 243.1 181.301 243.958L187.312 240.254Z" fill="#4C5195"/>
<path d="M207.413 234.231C207.514 235.606 207.281 236.932 206.715 238.208C206.155 239.457 205.148 240.53 203.694 241.426C202.73 242.019 201.744 242.407 200.736 242.588C199.734 242.741 198.756 242.706 197.802 242.483C196.865 242.249 195.984 241.842 195.159 241.26C194.341 240.652 193.637 239.869 193.047 238.911C192.457 237.953 192.074 236.972 191.898 235.968C191.739 234.953 191.772 233.983 191.994 233.058C192.224 232.105 192.638 231.224 193.236 230.416C193.84 229.579 194.624 228.865 195.588 228.271C197.025 227.385 198.436 226.968 199.82 227.019C201.205 227.07 202.446 227.476 203.544 228.236L201.277 231.371C200.638 230.977 200.002 230.778 199.37 230.774C198.744 230.742 198.092 230.935 197.416 231.351C196.977 231.622 196.614 231.961 196.329 232.369C196.043 232.777 195.842 233.225 195.724 233.715C195.623 234.195 195.622 234.705 195.722 235.246C195.822 235.787 196.038 236.326 196.369 236.864C196.7 237.402 197.085 237.837 197.523 238.169C197.962 238.502 198.418 238.731 198.891 238.856C199.382 238.971 199.874 238.993 200.366 238.921C200.858 238.85 201.324 238.678 201.764 238.408C202.457 237.98 202.947 237.47 203.234 236.876C203.528 236.254 203.637 235.561 203.563 234.796L207.413 234.231Z" fill="#4C5195"/>
<path fill-rule="evenodd" clip-rule="evenodd" d="M322.086 250.259L364.337 238.858L375.596 196.558L344.605 165.66L302.354 177.062L291.095 219.362L322.086 250.259ZM287.8 220.251L321.208 253.557L366.754 241.267L378.891 195.669L345.483 162.362L299.937 174.653L287.8 220.251Z" fill="white"/>
<path fill-rule="evenodd" clip-rule="evenodd" d="M287.8 220.25L321.209 253.557L366.754 241.267L378.892 195.669L345.483 162.362L299.937 174.653L287.8 220.25ZM329.896 180.659C329.914 180.435 329.952 180.21 330.012 179.986C330.542 177.994 332.586 176.81 334.577 177.34C336.568 177.87 337.753 179.914 337.223 181.905C336.693 183.896 334.649 185.081 332.657 184.551C331.94 184.36 331.327 183.972 330.862 183.462L311.814 189.573C311.819 189.873 311.789 190.18 311.718 190.485L319.812 198.232L326.042 195.677C326.014 195.278 326.051 194.866 326.159 194.457C326.69 192.466 328.733 191.282 330.725 191.812C332.716 192.342 333.901 194.386 333.371 196.377C332.84 198.368 330.797 199.553 328.805 199.023C328.281 198.883 327.812 198.638 327.416 198.317L319.155 201.705L309.937 192.883C309.561 193.098 309.148 193.249 308.716 193.323L306.91 200.108L314.458 207.993C315.285 207.512 316.296 207.347 317.293 207.613C317.982 207.796 318.574 208.16 319.032 208.641L327.357 205.298C327.317 204.65 327.379 203.983 327.558 203.313C328.5 199.774 332.171 197.933 335.537 198.829C335.577 198.84 335.618 198.851 335.658 198.863L337.183 193.132L340.99 178.832C352.798 178.106 357.418 186.966 358.253 191.487C367.957 194.07 366.285 204.371 364.236 209.199C368.752 217.494 361.618 223.816 357.487 225.94C356.705 233.47 349.925 235.212 346.633 235.141C342.997 241.911 330.671 240.564 324.962 239.045L330.549 218.055L323.253 216.113L327.266 209.461L328.009 208.231L320.06 211.423C320.046 211.673 320.006 211.926 319.939 212.178C319.89 212.362 319.828 212.539 319.755 212.708L325.802 219.475L322.713 231.078C323.347 231.955 323.596 233.099 323.296 234.225C322.766 236.217 320.722 237.401 318.731 236.871C316.739 236.341 315.555 234.297 316.085 232.306C316.193 231.899 316.364 231.526 316.586 231.195L303.087 217.29C302.351 217.601 301.511 217.678 300.68 217.457C298.688 216.927 297.504 214.883 298.034 212.892C298.436 211.381 299.709 210.335 301.17 210.149L305.835 192.625C304.659 191.738 304.075 190.197 304.477 188.686C305.007 186.695 307.051 185.51 309.042 186.04C309.627 186.196 310.143 186.482 310.566 186.86L329.896 180.659ZM331.044 207.012C331.251 207.278 331.498 207.517 331.778 207.721L327.831 214.264L331.312 215.191L334.895 201.728C334.855 201.716 334.815 201.704 334.774 201.693C332.86 201.184 330.914 202.246 330.424 204.067L331.1 203.796L332.204 206.546L331.044 207.012ZM319.143 229.574L305.138 215.148C305.178 215.038 305.214 214.926 305.245 214.811C305.632 213.357 305.105 211.876 304.017 210.975L306.017 203.462L312.687 210.429C312.266 212.365 313.439 214.309 315.374 214.824C316.133 215.026 316.901 214.979 317.589 214.732L322.526 220.258L320.052 229.552C319.745 229.521 319.44 229.53 319.143 229.574Z" fill="#467448"/>
<mask id="mask0_103_5249" style="mask-type:alpha" maskUnits="userSpaceOnUse" x="324" y="178" width="42" height="63">
<path d="M346.622 235.146C342.983 241.918 330.64 240.567 324.923 239.045L337.148 193.117L340.956 178.812C352.78 178.089 357.41 186.954 358.246 191.477C367.965 194.064 366.294 204.369 364.243 209.198C368.768 217.498 361.626 223.821 357.49 225.945C356.709 233.477 349.92 235.218 346.622 235.146Z" fill="#A41F1F"/>
</mask>
<g mask="url(#mask0_103_5249)">
<path fill-rule="evenodd" clip-rule="evenodd" d="M354.124 197.705C356.361 195.372 357.483 191.594 357.736 189.23L360.616 189.997C360.318 192.788 359.089 196.809 356.265 199.756C353.339 202.809 348.855 204.543 342.535 202.86L343.297 199.996C348.635 201.417 351.989 199.934 354.124 197.705ZM341.162 194.157C339.142 194.16 337.15 193.626 335.907 193.131L337.004 190.378C337.989 190.77 339.602 191.196 341.157 191.193C342.735 191.19 343.913 190.76 344.562 189.843L346.981 191.555C345.525 193.613 343.158 194.154 341.162 194.157ZM352.381 214.831C351.948 216.202 351.962 217.212 352.143 217.949C352.326 218.7 352.708 219.271 353.156 219.716C353.614 220.168 354.135 220.481 354.557 220.682C354.764 220.781 354.938 220.849 355.054 220.89C355.112 220.91 355.154 220.924 355.179 220.931C355.191 220.935 355.198 220.937 355.2 220.938L355.2 220.938L355.197 220.937L355.195 220.936L355.193 220.936C355.192 220.936 355.192 220.935 354.81 222.368C354.429 223.8 354.428 223.799 354.428 223.799L354.426 223.799L354.422 223.798L354.412 223.795C354.405 223.793 354.397 223.791 354.387 223.788C354.367 223.782 354.341 223.775 354.31 223.765C354.249 223.746 354.166 223.72 354.066 223.685C353.867 223.614 353.595 223.508 353.28 223.358C352.658 223.061 351.831 222.574 351.071 221.822C350.303 221.062 349.599 220.024 349.264 218.654C349.008 217.61 348.982 216.434 349.247 215.12C347.99 214.583 346.964 214.384 345.351 214.304C344.687 214.271 344.034 214.475 343.303 214.89C342.684 215.241 342.107 215.681 341.456 216.177C341.303 216.294 341.145 216.414 340.982 216.537C340.195 217.129 339.236 217.816 338.165 218.157C336.991 218.53 335.719 218.479 334.43 217.714C333.547 217.191 332.87 216.392 332.359 215.61C331.84 214.814 331.43 213.94 331.117 213.152C330.803 212.36 330.572 211.622 330.421 211.084C330.345 210.814 330.288 210.591 330.249 210.433C330.23 210.354 330.215 210.291 330.205 210.247C330.2 210.225 330.196 210.207 330.193 210.194L330.19 210.178L330.188 210.171C330.188 210.17 330.188 210.17 331.637 209.858C333.086 209.546 333.085 209.545 333.085 209.545L333.087 209.552C333.088 209.558 333.091 209.569 333.094 209.585C333.102 209.616 333.113 209.665 333.129 209.729C333.16 209.858 333.208 210.047 333.274 210.281C333.406 210.75 333.605 211.386 333.872 212.058C334.141 212.735 334.466 213.415 334.841 213.989C335.224 214.576 335.602 214.963 335.942 215.164C336.449 215.466 336.836 215.469 337.267 215.332C337.801 215.162 338.396 214.773 339.199 214.169C339.326 214.073 339.459 213.972 339.597 213.867C340.255 213.364 341.028 212.773 341.841 212.312C342.858 211.735 344.078 211.273 345.498 211.343C347.443 211.44 348.792 211.711 350.357 212.371C350.816 211.68 351.344 211.136 351.925 210.726C352.842 210.078 353.805 209.823 354.657 209.77C355.497 209.719 356.233 209.861 356.748 210.009C357.008 210.084 357.222 210.162 357.377 210.225C357.455 210.257 357.518 210.285 357.566 210.307C357.59 210.318 357.61 210.327 357.626 210.335C357.634 210.339 357.641 210.342 357.647 210.345L357.655 210.349L357.659 210.351L357.66 210.352C357.661 210.352 357.662 210.353 356.994 211.676C356.326 212.999 356.327 212.999 356.327 212.999L356.329 213L356.331 213.001L356.335 213.003L356.339 213.005C356.339 213.005 356.338 213.005 356.336 213.004C356.335 213.003 356.333 213.002 356.331 213.001C356.32 212.996 356.295 212.985 356.26 212.971C356.189 212.942 356.076 212.9 355.931 212.858C355.635 212.774 355.249 212.704 354.84 212.729C354.444 212.753 354.032 212.866 353.635 213.147C353.246 213.421 352.789 213.916 352.381 214.831ZM345.971 223.597C348.419 226.037 350.283 230.182 349.01 236.916L346.098 236.366C347.211 230.478 345.551 227.363 343.879 225.697C343.007 224.829 342.067 224.29 341.343 223.969C340.982 223.809 340.681 223.706 340.478 223.645C340.377 223.614 340.301 223.594 340.255 223.582C340.232 223.577 340.217 223.573 340.21 223.572C340.207 223.571 340.205 223.571 340.205 223.571L340.208 223.571L340.21 223.572L340.212 223.572C340.213 223.572 340.214 223.572 340.506 222.12C340.799 220.667 340.8 220.667 340.801 220.667L340.803 220.668L340.808 220.669L340.821 220.671C340.831 220.673 340.843 220.676 340.857 220.679C340.886 220.686 340.923 220.694 340.969 220.706C341.06 220.728 341.184 220.761 341.336 220.807C341.64 220.899 342.057 221.043 342.543 221.259C343.513 221.688 344.782 222.413 345.971 223.597ZM332.841 231.877C331.614 230.737 329.689 229.62 326.805 229.761L326.661 226.8C330.49 226.614 333.165 228.131 334.859 229.706C335.696 230.484 336.292 231.273 336.681 231.87C336.876 232.17 337.021 232.425 337.121 232.611C337.17 232.705 337.209 232.781 337.236 232.838C337.25 232.866 337.261 232.889 337.269 232.907C337.273 232.916 337.277 232.924 337.28 232.931L337.284 232.939L337.286 232.944C337.286 232.945 337.287 232.946 335.932 233.548C334.578 234.15 334.578 234.15 334.579 234.151L334.58 234.154L334.581 234.156C334.579 234.153 334.576 234.145 334.57 234.132C334.557 234.107 334.536 234.063 334.504 234.004C334.441 233.886 334.34 233.707 334.197 233.487C333.91 233.046 333.464 232.456 332.841 231.877ZM334.581 234.156L334.581 234.156C334.582 234.157 334.582 234.157 334.581 234.156Z" fill="#467448"/>
</g>
<path d="M327.831 214.265C331.778 207.721 327.831 214.265 331.778 207.721C330.635 206.892 330.053 205.464 330.422 204.076C330.908 202.25 332.857 201.183 334.774 201.694C336.692 202.204 337.851 204.098 337.365 205.924C337.034 207.167 336.027 208.058 334.811 208.339L334.859 216.135C334.859 216.135 328.091 214.334 327.831 214.265Z" fill="#467448"/>
<rect x="119.937" y="126.639" width="194.533" height="273.94" rx="17.5" transform="rotate(-16.3723 119.937 126.639)" fill="#EDB465" stroke="#9B1A2E" stroke-width="5"/>
<path d="M228.359 89.7302C228.888 96.2087 232.54 101.529 238.224 105.565C244.267 109.856 252.614 112.704 261.985 113.968C271.351 115.231 280.667 115.137 287.876 112.819C294.236 110.775 298.974 106.989 300.631 100.871C300.61 101.065 300.587 101.259 300.561 101.453C300.138 104.584 299.474 108.324 298.241 111.878C297.008 115.434 295.211 118.788 292.533 121.162C284.906 127.924 271.899 129.5 260.105 127.91C254.732 127.185 248.797 125.64 243.487 123.332C238.173 121.023 233.502 117.957 230.636 114.202C228.154 110.95 227.254 107.087 227.097 103.146C226.949 99.4338 227.46 95.6687 227.917 92.2955C227.946 92.0846 227.974 91.8752 228.002 91.6675C228.091 91.0113 228.211 90.3659 228.359 89.7302Z" fill="#CE7B39" stroke="#CF363E" stroke-width="0.387421"/>
<path d="M301.006 98.1502C300.131 104.637 295.313 109.993 288.178 113.394C281.045 116.794 271.619 118.227 261.593 116.875C251.568 115.523 242.859 111.644 236.882 106.476C230.903 101.306 227.675 94.8652 228.55 88.3784C229.425 81.8908 234.244 76.5345 241.379 73.1327C248.512 69.7319 257.937 68.298 267.962 69.6501C277.988 71.0022 286.697 74.8817 292.675 80.0508C298.654 85.2211 301.881 91.6626 301.006 98.1502Z" fill="#EDB465" stroke="#CF363E" stroke-width="0.387421"/>
<path d="M290.866 96.7828C289.555 106.501 276.814 112.805 262.404 110.861C247.997 108.918 237.381 99.4649 238.692 89.7463C240.002 80.0262 252.744 73.7214 267.151 75.6644C281.561 77.6078 292.177 87.0627 290.866 96.7828Z" stroke="#CF363E" stroke-width="1.89332" stroke-miterlimit="10"/>
<path d="M249.465 80.9352L252.309 83.4079L252.303 83.4101L252.228 83.4817L250.52 85.1144L250.375 85.2533L250.377 85.4544L250.402 87.591L250.405 87.7986L250.561 87.9348L252.384 89.5215L252.432 89.5625L252.488 89.5896L255.121 90.8533L255.157 90.8706L255.195 90.8814L256.999 91.3919L257.042 91.404L257.086 91.4077L261.977 91.8185L269.384 98.2634L267.389 98.0519L265.612 97.5505L265.488 97.5155L265.363 97.5498L263.079 98.1794L261.506 98.613L263.073 99.07L267.255 100.291L267.317 100.309L267.38 100.309L271.011 100.347L271.074 100.348L271.135 100.332L271.615 100.204L274.871 103.037L275.054 103.196L275.288 103.137L276.619 102.8L277.478 102.583L276.81 102.002L274.005 99.5633L274.064 99.5164L276.007 97.975L276.165 97.8491L276.18 97.6472L276.262 96.5649L276.271 96.4438L276.22 96.3338L275.352 94.479L275.311 94.3904L275.237 94.3261L273.37 92.7L273.322 92.658L273.264 92.6307L270.483 91.3133L270.447 91.2963L270.408 91.2856L266.725 90.2651L266.682 90.2532L266.638 90.2497L262.966 89.9583L256.765 84.5633L258.773 84.7183L260.57 85.1892L260.701 85.2235L260.83 85.182L263.169 84.4269L264.661 83.9451L263.146 83.5393L258.853 82.3891L258.787 82.3715L258.719 82.3736L255.134 82.4826L255.066 82.4847L255.001 82.5065L254.568 82.652L251.299 79.8079L251.096 79.6315L250.842 79.7202L249.616 80.1489L248.864 80.4121L249.465 80.9352ZM271.911 97.7415L265.456 92.125L267.497 92.3114L269.094 92.751L271.567 93.92L273.148 95.2969L273.521 96.0725L273.241 96.8146L272.246 97.6512L271.911 97.7415ZM254.088 85.2949L254.371 85.2016L259.496 89.6595L256.342 89.3957L254.066 88.3127L252.69 87.1165L252.683 86.6212L254.088 85.2949Z" fill="#CE7B39" stroke="#CF363E" stroke-width="0.925829"/>
<path d="M191.261 161.667C194.384 167.367 199.888 170.737 206.723 172.106C213.99 173.562 222.773 172.76 231.846 170.094C240.913 167.43 249.383 163.548 255.021 158.493C259.995 154.033 262.778 148.646 261.798 142.383C261.858 142.569 261.916 142.756 261.971 142.944C262.861 145.975 263.779 149.661 264.102 153.409C264.425 157.159 264.151 160.954 262.674 164.213C258.465 173.496 247.229 180.237 235.811 183.592C230.609 185.12 224.561 186.128 218.77 186.185C212.977 186.242 207.462 185.347 203.314 183.086C199.722 181.128 197.326 177.967 195.576 174.432C193.928 171.103 192.86 167.456 191.903 164.19C191.843 163.985 191.784 163.782 191.725 163.581C191.538 162.946 191.384 162.308 191.261 161.667Z" fill="#CE7B39" stroke="#CF363E" stroke-width="0.387421"/>
<path d="M261.032 139.746C262.877 146.026 260.66 152.881 255.531 158.895C250.403 164.907 242.38 170.058 232.673 172.909C222.968 175.761 213.434 175.768 205.869 173.485C198.302 171.201 192.73 166.635 190.885 160.355C189.039 154.074 191.257 147.219 196.386 141.204C201.513 135.191 209.536 130.04 219.241 127.189C228.947 124.337 238.482 124.33 246.047 126.614C253.614 128.899 259.187 133.465 261.032 139.746Z" fill="#EDB465" stroke="#CF363E" stroke-width="0.387421"/>
<path d="M251.215 142.631C253.979 152.04 244.913 162.989 230.962 167.087C217.014 171.185 203.467 166.88 200.702 157.471C197.938 148.06 207.003 137.11 220.951 133.012C234.902 128.913 248.45 133.22 251.215 142.631Z" stroke="#CF363E" stroke-width="1.89332" stroke-miterlimit="10"/>
<path d="M206.95 145.033L210.555 146.132L210.55 146.137L210.511 146.232L209.617 148.419L209.541 148.605L209.625 148.788L210.518 150.729L210.605 150.918L210.804 150.978L213.115 151.684L213.175 151.702L213.238 151.704L216.157 151.785L216.197 151.786L216.236 151.78L218.091 151.511L218.135 151.505L218.177 151.49L222.811 149.872L232.202 152.738L230.294 153.358L228.467 153.625L228.339 153.643L228.239 153.725L226.41 155.231L225.151 156.268L226.767 156.047L231.084 155.457L231.148 155.448L231.206 155.423L234.537 153.977L234.595 153.952L234.643 153.913L235.03 153.601L239.158 154.861L239.39 154.932L239.58 154.782L240.658 153.932L241.354 153.384L240.507 153.126L236.951 152.042L236.986 151.975L238.132 149.775L238.225 149.596L238.157 149.405L237.79 148.384L237.749 148.269L237.658 148.19L236.109 146.85L236.035 146.786L235.942 146.757L233.574 146.033L233.513 146.014L233.449 146.013L230.372 145.944L230.332 145.943L230.293 145.949L226.514 146.518L226.47 146.525L226.428 146.539L222.956 147.77L215.095 145.371L216.991 144.694L218.824 144.391L218.958 144.369L219.058 144.279L220.887 142.636L222.053 141.588L220.504 141.835L216.115 142.534L216.048 142.545L215.987 142.575L212.757 144.135L212.696 144.165L212.645 144.212L212.309 144.521L208.165 143.256L207.908 143.178L207.712 143.362L206.767 144.253L206.187 144.801L206.95 145.033ZM234.297 151.231L226.113 148.733L228.053 148.072L229.691 147.822L232.425 147.882L234.43 148.495L235.086 149.051L235.133 149.843L234.566 151.013L234.297 151.231ZM212.948 147.13L213.169 146.929L219.665 148.911L216.678 149.956L214.158 149.895L212.414 149.363L212.206 148.914L212.948 147.13Z" fill="#CE7B39" stroke="#CF363E" stroke-width="0.925829"/>
<path d="M147.504 160.53C150.627 166.231 156.131 169.601 162.967 170.97C170.234 172.425 179.016 171.623 188.089 168.958C197.156 166.294 205.626 162.411 211.264 157.356C216.238 152.897 219.022 147.509 218.041 141.246C218.101 141.432 218.159 141.619 218.214 141.807C219.105 144.838 220.022 148.524 220.345 152.272C220.668 156.022 220.394 159.818 218.917 163.076C214.708 172.36 203.473 179.101 192.054 182.455C186.853 183.984 180.804 184.991 175.014 185.048C169.22 185.105 163.705 184.21 159.557 181.95C155.965 179.991 153.57 176.831 151.82 173.295C150.172 169.966 149.103 166.32 148.146 163.053C148.086 162.849 148.027 162.646 147.968 162.445C147.781 161.809 147.628 161.171 147.504 160.53Z" fill="#CE7B39" stroke="#CF363E" stroke-width="0.387421"/>
<path d="M217.275 138.609C219.12 144.89 216.902 151.744 211.773 157.758C206.645 163.77 198.622 168.921 188.916 171.773C179.211 174.624 169.677 174.631 162.112 172.348C154.545 170.064 148.972 165.498 147.127 159.218C145.282 152.937 147.499 146.082 152.628 140.067C157.756 134.055 165.778 128.904 175.484 126.052C185.19 123.201 194.724 123.194 202.29 125.477C209.857 127.762 215.43 132.329 217.275 138.609Z" fill="#EDB465" stroke="#CF363E" stroke-width="0.387421"/>
<path d="M207.458 141.494C210.222 150.903 201.156 161.852 187.205 165.951C173.257 170.048 159.71 165.743 156.946 156.334C154.181 146.923 163.246 135.973 177.194 131.875C191.145 127.776 204.693 132.083 207.458 141.494Z" stroke="#CF363E" stroke-width="1.89332" stroke-miterlimit="10"/>
<path d="M163.193 143.896L166.798 144.995L166.792 145L166.753 145.096L165.859 147.283L165.783 147.469L165.867 147.651L166.761 149.592L166.848 149.781L167.046 149.841L169.358 150.547L169.418 150.565L169.48 150.567L172.4 150.648L172.44 150.649L172.479 150.643L174.334 150.374L174.378 150.368L174.42 150.353L179.054 148.735L188.445 151.601L186.537 152.221L184.709 152.488L184.581 152.506L184.482 152.589L182.653 154.094L181.393 155.131L183.01 154.91L187.327 154.32L187.39 154.312L187.449 154.286L190.78 152.841L190.837 152.816L190.886 152.776L191.273 152.464L195.401 153.724L195.632 153.795L195.822 153.645L196.901 152.795L197.596 152.247L196.749 151.989L193.194 150.905L193.229 150.838L194.374 148.639L194.468 148.459L194.4 148.269L194.033 147.247L193.992 147.133L193.9 147.053L192.352 145.713L192.278 145.649L192.184 145.62L189.817 144.896L189.756 144.878L189.692 144.876L186.615 144.807L186.575 144.806L186.536 144.812L182.756 145.381L182.713 145.388L182.671 145.403L179.199 146.633L171.337 144.234L173.234 143.557L175.067 143.255L175.201 143.233L175.301 143.142L177.129 141.5L178.296 140.451L176.747 140.698L172.358 141.398L172.291 141.408L172.229 141.438L169 142.999L168.938 143.029L168.888 143.075L168.552 143.384L164.408 142.12L164.15 142.041L163.955 142.226L163.01 143.117L162.43 143.664L163.193 143.896ZM190.539 150.095L182.356 147.597L184.296 146.935L185.933 146.686L188.668 146.745L190.673 147.358L191.329 147.915L191.376 148.706L190.808 149.876L190.539 150.095ZM169.191 145.993L169.411 145.793L175.908 147.775L172.92 148.819L170.401 148.758L168.656 148.227L168.449 147.777L169.191 145.993Z" fill="#CE7B39" stroke="#CF363E" stroke-width="0.925829"/>
<path d="M164.714 137.911C170.733 140.365 177.13 139.509 183.298 136.261C189.856 132.808 196.166 126.647 201.526 118.857C206.883 111.071 211.008 102.717 212.196 95.2383C213.244 88.6403 212.007 82.7035 207.296 78.462C207.46 78.568 207.622 78.6765 207.784 78.7877C210.387 80.5785 213.423 82.8608 216.038 85.566C218.653 88.2722 220.834 91.3904 221.743 94.8513C224.331 104.71 219.862 117.027 213.116 126.831C210.043 131.298 205.984 135.895 201.526 139.59C197.066 143.288 192.221 146.071 187.576 146.932C183.554 147.678 179.701 146.736 176.114 145.096C172.735 143.551 169.607 141.395 166.804 139.463C166.628 139.342 166.454 139.222 166.282 139.104C165.736 138.728 165.215 138.33 164.714 137.911Z" fill="#CE7B39" stroke="#CF363E" stroke-width="0.387421"/>
<path d="M205.039 76.8985C210.431 80.6089 213.033 87.327 212.844 95.2289C212.656 103.129 209.678 112.186 203.943 120.52C198.209 128.853 190.815 134.871 183.504 137.87C176.191 140.869 168.987 140.84 163.595 137.13C158.202 133.419 155.599 126.7 155.787 118.798C155.974 110.898 158.952 101.841 164.686 93.5077C170.421 85.1736 177.816 79.1555 185.127 76.1572C192.441 73.158 199.646 73.1877 205.039 76.8985Z" fill="#EDB465" stroke="#CF363E" stroke-width="0.387421"/>
<path d="M199.239 85.3279C207.318 90.8869 207.186 105.102 198.944 117.08C190.704 129.056 177.474 134.258 169.395 128.699C161.315 123.14 161.445 108.924 169.686 96.948C177.928 84.9693 191.159 79.7682 199.239 85.3279Z" stroke="#CF363E" stroke-width="1.89332" stroke-miterlimit="10"/>
<path d="M166.4 115.107L169.891 113.686L169.89 113.693L169.92 113.793L170.605 116.053L170.664 116.246L170.844 116.335L172.762 117.277L172.948 117.369L173.14 117.291L175.379 116.381L175.437 116.357L175.487 116.319L177.804 114.541L177.835 114.516L177.862 114.487L179.132 113.109L179.162 113.076L179.186 113.038L181.761 108.86L190.857 105.162L189.767 106.846L188.517 108.206L188.43 108.301L188.404 108.427L187.934 110.749L187.611 112.349L188.726 111.158L191.704 107.977L191.748 107.931L191.777 107.874L193.451 104.652L193.48 104.596L193.493 104.535L193.596 104.049L197.594 102.423L197.819 102.332L197.872 102.096L198.173 100.756L198.367 99.8922L197.546 100.226L194.104 101.627L194.088 101.553L193.591 99.1235L193.55 98.9252L193.377 98.8204L192.448 98.2585L192.344 98.1957L192.223 98.1919L190.176 98.1283L190.078 98.1252L189.988 98.162L187.694 99.093L187.634 99.117L187.584 99.1562L185.152 101.043L185.121 101.068L185.094 101.097L182.52 103.922L182.49 103.955L182.467 103.993L180.548 107.137L172.934 110.233L173.979 108.512L175.211 107.121L175.301 107.02L175.322 106.886L175.705 104.458L175.949 102.909L174.903 104.077L171.937 107.388L171.892 107.439L171.863 107.501L170.341 110.748L170.312 110.81L170.302 110.878L170.236 111.33L166.223 112.962L165.974 113.063L165.938 113.33L165.767 114.617L165.662 115.408L166.4 115.107ZM191.533 102.672L183.606 105.894L184.694 104.157L185.808 102.931L187.968 101.253L189.91 100.464L190.77 100.482L191.306 101.067L191.603 102.333L191.533 102.672ZM172.378 112.952L172.422 112.657L178.714 110.098L177.054 112.793L175.06 114.335L173.371 115.022L172.927 114.804L172.378 112.952Z" fill="#CE7B39" stroke="#CF363E" stroke-width="0.925829"/>
<mask id="path-36-inside-1_103_5249" fill="white">
<path fill-rule="evenodd" clip-rule="evenodd" d="M223.002 232.885L200.919 240.129L209.278 265.609L231.36 258.366L223.002 232.885ZM210.626 254.422C208.803 248.864 213.772 241.489 213.772 241.489C213.772 241.489 222.143 244.488 223.967 250.046C224.504 251.683 223.611 253.446 221.974 253.983C220.518 254.461 218.964 253.806 218.261 252.503C218.745 253.658 219.74 255.634 221.1 256.322L216.653 257.78C217.341 256.42 216.972 254.24 216.678 253.022C216.884 254.488 216.02 255.936 214.563 256.414C212.926 256.951 211.163 256.059 210.626 254.422Z"/>
</mask>
<path fill-rule="evenodd" clip-rule="evenodd" d="M223.002 232.885L200.919 240.129L209.278 265.609L231.36 258.366L223.002 232.885ZM210.626 254.422C208.803 248.864 213.772 241.489 213.772 241.489C213.772 241.489 222.143 244.488 223.967 250.046C224.504 251.683 223.611 253.446 221.974 253.983C220.518 254.461 218.964 253.806 218.261 252.503C218.745 253.658 219.74 255.634 221.1 256.322L216.653 257.78C217.341 256.42 216.972 254.24 216.678 253.022C216.884 254.488 216.02 255.936 214.563 256.414C212.926 256.951 211.163 256.059 210.626 254.422Z" fill="#9B1A2E"/>
<path d="M200.919 240.129L200.837 239.877L200.585 239.96L200.668 240.211L200.919 240.129ZM223.002 232.885L223.253 232.803L223.171 232.551L222.919 232.634L223.002 232.885ZM209.278 265.609L209.026 265.692L209.108 265.943L209.36 265.861L209.278 265.609ZM231.36 258.366L231.442 258.617L231.694 258.535L231.612 258.283L231.36 258.366ZM213.772 241.489L213.861 241.239L213.667 241.17L213.552 241.341L213.772 241.489ZM223.967 250.046L224.218 249.964L224.218 249.964L223.967 250.046ZM218.261 252.503L218.494 252.377L218.016 252.605L218.261 252.503ZM221.1 256.322L221.183 256.573L221.79 256.374L221.22 256.085L221.1 256.322ZM216.653 257.78L216.417 257.661L216.128 258.232L216.736 258.032L216.653 257.78ZM216.678 253.022L216.936 252.96L216.416 253.058L216.678 253.022ZM201.002 240.381L223.084 233.137L222.919 232.634L200.837 239.877L201.002 240.381ZM209.529 265.527L201.171 240.046L200.668 240.211L209.026 265.692L209.529 265.527ZM231.277 258.114L209.195 265.357L209.36 265.861L231.442 258.617L231.277 258.114ZM222.75 232.968L231.108 258.448L231.612 258.283L223.253 232.803L222.75 232.968ZM213.772 241.489C213.552 241.341 213.552 241.341 213.552 241.341C213.552 241.341 213.552 241.341 213.551 241.341C213.551 241.342 213.551 241.342 213.551 241.342C213.55 241.343 213.549 241.345 213.548 241.347C213.545 241.351 213.541 241.356 213.536 241.364C213.527 241.379 213.512 241.4 213.494 241.429C213.457 241.485 213.404 241.569 213.337 241.676C213.203 241.892 213.014 242.205 212.793 242.598C212.351 243.384 211.782 244.49 211.269 245.773C210.249 248.325 209.433 251.633 210.375 254.505L210.878 254.34C209.997 251.653 210.753 248.494 211.761 245.969C212.263 244.714 212.821 243.629 213.255 242.858C213.471 242.472 213.656 242.166 213.786 241.956C213.852 241.852 213.903 241.771 213.938 241.717C213.956 241.69 213.969 241.67 213.978 241.656C213.983 241.649 213.986 241.644 213.988 241.641C213.989 241.639 213.99 241.638 213.991 241.638C213.991 241.637 213.991 241.637 213.991 241.637C213.991 241.637 213.991 241.637 213.991 241.637C213.991 241.637 213.991 241.637 213.772 241.489ZM224.218 249.964C223.276 247.092 220.659 244.911 218.325 243.458C217.153 242.728 216.038 242.174 215.217 241.803C214.807 241.617 214.469 241.477 214.233 241.382C214.115 241.335 214.023 241.3 213.96 241.276C213.928 241.264 213.904 241.255 213.887 241.249C213.879 241.246 213.872 241.243 213.868 241.242C213.866 241.241 213.864 241.24 213.863 241.24C213.862 241.24 213.862 241.24 213.862 241.24C213.861 241.239 213.861 241.239 213.861 241.239C213.861 241.239 213.861 241.239 213.772 241.489C213.682 241.738 213.682 241.738 213.682 241.738C213.682 241.738 213.682 241.738 213.682 241.738C213.682 241.738 213.683 241.738 213.683 241.738C213.684 241.739 213.685 241.739 213.687 241.74C213.691 241.741 213.697 241.743 213.704 241.746C213.719 241.752 213.742 241.76 213.772 241.772C213.833 241.794 213.922 241.829 214.037 241.874C214.266 241.966 214.596 242.103 214.999 242.286C215.805 242.65 216.897 243.193 218.045 243.908C220.354 245.345 222.834 247.442 223.715 250.129L224.218 249.964ZM222.057 254.234C223.833 253.652 224.801 251.74 224.218 249.964L223.715 250.129C224.206 251.627 223.39 253.24 221.892 253.731L222.057 254.234ZM218.028 252.628C218.791 254.042 220.476 254.753 222.057 254.234L221.892 253.731C220.56 254.168 219.138 253.569 218.494 252.377L218.028 252.628ZM221.22 256.085C220.601 255.772 220.043 255.152 219.573 254.441C219.106 253.736 218.744 252.97 218.505 252.4L218.016 252.605C218.262 253.191 218.639 253.99 219.131 254.734C219.619 255.472 220.239 256.183 220.98 256.558L221.22 256.085ZM216.736 258.032L221.183 256.573L221.017 256.07L216.57 257.529L216.736 258.032ZM216.421 253.084C216.566 253.684 216.728 254.516 216.769 255.361C216.812 256.212 216.73 257.042 216.417 257.661L216.889 257.9C217.264 257.159 217.342 256.218 217.299 255.335C217.254 254.445 217.085 253.577 216.936 252.96L216.421 253.084ZM214.645 256.666C216.226 256.147 217.163 254.576 216.941 252.985L216.416 253.058C216.604 254.4 215.813 255.725 214.48 256.162L214.645 256.666ZM210.375 254.505C210.957 256.281 212.87 257.248 214.645 256.666L214.48 256.162C212.983 256.653 211.369 255.838 210.878 254.34L210.375 254.505Z" fill="#9B1A2E" mask="url(#path-36-inside-1_103_5249)"/>
<mask id="path-38-inside-2_103_5249" fill="white">
<path fill-rule="evenodd" clip-rule="evenodd" d="M222.211 264.971L200.128 272.215L208.487 297.695L230.569 290.452L222.211 264.971ZM209.835 286.508C208.012 280.95 212.98 273.575 212.98 273.575C212.98 273.575 221.352 276.574 223.176 282.132C223.713 283.769 222.82 285.532 221.183 286.069C219.727 286.546 218.173 285.892 217.47 284.589C217.954 285.744 218.948 287.72 220.309 288.408L215.862 289.866C216.55 288.506 216.181 286.326 215.887 285.108C216.092 286.574 215.228 288.022 213.772 288.5C212.135 289.037 210.372 288.145 209.835 286.508Z"/>
</mask>
<path fill-rule="evenodd" clip-rule="evenodd" d="M222.211 264.971L200.128 272.215L208.487 297.695L230.569 290.452L222.211 264.971ZM209.835 286.508C208.012 280.95 212.98 273.575 212.98 273.575C212.98 273.575 221.352 276.574 223.176 282.132C223.713 283.769 222.82 285.532 221.183 286.069C219.727 286.546 218.173 285.892 217.47 284.589C217.954 285.744 218.948 287.72 220.309 288.408L215.862 289.866C216.55 288.506 216.181 286.326 215.887 285.108C216.092 286.574 215.228 288.022 213.772 288.5C212.135 289.037 210.372 288.145 209.835 286.508Z" fill="#9B1A2E"/>
<path d="M200.128 272.215L200.046 271.963L199.794 272.046L199.877 272.297L200.128 272.215ZM222.211 264.971L222.462 264.889L222.38 264.637L222.128 264.72L222.211 264.971ZM208.487 297.695L208.235 297.778L208.317 298.029L208.569 297.947L208.487 297.695ZM230.569 290.452L230.651 290.703L230.903 290.621L230.821 290.369L230.569 290.452ZM212.98 273.575L213.07 273.325L212.876 273.256L212.761 273.427L212.98 273.575ZM223.176 282.132L223.427 282.05L223.427 282.05L223.176 282.132ZM217.47 284.589L217.703 284.463L217.225 284.691L217.47 284.589ZM220.309 288.408L220.391 288.659L220.999 288.46L220.428 288.171L220.309 288.408ZM215.862 289.866L215.626 289.747L215.337 290.317L215.944 290.118L215.862 289.866ZM215.887 285.108L216.145 285.046L215.625 285.144L215.887 285.108ZM200.211 272.467L222.293 265.223L222.128 264.72L200.046 271.963L200.211 272.467ZM208.738 297.613L200.38 272.132L199.877 272.297L208.235 297.778L208.738 297.613ZM230.486 290.2L208.404 297.443L208.569 297.947L230.651 290.703L230.486 290.2ZM221.959 265.054L230.317 290.534L230.821 290.369L222.462 264.889L221.959 265.054ZM212.98 273.575C212.761 273.427 212.761 273.427 212.761 273.427C212.761 273.427 212.76 273.427 212.76 273.427C212.76 273.427 212.76 273.428 212.759 273.428C212.759 273.429 212.758 273.431 212.756 273.433C212.754 273.437 212.75 273.442 212.745 273.45C212.736 273.465 212.721 273.486 212.703 273.515C212.666 273.571 212.613 273.655 212.546 273.762C212.411 273.978 212.222 274.291 212.002 274.684C211.56 275.47 210.991 276.576 210.478 277.859C209.458 280.411 208.642 283.719 209.583 286.591L210.087 286.426C209.206 283.739 209.961 280.58 210.97 278.055C211.472 276.8 212.03 275.715 212.464 274.944C212.68 274.558 212.865 274.252 212.995 274.042C213.061 273.938 213.112 273.857 213.147 273.803C213.165 273.776 213.178 273.756 213.187 273.742C213.192 273.735 213.195 273.73 213.197 273.727C213.198 273.725 213.199 273.724 213.199 273.724C213.2 273.723 213.2 273.723 213.2 273.723C213.2 273.723 213.2 273.723 213.2 273.723C213.2 273.723 213.2 273.723 212.98 273.575ZM223.427 282.05C222.485 279.178 219.868 276.997 217.534 275.544C216.361 274.814 215.247 274.26 214.426 273.889C214.015 273.703 213.678 273.563 213.442 273.468C213.324 273.421 213.232 273.386 213.168 273.362C213.137 273.35 213.112 273.341 213.096 273.335C213.088 273.332 213.081 273.329 213.077 273.328C213.075 273.327 213.073 273.326 213.072 273.326C213.071 273.326 213.071 273.326 213.07 273.325C213.07 273.325 213.07 273.325 213.07 273.325C213.07 273.325 213.07 273.325 212.98 273.575C212.891 273.824 212.891 273.824 212.891 273.824C212.891 273.824 212.891 273.824 212.891 273.824C212.891 273.824 212.892 273.824 212.892 273.824C212.893 273.825 212.894 273.825 212.896 273.826C212.9 273.827 212.905 273.829 212.913 273.832C212.928 273.838 212.951 273.846 212.981 273.857C213.042 273.88 213.131 273.915 213.245 273.96C213.475 274.052 213.805 274.189 214.208 274.371C215.013 274.736 216.106 275.279 217.254 275.994C219.562 277.431 222.042 279.528 222.924 282.215L223.427 282.05ZM221.266 286.32C223.042 285.738 224.01 283.826 223.427 282.05L222.924 282.215C223.415 283.713 222.599 285.326 221.101 285.817L221.266 286.32ZM217.237 284.714C218 286.128 219.685 286.839 221.266 286.32L221.101 285.817C219.769 286.254 218.347 285.655 217.703 284.463L217.237 284.714ZM220.428 288.171C219.809 287.858 219.252 287.238 218.782 286.527C218.315 285.822 217.953 285.056 217.714 284.486L217.225 284.691C217.471 285.277 217.848 286.076 218.34 286.82C218.828 287.558 219.448 288.269 220.189 288.644L220.428 288.171ZM215.944 290.118L220.391 288.659L220.226 288.156L215.779 289.615L215.944 290.118ZM215.63 285.17C215.775 285.77 215.936 286.602 215.978 287.447C216.02 288.298 215.939 289.128 215.626 289.747L216.098 289.986C216.473 289.245 216.551 288.304 216.507 287.421C216.463 286.53 216.294 285.663 216.145 285.046L215.63 285.17ZM213.854 288.752C215.435 288.233 216.372 286.662 216.15 285.071L215.625 285.144C215.813 286.486 215.022 287.811 213.689 288.248L213.854 288.752ZM209.583 286.591C210.166 288.367 212.079 289.334 213.854 288.752L213.689 288.248C212.192 288.739 210.578 287.924 210.087 286.426L209.583 286.591Z" fill="#9B1A2E" mask="url(#path-38-inside-2_103_5249)"/>
<rect x="225.24" y="232.197" width="6.97204" height="26.7261" transform="rotate(-18.1607 225.24 232.197)" fill="#9B1A2E" stroke="#9B1A2E" stroke-width="0.0893851"/>
<rect x="227.413" y="238.823" width="6.97204" height="20.5586" transform="rotate(-108.161 227.413 238.823)" fill="#9B1A2E" stroke="#9B1A2E" stroke-width="0.0893851"/>
<rect x="233.571" y="257.593" width="6.97204" height="20.5586" transform="rotate(-108.161 233.571 257.593)" fill="#9B1A2E" stroke="#9B1A2E" stroke-width="0.0893851"/>
<rect x="230.506" y="248.25" width="6.97204" height="20.5586" transform="rotate(-108.161 230.506 248.25)" fill="#9B1A2E" stroke="#9B1A2E" stroke-width="0.0893851"/>
<rect x="224.863" y="264.16" width="6.97204" height="26.7261" transform="rotate(-18.1607 224.863 264.16)" fill="#9B1A2E" stroke="#9B1A2E" stroke-width="0.0893851"/>
<rect x="227.035" y="270.785" width="6.97204" height="20.5586" transform="rotate(-108.161 227.035 270.785)" fill="#9B1A2E" stroke="#9B1A2E" stroke-width="0.0893851"/>
<rect x="233.193" y="289.555" width="6.97204" height="20.5586" transform="rotate(-108.161 233.193 289.555)" fill="#9B1A2E" stroke="#9B1A2E" stroke-width="0.0893851"/>
<rect x="230.128" y="280.213" width="6.97204" height="20.5586" transform="rotate(-108.161 230.128 280.213)" fill="#9B1A2E" stroke="#9B1A2E" stroke-width="0.0893851"/>
<rect x="246.588" y="225.207" width="6.97204" height="26.7261" transform="rotate(-18.1607 246.588 225.207)" fill="#9B1A2E" stroke="#9B1A2E" stroke-width="0.0893851"/>
<rect x="266.207" y="218.772" width="6.97204" height="26.7261" transform="rotate(-18.1607 266.207 218.772)" fill="#9B1A2E" stroke="#9B1A2E" stroke-width="0.0893851"/>
<rect x="256.44" y="221.975" width="6.97204" height="26.7261" transform="rotate(-18.1607 256.44 221.975)" fill="#9B1A2E" stroke="#9B1A2E" stroke-width="0.0893851"/>
<rect x="255.47" y="229.631" width="6.97204" height="20.5586" transform="rotate(-108.161 255.47 229.631)" fill="#9B1A2E" stroke="#9B1A2E" stroke-width="0.0893851"/>
<rect x="245.797" y="257.294" width="6.97204" height="26.7261" transform="rotate(-18.1607 245.797 257.294)" fill="#9B1A2E" stroke="#9B1A2E" stroke-width="0.0893851"/>
<rect x="265.416" y="250.858" width="6.97204" height="26.7261" transform="rotate(-18.1607 265.416 250.858)" fill="#9B1A2E" stroke="#9B1A2E" stroke-width="0.0893851"/>
<rect x="255.649" y="254.062" width="6.97204" height="26.7261" transform="rotate(-18.1607 255.649 254.062)" fill="#9B1A2E" stroke="#9B1A2E" stroke-width="0.0893851"/>
<rect x="254.679" y="261.718" width="6.97204" height="20.5586" transform="rotate(-108.161 254.679 261.718)" fill="#9B1A2E" stroke="#9B1A2E" stroke-width="0.0893851"/>
<path d="M215.84 231.17L214.773 219.44C214.438 215.753 216.693 212.323 220.211 211.169L272.535 194.005C277.284 192.447 282.275 195.608 282.897 200.567L293.678 286.523C294.152 290.297 291.884 293.877 288.27 295.063L235.748 312.291C230.712 313.943 225.501 310.297 225.328 305L225.092 297.759" stroke="#9B1A2E" stroke-width="3.12848"/>
</g>
<defs>
<filter id="filter0_dddd_103_5249" x="0.0952148" y="64.9517" width="447.543" height="456.225" filterUnits="userSpaceOnUse" color-interpolation-filters="sRGB">
<feFlood flood-opacity="0" result="BackgroundImageFix"/>
<feColorMatrix in="SourceAlpha" type="matrix" values="0 0 0 0 0 0 0 0 0 0 0 0 0 0 0 0 0 0 127 0" result="hardAlpha"/>
<feOffset dx="-1" dy="4"/>
<feGaussianBlur stdDeviation="4"/>
<feColorMatrix type="matrix" values="0 0 0 0 0 0 0 0 0 0 0 0 0 0 0 0 0 0 0.1 0"/>
<feBlend mode="normal" in2="BackgroundImageFix" result="effect1_dropShadow_103_5249"/>
<feColorMatrix in="SourceAlpha" type="matrix" values="0 0 0 0 0 0 0 0 0 0 0 0 0 0 0 0 0 0 127 0" result="hardAlpha"/>
<feOffset dx="-3" dy="15"/>
<feGaussianBlur stdDeviation="7.5"/>
<feColorMatrix type="matrix" values="0 0 0 0 0 0 0 0 0 0 0 0 0 0 0 0 0 0 0.09 0"/>
<feBlend mode="normal" in2="effect1_dropShadow_103_5249" result="effect2_dropShadow_103_5249"/>
<feColorMatrix in="SourceAlpha" type="matrix" values="0 0 0 0 0 0 0 0 0 0 0 0 0 0 0 0 0 0 127 0" result="hardAlpha"/>
<feOffset dx="-6" dy="34"/>
<feGaussianBlur stdDeviation="10.5"/>
<feColorMatrix type="matrix" values="0 0 0 0 0 0 0 0 0 0 0 0 0 0 0 0 0 0 0.05 0"/>
<feBlend mode="normal" in2="effect2_dropShadow_103_5249" result="effect3_dropShadow_103_5249"/>
<feColorMatrix in="SourceAlpha" type="matrix" values="0 0 0 0 0 0 0 0 0 0 0 0 0 0 0 0 0 0 127 0" result="hardAlpha"/>
<feOffset dx="-11" dy="61"/>
<feGaussianBlur stdDeviation="12.5"/>
<feColorMatrix type="matrix" values="0 0 0 0 0 0 0 0 0 0 0 0 0 0 0 0 0 0 0.01 0"/>
<feBlend mode="normal" in2="effect3_dropShadow_103_5249" result="effect4_dropShadow_103_5249"/>
<feBlend mode="normal" in="SourceGraphic" in2="effect4_dropShadow_103_5249" result="shape"/>
</filter>
</defs>
</svg>
