<svg width="221" height="215" viewBox="0 0 221 215" fill="none" xmlns="http://www.w3.org/2000/svg">
    <path fill-rule="evenodd" clip-rule="evenodd" d="M65.4604 40.749H28.25V83.6854H65.4604V40.749ZM35.8845 67.3392C35.8845 57.9732 47.1241 49.232 47.1241 49.232C47.1241 49.232 58.3637 57.9732 58.3643 67.3392C58.3643 70.0979 56.127 72.3339 53.3686 72.3339C50.9146 72.3339 48.8775 70.5622 48.4574 68.2287C48.6178 70.2285 49.1448 73.7302 50.8709 75.4561H43.3776C45.1034 73.7302 45.6301 70.2285 45.7911 68.2287C45.3714 70.5622 43.3342 72.3339 40.8796 72.3339C38.1219 72.3339 35.8845 70.0979 35.8845 67.3392Z" fill="#EDB465"/>
    <path fill-rule="evenodd" clip-rule="evenodd" d="M65.4604 86.5566H28.25V129.493H65.4604V86.5566ZM35.8845 113.147C35.8845 103.781 47.1241 95.0398 47.1241 95.0398C47.1241 95.0398 58.3637 103.781 58.3643 113.147C58.3643 115.906 56.127 118.142 53.3686 118.142C50.9146 118.142 48.8775 116.37 48.4574 114.037C48.6178 116.036 49.1448 119.538 50.8709 121.264H43.3776C45.1034 119.538 45.6301 116.036 45.7911 114.037C45.3714 116.37 43.3342 118.142 40.8796 118.142C38.1219 118.142 35.8845 115.906 35.8845 113.147Z" fill="#EDB465"/>
    <rect x="68.752" y="40.7676" width="11.3063" height="42.9354" fill="#EDB465"/>
    <rect x="68.752" y="52.0742" width="11.3063" height="33.0603" transform="rotate(-90 68.752 52.0742)" fill="#EDB465"/>
    <rect x="68.752" y="83.7029" width="11.3063" height="33.0603" transform="rotate(-90 68.752 83.7029)" fill="#EDB465"/>
    <rect x="68.752" y="67.96" width="11.3063" height="33.0603" transform="rotate(-90 68.752 67.96)" fill="#EDB465"/>
    <rect x="68.752" y="86.5652" width="11.3063" height="42.9354" fill="#EDB465"/>
    <rect x="68.752" y="97.8718" width="11.3063" height="33.0603" transform="rotate(-90 68.752 97.8718)" fill="#EDB465"/>
    <rect x="68.752" y="129.5" width="11.3063" height="33.0603" transform="rotate(-90 68.752 129.5)" fill="#EDB465"/>
    <rect x="68.752" y="113.758" width="11.3063" height="33.0603" transform="rotate(-90 68.752 113.758)" fill="#EDB465"/>
    <rect x="105.104" y="40.7673" width="11.3063" height="42.9354" fill="#EDB465"/>
    <rect x="138.164" y="40.7673" width="11.3063" height="42.9354" fill="#EDB465"/>
    <rect x="121.706" y="40.7673" width="11.3063" height="42.9354" fill="#EDB465"/>
    <rect x="116.411" y="52.0737" width="11.3063" height="33.0603" transform="rotate(-90 116.411 52.0737)" fill="#EDB465"/>
    <rect x="105.104" y="86.5652" width="11.3063" height="42.9354" fill="#EDB465"/>
    <rect x="138.164" y="86.5652" width="11.3063" height="42.9354" fill="#EDB465"/>
    <rect x="121.706" y="86.5652" width="11.3063" height="42.9354" fill="#EDB465"/>
    <rect x="116.411" y="97.8716" width="11.3063" height="33.0603" transform="rotate(-90 116.411 97.8716)" fill="#EDB465"/>
    <path d="M72.3093 31.248L76.5397 12.87C77.8694 7.09329 83.012 3 88.9398 3H177.111C185.113 3 191.129 10.2995 189.601 18.1549L163.107 154.306C161.944 160.284 156.707 164.6 150.617 164.6H62.1131C53.6274 164.6 47.5193 156.452 49.8994 148.307L53.1528 137.173" stroke="#EDB465" stroke-width="5.00914"/>
    <path d="M13.0602 207.918C11.4694 207.918 9.98473 207.621 8.60606 207.027C7.22739 206.434 6.01841 205.617 4.97911 204.578C3.9398 203.517 3.12321 202.298 2.52932 200.919C1.95664 199.519 1.67031 198.024 1.67031 196.433C1.67031 194.842 1.95664 193.357 2.52932 191.979C3.12321 190.6 3.9292 189.391 4.94729 188.352C5.98659 187.291 7.18497 186.475 8.54243 185.902C9.9211 185.308 11.4058 185.011 12.9966 185.011C14.5874 185.011 16.0615 185.308 17.4189 185.902C18.7976 186.475 20.0066 187.291 21.0459 188.352C22.0852 189.391 22.8912 190.611 23.4638 192.011C24.0577 193.389 24.3547 194.874 24.3547 196.465C24.3547 198.055 24.0577 199.551 23.4638 200.951C22.8912 202.329 22.0852 203.538 21.0459 204.578C20.0278 205.617 18.8294 206.434 17.4507 207.027C16.0933 207.621 14.6298 207.918 13.0602 207.918ZM12.9966 204.419C14.5025 204.419 15.8175 204.079 16.9417 203.4C18.087 202.722 18.9779 201.788 19.6142 200.601C20.2717 199.392 20.6005 198.002 20.6005 196.433C20.6005 195.266 20.4096 194.206 20.0278 193.251C19.6672 192.276 19.1476 191.438 18.4688 190.738C17.7901 190.017 16.9841 189.465 16.0509 189.084C15.1388 188.702 14.1207 188.511 12.9966 188.511C11.5119 188.511 10.1968 188.85 9.05147 189.529C7.92733 190.186 7.0365 191.109 6.37898 192.297C5.74267 193.485 5.42452 194.863 5.42452 196.433C5.42452 197.599 5.60481 198.681 5.96538 199.678C6.34717 200.654 6.86682 201.492 7.52434 202.191C8.20306 202.891 9.00905 203.443 9.94231 203.846C10.8756 204.228 11.8936 204.419 12.9966 204.419ZM34.6929 207.918C33.1658 207.918 31.7871 207.579 30.5569 206.9C29.3479 206.2 28.3829 205.246 27.6617 204.037C26.9618 202.828 26.6118 201.47 26.6118 199.964C26.6118 198.458 26.9618 197.112 27.6617 195.924C28.3617 194.715 29.3055 193.76 30.4933 193.06C31.7023 192.361 33.0385 192.011 34.502 192.011C35.9231 192.011 37.1745 192.339 38.2563 192.997C39.3592 193.654 40.2182 194.556 40.8333 195.701C41.4696 196.846 41.7878 198.151 41.7878 199.614C41.7878 199.869 41.7666 200.134 41.7241 200.41C41.7029 200.664 41.6605 200.951 41.5969 201.269H29.0616V198.405H39.7834L38.479 199.551C38.4365 198.618 38.2563 197.833 37.9381 197.196C37.6199 196.56 37.1639 196.072 36.57 195.733C35.9974 195.394 35.2868 195.224 34.4384 195.224C33.5476 195.224 32.7734 195.415 32.1159 195.797C31.4584 196.178 30.9493 196.719 30.5887 197.419C30.2282 198.098 30.0479 198.914 30.0479 199.869C30.0479 200.823 30.2388 201.661 30.6206 202.382C31.0023 203.104 31.5432 203.666 32.2431 204.069C32.9431 204.45 33.7491 204.641 34.6611 204.641C35.4459 204.641 36.167 204.503 36.8246 204.228C37.5033 203.952 38.076 203.549 38.5426 203.019L40.7697 205.278C40.0273 206.147 39.1259 206.805 38.0654 207.25C37.0049 207.696 35.8807 207.918 34.6929 207.918ZM44.5932 207.6V192.329H48.0929V207.6H44.5932ZM54.7423 207.6V198.501C54.7423 197.483 54.4242 196.698 53.7879 196.147C53.1516 195.574 52.3668 195.288 51.4335 195.288C50.7972 195.288 50.2246 195.415 49.7155 195.669C49.2277 195.924 48.8353 196.295 48.5383 196.783C48.2414 197.249 48.0929 197.822 48.0929 198.501L46.7249 197.737C46.7249 196.571 46.9794 195.563 47.4884 194.715C47.9975 193.866 48.6868 193.209 49.5564 192.742C50.4261 192.254 51.4017 192.011 52.4835 192.011C53.5652 192.011 54.5408 192.244 55.4105 192.71C56.2801 193.177 56.9694 193.835 57.4785 194.683C57.9875 195.531 58.242 196.55 58.242 197.737V207.6H54.7423ZM64.8915 207.6V198.501C64.8915 197.483 64.5733 196.698 63.937 196.147C63.3007 195.574 62.5159 195.288 61.5827 195.288C60.9676 195.288 60.4055 195.415 59.8964 195.669C59.3874 195.924 58.9844 196.295 58.6875 196.783C58.3905 197.249 58.242 197.822 58.242 198.501L56.2695 197.737C56.3755 196.571 56.7149 195.563 57.2876 194.715C57.8603 193.866 58.592 193.209 59.4828 192.742C60.3949 192.254 61.3918 192.011 62.4735 192.011C63.5764 192.011 64.5733 192.244 65.4641 192.71C66.355 193.177 67.0655 193.835 67.5958 194.683C68.126 195.531 68.3911 196.55 68.3911 197.737V207.6H64.8915ZM82.7185 207.918C81.1277 207.918 79.643 207.621 78.2644 207.027C76.8857 206.434 75.6767 205.617 74.6374 204.578C73.5981 203.517 72.7815 202.298 72.1876 200.919C71.6149 199.519 71.3286 198.024 71.3286 196.433C71.3286 194.842 71.6149 193.357 72.1876 191.979C72.7815 190.6 73.5875 189.391 74.6056 188.352C75.6449 187.291 76.8433 186.475 78.2007 185.902C79.5794 185.308 81.0641 185.011 82.6549 185.011C84.2456 185.011 85.7198 185.308 87.0772 185.902C88.4559 186.475 89.6649 187.291 90.7042 188.352C91.7435 189.391 92.5495 190.611 93.1221 192.011C93.716 193.389 94.013 194.874 94.013 196.465C94.013 198.055 93.716 199.551 93.1221 200.951C92.5495 202.329 91.7435 203.538 90.7042 204.578C89.6861 205.617 88.4877 206.434 87.109 207.027C85.7516 207.621 84.2881 207.918 82.7185 207.918ZM82.6549 204.419C84.1608 204.419 85.4758 204.079 86.6 203.4C87.7453 202.722 88.6362 201.788 89.2725 200.601C89.93 199.392 90.2588 198.002 90.2588 196.433C90.2588 195.266 90.0679 194.206 89.6861 193.251C89.3255 192.276 88.8059 191.438 88.1271 190.738C87.4484 190.017 86.6424 189.465 85.7092 189.084C84.7971 188.702 83.779 188.511 82.6549 188.511C81.1702 188.511 79.8551 188.85 78.7098 189.529C77.5856 190.186 76.6948 191.109 76.0373 192.297C75.401 193.485 75.0828 194.863 75.0828 196.433C75.0828 197.599 75.2631 198.681 75.6237 199.678C76.0055 200.654 76.5251 201.492 77.1826 202.191C77.8614 202.891 78.6673 203.443 79.6006 203.846C80.5339 204.228 81.5519 204.419 82.6549 204.419ZM104.351 207.918C102.824 207.918 101.445 207.579 100.215 206.9C99.0062 206.2 98.0412 205.246 97.32 204.037C96.6201 202.828 96.2701 201.47 96.2701 199.964C96.2701 198.458 96.6201 197.112 97.32 195.924C98.02 194.715 98.9638 193.76 100.152 193.06C101.361 192.361 102.697 192.011 104.16 192.011C105.581 192.011 106.833 192.339 107.915 192.997C109.017 193.654 109.876 194.556 110.492 195.701C111.128 196.846 111.446 198.151 111.446 199.614C111.446 199.869 111.425 200.134 111.382 200.41C111.361 200.664 111.319 200.951 111.255 201.269H98.7199V198.405H109.442L108.137 199.551C108.095 198.618 107.915 197.833 107.596 197.196C107.278 196.56 106.822 196.072 106.228 195.733C105.656 195.394 104.945 195.224 104.097 195.224C103.206 195.224 102.432 195.415 101.774 195.797C101.117 196.178 100.608 196.719 100.247 197.419C99.8865 198.098 99.7062 198.914 99.7062 199.869C99.7062 200.823 99.8971 201.661 100.279 202.382C100.661 203.104 101.202 203.666 101.901 204.069C102.601 204.45 103.407 204.641 104.319 204.641C105.104 204.641 105.825 204.503 106.483 204.228C107.162 203.952 107.734 203.549 108.201 203.019L110.428 205.278C109.686 206.147 108.784 206.805 107.724 207.25C106.663 207.696 105.539 207.918 104.351 207.918ZM114.252 207.6V192.329H117.751V207.6H114.252ZM124.401 207.6V198.501C124.401 197.483 124.082 196.698 123.446 196.147C122.81 195.574 122.025 195.288 121.092 195.288C120.456 195.288 119.883 195.415 119.374 195.669C118.886 195.924 118.494 196.295 118.197 196.783C117.9 197.249 117.751 197.822 117.751 198.501L116.383 197.737C116.383 196.571 116.638 195.563 117.147 194.715C117.656 193.866 118.345 193.209 119.215 192.742C120.084 192.254 121.06 192.011 122.142 192.011C123.223 192.011 124.199 192.244 125.069 192.71C125.938 193.177 126.628 193.835 127.137 194.683C127.646 195.531 127.9 196.55 127.9 197.737V207.6H124.401ZM134.55 207.6V198.501C134.55 197.483 134.232 196.698 133.595 196.147C132.959 195.574 132.174 195.288 131.241 195.288C130.626 195.288 130.064 195.415 129.555 195.669C129.046 195.924 128.643 196.295 128.346 196.783C128.049 197.249 127.9 197.822 127.9 198.501L125.928 197.737C126.034 196.571 126.373 195.563 126.946 194.715C127.519 193.866 128.25 193.209 129.141 192.742C130.053 192.254 131.05 192.011 132.132 192.011C133.235 192.011 134.232 192.244 135.122 192.71C136.013 193.177 136.724 193.835 137.254 194.683C137.784 195.531 138.049 196.55 138.049 197.737V207.6H134.55ZM146.974 205.437L155.183 196.719C155.861 195.998 156.413 195.351 156.837 194.778C157.261 194.206 157.569 193.665 157.76 193.156C157.951 192.647 158.046 192.127 158.046 191.597C158.046 190.6 157.717 189.826 157.06 189.274C156.424 188.702 155.607 188.415 154.61 188.415C153.55 188.415 152.616 188.681 151.81 189.211C151.004 189.741 150.283 190.568 149.647 191.692L147.102 189.593C147.971 188.087 149.042 186.952 150.315 186.188C151.588 185.404 153.062 185.011 154.737 185.011C156.116 185.011 157.325 185.287 158.364 185.838C159.404 186.39 160.21 187.164 160.782 188.161C161.355 189.137 161.641 190.271 161.641 191.565C161.641 192.498 161.525 193.336 161.291 194.079C161.079 194.8 160.708 195.531 160.178 196.274C159.648 196.995 158.916 197.843 157.983 198.819L151.683 205.341L146.974 205.437ZM146.974 207.6V205.437L150.124 204.323H162.087V207.6H146.974ZM173.763 207.918C172.088 207.918 170.55 207.452 169.15 206.518C167.772 205.564 166.669 204.228 165.841 202.51C165.014 200.792 164.601 198.766 164.601 196.433C164.601 194.1 165.004 192.085 165.81 190.388C166.637 188.67 167.74 187.344 169.118 186.411C170.497 185.478 172.024 185.011 173.7 185.011C175.397 185.011 176.934 185.478 178.313 186.411C179.692 187.344 180.784 188.67 181.59 190.388C182.417 192.085 182.831 194.11 182.831 196.465C182.831 198.798 182.417 200.823 181.59 202.541C180.784 204.259 179.692 205.585 178.313 206.518C176.956 207.452 175.439 207.918 173.763 207.918ZM173.7 204.482C174.803 204.482 175.757 204.185 176.563 203.591C177.369 202.997 177.995 202.107 178.44 200.919C178.907 199.731 179.14 198.236 179.14 196.433C179.14 194.651 178.907 193.167 178.44 191.979C177.995 190.791 177.359 189.911 176.531 189.338C175.725 188.744 174.782 188.447 173.7 188.447C172.618 188.447 171.664 188.744 170.836 189.338C170.03 189.911 169.405 190.791 168.959 191.979C168.514 193.145 168.291 194.63 168.291 196.433C168.291 198.236 168.514 199.731 168.959 200.919C169.405 202.107 170.03 202.997 170.836 203.591C171.664 204.185 172.618 204.482 173.7 204.482ZM185.035 205.437L193.243 196.719C193.922 195.998 194.473 195.351 194.898 194.778C195.322 194.206 195.629 193.665 195.82 193.156C196.011 192.647 196.107 192.127 196.107 191.597C196.107 190.6 195.778 189.826 195.12 189.274C194.484 188.702 193.667 188.415 192.67 188.415C191.61 188.415 190.677 188.681 189.871 189.211C189.065 189.741 188.344 190.568 187.707 191.692L185.162 189.593C186.032 188.087 187.103 186.952 188.375 186.188C189.648 185.404 191.122 185.011 192.798 185.011C194.176 185.011 195.385 185.287 196.425 185.838C197.464 186.39 198.27 187.164 198.843 188.161C199.415 189.137 199.702 190.271 199.702 191.565C199.702 192.498 199.585 193.336 199.352 194.079C199.14 194.8 198.768 195.531 198.238 196.274C197.708 196.995 196.976 197.843 196.043 198.819L189.743 205.341L185.035 205.437ZM185.035 207.6V205.437L188.185 204.323H200.147V207.6H185.035ZM202.247 199.646L210.169 185.329H214.305L206.193 199.646H202.247ZM202.247 201.873V199.646L203.806 198.596H219.523V201.873H202.247ZM212.81 207.6V193.029H216.405V207.6H212.81Z" fill="#EDB465"/>
    </svg>
    