<svg width="994" height="544" viewBox="0 0 994 544" fill="none" xmlns="http://www.w3.org/2000/svg">
<path d="M269.461 174.541C268.296 158.268 282.449 145.009 298.599 147.32L315.54 149.745C322.021 150.673 327.9 154.05 331.967 159.182L590.757 485.804C599.454 496.78 597.709 512.708 586.844 521.542L348.547 715.276C332.484 728.336 308.366 717.849 306.888 697.2C292.862 501.329 283.785 374.578 269.461 174.541Z" fill="#CE7B39"/>
<rect x="22.0229" y="355.028" width="351.766" height="470.727" rx="25.583" transform="rotate(-38.3907 22.0229 355.028)" fill="#EDB465"/>
<path d="M85.2764 387.289L68.3855 365.971C68.2374 365.784 69.2415 363.923 71.398 360.388C73.5332 356.826 74.8279 354.866 75.2821 354.506C75.7362 354.146 76.8514 354.154 78.6275 354.53C80.4303 354.884 81.681 355.502 82.3795 356.384L100.223 378.904C100.392 379.118 99.4625 380.963 97.4341 384.44C95.4113 387.869 94.0659 389.848 93.398 390.377C92.7569 390.885 91.5538 390.904 89.7888 390.432C88.0505 389.94 86.5463 388.892 85.2764 387.289ZM93.8431 384.024C94.3506 383.622 94.7022 382.995 94.8979 382.144L79.1818 362.309C77.6155 360.332 76.1511 359.884 74.7887 360.963C74.2544 361.386 73.8922 361.999 73.7021 362.802L89.4499 382.678C91.0163 384.655 92.4806 385.103 93.8431 384.024ZM105.01 376.741L94.2471 363.157C93.5486 362.276 92.7583 361.662 91.8763 361.317C90.9943 360.973 90.2728 361.023 89.7118 361.467L89.0133 360.585C89.1792 360.411 89.9895 358.442 91.4444 354.68C91.6737 354.586 91.9643 354.486 92.3161 354.381C92.6468 354.25 93.1951 354.228 93.9612 354.317C94.754 354.385 95.3727 354.699 95.8172 355.26C95.914 355.053 96.167 354.439 96.5764 353.419C97.6642 350.731 98.4352 349.207 98.8894 348.847C99.3702 348.466 100.082 348.293 101.024 348.33C101.992 348.345 102.888 348.57 103.711 349.005C103.744 348.936 104.069 348.222 104.687 346.862C105.925 344.142 106.757 342.613 107.184 342.275C108.039 341.597 109.285 341.523 110.922 342.053C112.559 342.582 113.748 343.314 114.489 344.249L124.109 356.391C125.273 357.86 126.615 358.21 128.136 357.44L128.835 358.321L126.404 364.226C125.625 364.452 124.771 364.498 123.84 364.366C122.888 364.207 122.221 363.887 121.84 363.406L112.474 351.585C111.098 349.849 109.961 348.88 109.062 348.679C108.143 348.451 107.322 348.623 106.601 349.194L105.629 350.356L115.694 363.058C116.858 364.528 118.2 364.877 119.721 364.107L120.42 364.989L117.988 370.894C117.21 371.119 116.356 371.166 115.425 371.033C114.473 370.875 113.806 370.555 113.425 370.074L104.218 358.453C101.784 355.381 99.832 354.427 98.3627 355.591L97.1507 356.943L107.279 369.726C108.57 371.355 109.848 371.843 111.112 371.189L111.811 372.07L109.573 377.561C108.795 377.786 107.941 377.833 107.01 377.701C106.058 377.542 105.391 377.222 105.01 376.741ZM131.317 331.764L140.302 343.104C141.085 344.093 141.796 344.66 142.434 344.807C143.051 344.927 143.756 344.802 144.551 344.434L145.25 345.315L142.819 351.22C142.041 351.445 141.186 351.492 140.255 351.36C139.303 351.201 138.647 350.894 138.287 350.44L135.406 357.094C135.283 357.104 135.11 357.132 134.886 357.179C134.641 357.199 134.202 357.221 133.568 357.245C132.94 357.221 132.342 357.151 131.773 357.037C130.273 356.79 129.078 356.106 128.189 354.984L122.983 348.412C122.644 347.985 122.905 346.887 123.765 345.118C124.624 343.35 125.58 341.702 126.63 340.173L128.214 337.809C127.008 336.287 125.771 335.549 124.504 335.596C123.216 335.617 121.423 336.537 119.125 338.358L118.173 337.155C121.149 332.405 122.892 329.829 123.399 329.427C124.281 328.729 125.577 328.636 127.289 329.15C129 329.664 130.343 330.535 131.317 331.764ZM131.855 349.731C132.405 350.426 133.061 350.842 133.821 350.978C134.587 351.067 135.224 350.91 135.732 350.508C136.239 350.106 136.615 349.482 136.858 348.637L129.683 339.581C129.206 340.351 128.857 340.953 128.637 341.389C128.443 341.803 128.297 342.332 128.198 342.975C128.011 344.167 128.543 345.551 129.791 347.127L131.855 349.731ZM147.077 343.41L131.361 323.575C130.79 322.854 130.268 322.441 129.794 322.338C129.3 322.208 128.759 322.376 128.171 322.841L127.282 321.719C129.316 317.151 131.06 312.986 132.515 309.224L134.172 309.999C134.011 310.344 133.848 310.907 133.685 311.689C133.5 312.444 133.406 313.149 133.403 313.804C133.406 315.454 133.916 316.92 134.932 318.202L137.63 321.608C139.26 318.012 140.302 316.034 140.756 315.675C141.611 314.997 142.849 314.886 144.471 315.341C146.092 315.795 147.411 316.664 148.427 317.946L157.761 329.727C158.925 331.197 160.268 331.546 161.788 330.776L162.487 331.658L160.056 337.563C159.278 337.788 158.423 337.835 157.492 337.703C156.54 337.544 155.873 337.224 155.493 336.743L146.285 325.122C144.211 322.504 142.555 321.403 141.318 321.817C140.737 322.017 139.952 322.508 138.964 323.291L149.346 336.395C150.637 338.024 151.915 338.512 153.18 337.858L153.878 338.739L151.641 344.23C150.863 344.456 150.008 344.502 149.077 344.37C148.125 344.211 147.458 343.891 147.077 343.41Z" fill="#302E2F"/>
<path d="M509.318 479.56L517.212 496.153L502.864 484.673L509.318 479.56ZM491.638 475.718L495.836 472.392L492.112 467.692L479.58 477.622L483.304 482.322L486.844 479.516L526.866 511.555L529.999 509.073L507.992 462.76L511.501 459.98L507.778 455.28L495.245 465.21L498.969 469.909L503.167 466.583L506.691 473.991L498.044 480.843L491.638 475.718Z" fill="#302E2F"/>
<path d="M247.654 356.59C247.654 356.59 223.221 456.544 265.254 509.594C277.635 525.219 300.343 527.844 315.963 515.468C329.866 504.452 333.454 485.274 325.359 470.173C333.421 482.223 346.153 504.42 344.123 521.941L386.567 488.312C369.044 486.284 350.344 468.815 340.461 458.207C353.313 469.539 372.802 470.432 386.702 459.419C402.326 447.04 404.964 424.334 392.583 408.708C350.546 355.661 247.654 356.59 247.654 356.59Z" fill="#302E2F"/>
<path d="M123.726 405.877C123.726 405.877 115.032 435.412 126.857 451.853C130.339 456.696 137.09 457.796 141.931 454.315C146.24 451.216 147.579 445.534 145.37 440.907C147.612 444.621 151.108 451.433 150.258 456.642L163.412 447.181C158.203 446.331 152.857 440.849 150.05 437.541C153.734 441.107 159.547 441.645 163.855 438.547C168.697 435.065 169.801 428.315 166.318 423.472C154.493 407.032 123.726 405.877 123.726 405.877Z" fill="#302E2F"/>
<path d="M486.464 459.224C486.464 459.224 455.678 459.502 443.101 443.629C439.396 438.954 440.186 432.16 444.859 428.457C449.019 425.16 454.851 425.428 458.696 428.819C455.738 425.646 450.143 420.418 444.9 419.811L457.6 409.749C456.992 414.992 460.801 421.634 463.215 425.238C460.793 420.719 461.866 414.981 466.026 411.686C470.7 407.982 477.495 408.767 481.199 413.443C493.775 429.317 486.464 459.224 486.464 459.224Z" fill="#302E2F"/>
<g filter="url(#filter0_d_167_2601)">
<path d="M455.154 88.2977C461.187 73.1403 479.701 67.3626 493.234 76.4727L507.431 86.0293C512.863 89.6856 516.686 95.2854 518.113 101.676L608.944 508.375C611.996 522.041 603.493 535.623 589.865 538.847L291.002 609.55C270.857 614.316 253.707 594.377 261.363 575.143C333.988 392.694 380.984 274.628 455.154 88.2977Z" fill="#CE7B39"/>
<rect x="153.825" y="143.096" width="351.766" height="470.727" rx="25.583" transform="rotate(-12.5896 153.825 143.096)" fill="#EDB465"/>
<path d="M191.489 194.924L184.732 164.672C184.673 164.406 186.626 162.995 190.593 160.437C194.55 157.842 196.852 156.472 197.496 156.328C198.14 156.184 199.281 156.746 200.917 158.012C202.591 159.27 203.568 160.525 203.847 161.776L210.985 193.735C211.052 194.038 209.183 195.47 205.377 198.032C201.6 200.547 199.238 201.91 198.29 202.122C197.381 202.325 196.137 201.747 194.56 200.388C193.02 199.02 191.997 197.199 191.489 194.924ZM201.899 195.823C202.619 195.663 203.291 195.194 203.913 194.418L197.627 166.27C197 163.464 195.72 162.277 193.787 162.709C193.028 162.878 192.353 163.328 191.759 164.057L198.059 192.263C198.685 195.068 199.965 196.255 201.899 195.823ZM224.526 162.232C224.716 162.19 225.257 162.387 226.151 162.824C227.036 163.224 227.977 163.869 228.972 164.762C229.959 165.616 230.562 166.536 230.782 167.522L232.916 177.075C233.068 177.757 232.25 178.816 230.461 180.25C228.672 181.685 226.901 182.936 225.15 184.004C223.428 185.025 222.491 185.553 222.339 185.587C222.991 188.506 224.663 190.023 227.356 190.138C228.674 190.162 230.206 189.979 231.95 189.59L232.318 191.239C226.566 194.712 223.482 196.496 223.065 196.589C221.928 196.843 220.594 196.305 219.063 194.975C217.523 193.608 216.512 191.843 216.03 189.682L211.762 170.575C211.703 170.31 213.657 168.898 217.623 166.341C221.581 163.746 223.882 162.376 224.526 162.232ZM224.555 171.718C224.318 170.657 223.873 169.821 223.219 169.211C222.557 168.563 221.847 168.323 221.089 168.492C220.33 168.662 219.56 169.132 218.777 169.904L221.711 183.04C224.911 181.331 226.16 178.902 225.457 175.756L224.555 171.718ZM241.127 188.495L236.821 169.218C236.542 167.967 236.035 166.945 235.301 166.154C234.567 165.363 233.802 165.056 233.006 165.234L232.727 163.983C232.984 163.886 234.791 162.268 238.15 159.13C238.433 159.146 238.78 159.188 239.193 159.255C239.598 159.284 240.171 159.534 240.913 160.005C241.693 160.468 242.172 161.097 242.35 161.893C242.552 161.729 243.116 161.225 244.042 160.381C246.492 158.162 248.039 156.981 248.683 156.837C249.366 156.684 250.181 156.861 251.13 157.365C252.116 157.861 252.924 158.537 253.552 159.391C253.62 159.336 254.308 158.765 255.617 157.676C258.236 155.5 259.848 154.343 260.455 154.208C261.668 153.937 262.983 154.479 264.4 155.834C265.817 157.189 266.674 158.53 266.97 159.857L270.818 177.088C271.284 179.173 272.488 180.198 274.43 180.162L274.71 181.413L269.286 186.266C268.376 186.111 267.476 185.735 266.586 185.138C265.688 184.502 265.163 183.844 265.01 183.161L261.264 166.386C260.714 163.921 260.027 162.363 259.205 161.711C258.374 161.021 257.447 160.79 256.423 161.019L254.85 161.728L258.876 179.755C259.342 181.84 260.546 182.865 262.488 182.829L262.768 184.08L257.344 188.933C256.434 188.778 255.534 188.402 254.644 187.805C253.746 187.169 253.221 186.511 253.069 185.828L249.385 169.337C248.412 164.977 246.882 163.03 244.797 163.496L242.883 164.282L246.935 182.422C247.451 184.735 248.52 185.869 250.142 185.825L250.422 187.076L245.402 191.6C244.492 191.445 243.592 191.069 242.702 190.472C241.804 189.837 241.279 189.178 241.127 188.495Z" fill="#302E2F"/>
<path d="M537.831 467.42L537.716 485.795L529.795 469.215L537.831 467.42ZM523.585 456.266L528.813 455.099L527.506 449.247L511.901 452.732L513.208 458.584L517.616 457.599L539.704 503.864L543.605 502.993L543.949 451.718L548.319 450.742L547.012 444.89L531.407 448.375L532.714 454.227L537.942 453.06L537.89 461.263L527.122 463.668L523.585 456.266Z" fill="#302E2F"/>
<g clip-path="url(#clip0_167_2601)">
<path fill-rule="evenodd" clip-rule="evenodd" d="M492.099 289.489L456.513 347.668L333.978 273.131L428.073 249.991L492.099 289.489Z" fill="#CE7B39"/>
<path fill-rule="evenodd" clip-rule="evenodd" d="M330.282 279.855L259.547 396.097L353.204 373.065L388.815 314.845L330.282 279.855Z" fill="#302E2F"/>
</g>
<path d="M217.248 224.61C217.248 224.61 197.649 248.354 202.063 268.119C203.363 273.94 209.138 277.605 214.958 276.305C220.138 275.148 223.602 270.449 223.388 265.327C223.991 269.623 224.53 277.261 221.701 281.716L237.514 278.185C233.058 275.356 230.295 268.215 229.015 264.07C231.001 268.797 236.135 271.575 241.313 270.419C247.134 269.119 250.802 263.346 249.502 257.524C245.086 237.759 217.248 224.61 217.248 224.61Z" fill="#302E2F"/>
<path d="M526.617 439.05C526.617 439.05 498.779 425.901 494.364 406.136C493.064 400.314 496.732 394.541 502.551 393.241C507.731 392.085 512.865 394.863 514.851 399.59C513.569 395.446 510.807 388.304 506.351 385.476L522.165 381.944C519.335 386.4 519.874 394.038 520.478 398.333C520.264 393.211 523.728 388.512 528.907 387.355C534.728 386.055 540.503 389.72 541.803 395.541C546.216 415.306 526.617 439.05 526.617 439.05Z" fill="#302E2F"/>
</g>
<g filter="url(#filter1_d_167_2601)">
<path d="M747.172 48.8574C757.287 36.0574 776.679 35.8136 787.044 48.4124L797.916 61.6287C802.075 66.6852 804.138 73.1442 803.679 79.6757L774.451 495.368C773.469 509.337 761.438 519.921 747.458 519.114L440.855 501.427C420.188 500.235 409.454 476.226 422.289 459.984C544.042 305.91 622.83 206.208 747.172 48.8574Z" fill="#CE7B39"/>
<path d="M420.264 485.533C413.294 478.888 412.105 469.358 412.381 465.423L451.419 493.814C443.938 493.823 427.234 492.178 420.264 485.533Z" fill="#CE7B39"/>
<rect x="442.752" y="15.2246" width="351.766" height="470.727" rx="25.583" transform="rotate(4.02186 442.752 15.2246)" fill="#EDB465"/>
<path d="M463.762 83.871L467.272 50.123C467.302 49.827 469.821 49.0416 474.827 47.7668C479.837 46.4496 482.701 45.8285 483.42 45.9032C484.139 45.978 485.128 46.9571 486.385 48.8406C487.685 50.7284 488.262 52.3701 488.117 53.7657L484.409 89.4168C484.374 89.7551 481.936 90.5916 477.095 91.9263C472.301 93.2231 469.375 93.8166 468.318 93.7066C467.303 93.601 466.213 92.5687 465.049 90.6094C463.927 88.6546 463.498 86.4084 463.762 83.871ZM474.253 88.4247C475.057 88.5082 475.917 88.2557 476.833 87.667L480.098 56.2661C480.424 53.1366 479.508 51.4597 477.351 51.2354C476.505 51.1475 475.648 51.3789 474.778 51.9297L471.506 83.3939C471.181 86.5234 472.096 88.2004 474.253 88.4247ZM509.42 61.4316C509.632 61.4536 510.125 61.8469 510.901 62.6115C511.681 63.3338 512.432 64.3311 513.155 65.6032C513.882 66.833 514.188 67.9977 514.074 69.0972L512.965 79.7545C512.886 80.5157 511.669 81.3295 509.313 82.196C506.957 83.0625 504.685 83.7452 502.495 84.2442C500.353 84.7054 499.197 84.9271 499.028 84.9096C498.689 88.1659 499.897 90.3221 502.651 91.378C504.012 91.8615 505.664 92.2043 507.61 92.4067L507.419 94.2463C500.241 95.851 496.42 96.6291 495.954 96.5808C494.686 96.4488 493.488 95.4266 492.362 93.514C491.24 91.5592 490.804 89.3765 491.055 86.9659L493.272 65.6514C493.302 65.3554 495.821 64.57 500.827 63.2951C505.837 61.978 508.702 61.3568 509.42 61.4316ZM506.151 71.287C506.274 70.1029 506.103 69.0805 505.637 68.2198C505.175 67.3168 504.521 66.8213 503.675 66.7334C502.829 66.6454 501.866 66.8658 500.785 67.3946L499.261 82.0483C503.177 81.3869 505.318 79.3011 505.683 75.791L506.151 71.287ZM517.515 94.4627L519.751 72.9579C519.896 71.5623 519.726 70.3262 519.239 69.2497C518.753 68.1731 518.065 67.5887 517.177 67.4963L517.322 66.1007C517.623 66.0892 520.062 65.0391 524.639 62.9502C524.927 63.0656 525.273 63.2298 525.678 63.443C526.088 63.6138 526.596 64.0728 527.202 64.8198C527.851 65.5712 528.129 66.391 528.036 67.2791C528.303 67.1786 529.064 66.8516 530.319 66.2981C533.633 64.8474 535.649 64.1594 536.368 64.2341C537.13 64.3133 537.915 64.7797 538.724 65.6333C539.575 66.4913 540.178 67.4731 540.533 68.5787C540.622 68.5452 541.535 68.1914 543.273 67.5171C546.747 66.1685 548.823 65.5294 549.5 65.5998C550.853 65.7405 552.029 66.7606 553.029 68.6599C554.028 70.5593 554.451 72.249 554.297 73.7292L552.298 92.9503C552.056 95.2763 552.949 96.7585 554.978 97.3969L554.832 98.7925L547.515 101.943C546.625 101.466 545.821 100.762 545.106 99.8329C544.395 98.8612 544.079 97.9948 544.158 97.2335L546.104 78.5199C546.39 75.771 546.22 73.9151 545.593 72.9523C544.971 71.9471 544.089 71.3851 542.947 71.2664L541.068 71.4557L538.976 91.5649C538.735 93.8909 539.628 95.3731 541.656 96.0115L541.511 97.4071L534.194 100.558C533.303 100.08 532.5 99.3768 531.784 98.4475C531.073 97.4758 530.757 96.6093 530.836 95.8481L532.75 77.4517C533.255 72.5882 532.345 70.0356 530.019 69.7937L527.759 69.9434L525.655 90.1795C525.387 92.7592 526.102 94.3084 527.801 94.8271L527.655 96.2226L520.872 99.1722C519.982 98.6948 519.178 97.9914 518.463 97.0621C517.752 96.0904 517.436 95.2239 517.515 94.4627Z" fill="#302E2F"/>
<path d="M726.257 419.546C721.985 419.512 719.13 421.743 717.692 426.237C717.478 425.474 717.183 424.731 716.807 424.01C714.919 420.458 711.716 418.523 707.197 418.206C705.708 418.101 704.339 418.192 703.09 418.478C698.85 419.515 696.563 422.4 696.23 427.132C695.794 434.1 702.398 438.198 716.043 439.425L715.679 444.608C715.57 446.15 715.371 447.472 715.079 448.573C714.335 451.566 712.713 452.975 710.214 452.8C709.47 452.747 708.815 452.568 708.248 452.261C707.382 451.665 706.731 450.284 706.296 448.116C706.135 447.357 706.013 446.814 705.929 446.487C705.289 444.198 703.826 442.973 701.539 442.813C701.008 442.775 700.497 442.82 700.007 442.945C698.003 443.339 696.928 444.572 696.782 446.646C696.718 447.55 696.898 448.417 697.32 449.248C698.96 452.516 703.396 454.404 710.627 454.912C712.487 455.043 714.228 454.978 715.85 454.718C722.125 453.61 725.497 449.733 725.964 443.087L727.136 426.42C727.315 423.868 727.994 422.58 729.171 422.556C730.709 422.717 731.509 424.643 731.57 428.334L733.649 428.4C733.605 426.741 733.461 425.368 733.217 424.283C732.458 421.398 730.138 419.819 726.257 419.546ZM711.103 421.926C711.475 421.952 711.894 422.062 712.362 422.255C714.535 423.263 715.996 425.663 716.744 429.456L716.2 437.192C713.815 436.917 711.869 436.486 710.361 435.899C707.564 434.634 706.29 432.247 706.536 428.738C706.915 424.116 708.437 421.846 711.103 421.926Z" fill="#302E2F"/>
<mask id="path-21-inside-1_167_2601" fill="white">
<path fill-rule="evenodd" clip-rule="evenodd" d="M532.488 216.705L487.312 210.593L480.779 258.877L525.955 264.989L532.488 216.705ZM492.535 241.749C493.96 231.217 508.936 223.233 508.936 223.233C508.936 223.233 521.251 234.909 519.827 245.442C519.407 248.544 516.351 250.691 513.002 250.238C510.023 249.835 507.819 247.508 507.664 244.815C507.555 247.09 507.662 251.114 509.495 253.339L500.397 252.108C502.755 250.451 503.927 246.599 504.427 244.377C503.562 246.932 500.82 248.59 497.84 248.187C494.491 247.734 492.115 244.852 492.535 241.749Z"/>
</mask>
<path fill-rule="evenodd" clip-rule="evenodd" d="M532.488 216.705L487.312 210.593L480.779 258.877L525.955 264.989L532.488 216.705ZM492.535 241.749C493.96 231.217 508.936 223.233 508.936 223.233C508.936 223.233 521.251 234.909 519.827 245.442C519.407 248.544 516.351 250.691 513.002 250.238C510.023 249.835 507.819 247.508 507.664 244.815C507.555 247.09 507.662 251.114 509.495 253.339L500.397 252.108C502.755 250.451 503.927 246.599 504.427 244.377C503.562 246.932 500.82 248.59 497.84 248.187C494.491 247.734 492.115 244.852 492.535 241.749Z" fill="#302E2F"/>
<path d="M487.312 210.593L487.363 210.214L486.984 210.162L486.932 210.542L487.312 210.593ZM532.488 216.705L532.868 216.757L532.919 216.377L532.54 216.326L532.488 216.705ZM480.779 258.877L480.4 258.826L480.348 259.205L480.728 259.257L480.779 258.877ZM525.955 264.989L525.904 265.369L526.284 265.42L526.335 265.041L525.955 264.989ZM508.936 223.233L509.199 222.955L508.999 222.765L508.755 222.895L508.936 223.233ZM519.827 245.442L520.207 245.493L520.207 245.493L519.827 245.442ZM507.664 244.815L508.047 244.793L507.281 244.796L507.664 244.815ZM509.495 253.339L509.443 253.718L510.412 253.849L509.79 253.095L509.495 253.339ZM500.397 252.108L500.177 251.794L499.377 252.356L500.346 252.488L500.397 252.108ZM504.427 244.377L504.801 244.461L504.064 244.254L504.427 244.377ZM487.261 210.973L532.437 217.085L532.54 216.326L487.363 210.214L487.261 210.973ZM481.159 258.928L487.692 210.645L486.932 210.542L480.4 258.826L481.159 258.928ZM526.007 264.61L480.831 258.497L480.728 259.257L525.904 265.369L526.007 264.61ZM532.108 216.654L525.576 264.938L526.335 265.041L532.868 216.757L532.108 216.654ZM508.936 223.233C508.755 222.895 508.755 222.895 508.755 222.895C508.755 222.895 508.755 222.895 508.754 222.896C508.754 222.896 508.753 222.896 508.752 222.897C508.75 222.898 508.747 222.9 508.743 222.902C508.736 222.906 508.724 222.912 508.71 222.92C508.68 222.936 508.637 222.959 508.581 222.99C508.469 223.053 508.306 223.145 508.097 223.265C507.681 223.507 507.085 223.863 506.367 224.323C504.931 225.242 503 226.579 501.023 228.249C497.087 231.573 492.888 236.282 492.155 241.698L492.915 241.801C493.607 236.684 497.609 232.135 501.517 228.834C503.462 227.192 505.364 225.875 506.78 224.968C507.488 224.515 508.074 224.165 508.482 223.928C508.685 223.81 508.845 223.72 508.953 223.66C509.007 223.63 509.048 223.608 509.076 223.593C509.089 223.586 509.1 223.58 509.106 223.576C509.11 223.575 509.112 223.573 509.114 223.572C509.115 223.572 509.115 223.572 509.116 223.571C509.116 223.571 509.116 223.571 509.116 223.571C509.116 223.571 509.116 223.571 508.936 223.233ZM520.207 245.493C520.939 240.077 518.143 234.422 515.232 230.171C513.769 228.036 512.263 226.234 511.123 224.966C510.552 224.332 510.073 223.83 509.735 223.487C509.567 223.315 509.433 223.183 509.342 223.093C509.296 223.048 509.261 223.014 509.237 222.991C509.225 222.98 509.216 222.971 509.209 222.965C509.206 222.962 509.204 222.959 509.202 222.958C509.201 222.957 509.201 222.956 509.2 222.956C509.2 222.956 509.2 222.956 509.2 222.955C509.199 222.955 509.199 222.955 508.936 223.233C508.672 223.511 508.672 223.511 508.672 223.511C508.672 223.511 508.672 223.511 508.672 223.511C508.673 223.512 508.673 223.512 508.674 223.513C508.675 223.514 508.677 223.516 508.68 223.519C508.685 223.524 508.694 223.532 508.705 223.543C508.728 223.565 508.761 223.597 508.805 223.64C508.894 223.727 509.024 223.856 509.189 224.024C509.519 224.36 509.991 224.853 510.553 225.478C511.677 226.729 513.161 228.504 514.599 230.604C517.49 234.825 520.139 240.274 519.448 245.391L520.207 245.493ZM512.951 250.618C516.481 251.095 519.755 248.832 520.207 245.493L519.448 245.391C519.06 248.256 516.221 250.287 513.053 249.858L512.951 250.618ZM507.282 244.837C507.448 247.729 509.806 250.192 512.951 250.618L513.053 249.858C510.239 249.478 508.19 247.287 508.047 244.793L507.282 244.837ZM509.79 253.095C508.938 252.061 508.468 250.579 508.23 249.037C507.993 247.504 507.993 245.957 508.047 244.833L507.281 244.796C507.226 245.948 507.225 247.551 507.472 249.154C507.719 250.75 508.218 252.392 509.199 253.582L509.79 253.095ZM500.346 252.488L509.443 253.718L509.546 252.959L500.449 251.728L500.346 252.488ZM504.053 244.293C503.806 245.39 503.395 246.882 502.759 248.297C502.12 249.72 501.273 251.024 500.177 251.794L500.618 252.421C501.879 251.535 502.797 250.084 503.458 248.611C504.123 247.131 504.548 245.586 504.801 244.461L504.053 244.293ZM497.788 248.566C500.933 248.992 503.861 247.244 504.79 244.5L504.064 244.254C503.264 246.62 500.706 248.188 497.891 247.807L497.788 248.566ZM492.155 241.698C491.704 245.037 494.258 248.089 497.788 248.566L497.891 247.807C494.725 247.379 492.527 244.666 492.915 241.801L492.155 241.698Z" fill="#302E2F" mask="url(#path-21-inside-1_167_2601)"/>
<mask id="path-23-inside-2_167_2601" fill="white">
<path fill-rule="evenodd" clip-rule="evenodd" d="M525.518 268.219L480.342 262.106L473.81 310.39L518.986 316.502L525.518 268.219ZM485.565 293.263C486.99 282.73 501.966 274.746 501.966 274.746C501.966 274.746 514.282 286.423 512.857 296.955C512.438 300.057 509.381 302.204 506.032 301.751C503.053 301.348 500.849 299.021 500.694 296.328C500.585 298.603 500.692 302.628 502.525 304.852L493.427 303.621C495.785 301.964 496.958 298.113 497.457 295.89C496.593 298.445 493.85 300.103 490.87 299.7C487.522 299.247 485.146 296.365 485.565 293.263Z"/>
</mask>
<path fill-rule="evenodd" clip-rule="evenodd" d="M525.518 268.219L480.342 262.106L473.81 310.39L518.986 316.502L525.518 268.219ZM485.565 293.263C486.99 282.73 501.966 274.746 501.966 274.746C501.966 274.746 514.282 286.423 512.857 296.955C512.438 300.057 509.381 302.204 506.032 301.751C503.053 301.348 500.849 299.021 500.694 296.328C500.585 298.603 500.692 302.628 502.525 304.852L493.427 303.621C495.785 301.964 496.958 298.113 497.457 295.89C496.593 298.445 493.85 300.103 490.87 299.7C487.522 299.247 485.146 296.365 485.565 293.263Z" fill="#302E2F"/>
<path d="M480.342 262.106L480.394 261.727L480.014 261.675L479.963 262.055L480.342 262.106ZM525.518 268.219L525.898 268.27L525.949 267.89L525.57 267.839L525.518 268.219ZM473.81 310.39L473.43 310.339L473.379 310.719L473.758 310.77L473.81 310.39ZM518.986 316.502L518.934 316.882L519.314 316.933L519.365 316.554L518.986 316.502ZM501.966 274.746L502.229 274.468L502.029 274.279L501.786 274.408L501.966 274.746ZM512.857 296.955L513.237 297.007L513.237 297.007L512.857 296.955ZM500.694 296.328L501.077 296.306L500.312 296.31L500.694 296.328ZM502.525 304.852L502.474 305.232L503.442 305.363L502.821 304.608L502.525 304.852ZM493.427 303.621L493.207 303.308L492.407 303.87L493.376 304.001L493.427 303.621ZM497.457 295.89L497.831 295.974L497.094 295.767L497.457 295.89ZM480.291 262.486L525.467 268.598L525.57 267.839L480.394 261.727L480.291 262.486ZM474.189 310.442L480.722 262.158L479.963 262.055L473.43 310.339L474.189 310.442ZM519.037 316.123L473.861 310.011L473.758 310.77L518.934 316.882L519.037 316.123ZM525.139 268.167L518.606 316.451L519.365 316.554L525.898 268.27L525.139 268.167ZM501.966 274.746C501.786 274.408 501.786 274.408 501.785 274.409C501.785 274.409 501.785 274.409 501.785 274.409C501.784 274.409 501.783 274.41 501.782 274.41C501.78 274.411 501.777 274.413 501.773 274.415C501.766 274.419 501.755 274.425 501.74 274.433C501.711 274.449 501.668 274.473 501.612 274.504C501.5 274.566 501.336 274.658 501.128 274.779C500.711 275.02 500.116 275.376 499.397 275.836C497.961 276.755 496.03 278.092 494.053 279.762C490.117 283.086 485.918 287.796 485.186 293.211L485.945 293.314C486.637 288.197 490.639 283.649 494.547 280.348C496.492 278.705 498.394 277.388 499.81 276.481C500.518 276.028 501.104 275.678 501.512 275.442C501.716 275.323 501.875 275.234 501.983 275.174C502.037 275.144 502.078 275.121 502.106 275.106C502.12 275.099 502.13 275.093 502.137 275.09C502.14 275.088 502.142 275.087 502.144 275.086C502.145 275.085 502.145 275.085 502.146 275.085C502.146 275.085 502.146 275.085 502.146 275.085C502.146 275.085 502.146 275.085 501.966 274.746ZM513.237 297.007C513.969 291.591 511.173 285.935 508.262 281.685C506.799 279.549 505.293 277.747 504.153 276.479C503.582 275.845 503.103 275.344 502.766 275C502.597 274.829 502.464 274.696 502.372 274.607C502.326 274.562 502.291 274.528 502.267 274.504C502.255 274.493 502.246 274.484 502.24 274.478C502.236 274.475 502.234 274.473 502.232 274.471C502.231 274.47 502.231 274.47 502.23 274.469C502.23 274.469 502.23 274.469 502.23 274.469C502.23 274.469 502.229 274.468 501.966 274.746C501.702 275.025 501.702 275.024 501.702 275.025C501.702 275.025 501.702 275.025 501.703 275.025C501.703 275.025 501.703 275.026 501.704 275.026C501.705 275.027 501.707 275.029 501.71 275.032C501.716 275.037 501.724 275.045 501.735 275.056C501.758 275.078 501.792 275.111 501.836 275.154C501.924 275.24 502.054 275.369 502.219 275.537C502.55 275.874 503.021 276.367 503.583 276.992C504.708 278.242 506.191 280.017 507.63 282.118C510.52 286.338 513.17 291.787 512.478 296.904L513.237 297.007ZM505.981 302.131C509.511 302.609 512.785 300.345 513.237 297.007L512.478 296.904C512.09 299.769 509.251 301.8 506.084 301.372L505.981 302.131ZM500.312 296.35C500.478 299.243 502.836 301.706 505.981 302.131L506.084 301.372C503.269 300.991 501.22 298.8 501.077 296.306L500.312 296.35ZM502.821 304.608C501.968 303.574 501.498 302.092 501.26 300.551C501.023 299.017 501.023 297.47 501.077 296.347L500.312 296.31C500.256 297.461 500.255 299.064 500.502 300.668C500.749 302.263 501.248 303.906 502.229 305.096L502.821 304.608ZM493.376 304.001L502.474 305.232L502.576 304.472L493.479 303.242L493.376 304.001ZM497.083 295.806C496.837 296.904 496.425 298.395 495.79 299.811C495.151 301.234 494.303 302.537 493.207 303.308L493.648 303.935C494.909 303.048 495.827 301.597 496.489 300.125C497.153 298.645 497.578 297.099 497.831 295.974L497.083 295.806ZM490.818 300.08C493.964 300.505 496.891 298.757 497.82 296.013L497.094 295.767C496.294 298.133 493.736 299.701 490.921 299.32L490.818 300.08ZM485.186 293.211C484.734 296.55 487.289 299.602 490.818 300.08L490.921 299.32C487.755 298.892 485.557 296.18 485.945 293.314L485.186 293.211Z" fill="#302E2F" mask="url(#path-23-inside-2_167_2601)"/>
<rect x="536.537" y="217.339" width="13.7225" height="48.5934" transform="rotate(7.70517 536.537 217.339)" fill="#302E2F" stroke="#302E2F" stroke-width="0.129274"/>
<rect x="534.834" y="229.926" width="12.701" height="40.374" transform="rotate(-82.2948 534.834 229.926)" fill="#302E2F" stroke="#302E2F" stroke-width="0.129274"/>
<rect x="530.021" y="265.494" width="12.701" height="40.374" transform="rotate(-82.2948 530.021 265.494)" fill="#302E2F" stroke="#302E2F" stroke-width="0.129274"/>
<rect x="532.417" y="247.791" width="12.701" height="40.374" transform="rotate(-82.2948 532.417 247.791)" fill="#302E2F" stroke="#302E2F" stroke-width="0.129274"/>
<rect x="529.57" y="268.842" width="13.7225" height="48.5934" transform="rotate(7.70517 529.57 268.842)" fill="#302E2F" stroke="#302E2F" stroke-width="0.129274"/>
<rect x="527.867" y="281.428" width="12.701" height="40.374" transform="rotate(-82.2948 527.867 281.428)" fill="#302E2F" stroke="#302E2F" stroke-width="0.129274"/>
<rect x="523.054" y="316.996" width="12.701" height="40.374" transform="rotate(-82.2948 523.054 316.996)" fill="#302E2F" stroke="#302E2F" stroke-width="0.129274"/>
<rect x="525.45" y="299.293" width="12.701" height="40.374" transform="rotate(-82.2948 525.45 299.293)" fill="#302E2F" stroke="#302E2F" stroke-width="0.129274"/>
<rect x="580.672" y="223.311" width="13.7225" height="48.5934" transform="rotate(7.70517 580.672 223.311)" fill="#302E2F" stroke="#302E2F" stroke-width="0.129274"/>
<rect x="620.809" y="228.742" width="13.7225" height="48.5934" transform="rotate(7.70517 620.809 228.742)" fill="#302E2F" stroke="#302E2F" stroke-width="0.129274"/>
<rect x="600.827" y="226.038" width="13.7225" height="48.5934" transform="rotate(7.70517 600.827 226.038)" fill="#302E2F" stroke="#302E2F" stroke-width="0.129274"/>
<rect x="592.696" y="237.755" width="12.701" height="40.374" transform="rotate(-82.2948 592.696 237.755)" fill="#302E2F" stroke="#302E2F" stroke-width="0.129274"/>
<rect x="573.704" y="274.813" width="13.7225" height="48.5934" transform="rotate(7.70517 573.704 274.813)" fill="#302E2F" stroke="#302E2F" stroke-width="0.129274"/>
<rect x="613.841" y="280.244" width="13.7225" height="48.5934" transform="rotate(7.70517 613.841 280.244)" fill="#302E2F" stroke="#302E2F" stroke-width="0.129274"/>
<rect x="593.86" y="277.54" width="13.7225" height="48.5934" transform="rotate(7.70517 593.86 277.54)" fill="#302E2F" stroke="#302E2F" stroke-width="0.129274"/>
<rect x="585.728" y="289.257" width="12.701" height="40.374" transform="rotate(-82.2948 585.728 289.257)" fill="#302E2F" stroke="#302E2F" stroke-width="0.129274"/>
<path d="M542.248 207.146L551.123 184.8C553.072 179.893 558.113 176.945 563.346 177.653L678.495 193.233C685.728 194.211 690.229 201.595 687.784 208.472L632.887 362.901C631.066 368.024 625.904 371.17 620.516 370.441L504.508 354.745C496.811 353.704 492.341 345.486 495.65 338.459L502.874 323.117" stroke="#302E2F" stroke-width="4.5246"/>
<path d="M480.225 111.468C480.225 111.468 454.656 128.618 453.235 148.82C452.817 154.771 457.304 159.933 463.252 160.351C468.547 160.723 473.209 157.211 474.469 152.241C473.818 156.53 472.151 164.003 468.167 167.464L484.329 168.601C480.868 164.616 480.262 156.983 480.22 152.646C480.772 157.743 484.897 161.873 490.19 162.245C496.14 162.664 501.305 158.18 501.723 152.229C503.142 132.027 480.225 111.468 480.225 111.468Z" fill="#302E2F"/>
<path d="M715.379 405.403C715.379 405.403 692.461 384.844 693.881 364.642C694.3 358.691 699.465 354.208 705.413 354.626C710.708 354.998 714.833 359.129 715.384 364.225C715.34 359.888 714.735 352.255 711.274 348.27L727.437 349.407C723.452 352.868 721.785 360.341 721.135 364.63C722.395 359.66 727.058 356.148 732.351 356.52C738.301 356.938 742.788 362.101 742.369 368.051C740.947 388.253 715.379 405.403 715.379 405.403Z" fill="#302E2F"/>
</g>
<g filter="url(#filter2_d_167_2601)">
<path d="M930.669 230.816C943.033 220.173 962.119 223.62 969.899 237.96L978.06 253.002C981.182 258.757 981.979 265.491 980.286 271.816L872.561 674.369C868.941 687.897 855.117 696 841.545 692.55L543.897 616.895C523.833 611.795 517.86 586.183 533.549 572.677C682.373 444.562 778.68 361.657 930.669 230.816Z" fill="#CE7B39"/>
<rect x="638.196" y="139.921" width="351.766" height="470.727" rx="25.583" transform="rotate(14.9816 638.196 139.921)" fill="#EDB465"/>
<path d="M649.721 216.757L658.759 181.944L661.307 180.502L657.168 179.428C654.497 178.735 652.799 179.065 652.073 180.419L650.628 180.044L648.283 173.686C649.024 172.99 649.896 172.422 650.899 171.981C651.901 171.54 652.796 171.422 653.585 171.627L670.926 176.128C673.597 176.822 675.295 176.491 676.021 175.137L677.466 175.512L679.811 181.871C679.07 182.566 678.198 183.134 677.195 183.575C676.193 184.016 675.298 184.134 674.509 183.93L667.153 182.02L658.49 215.388C658.07 217.008 657.944 218.214 658.112 219.006C658.28 219.797 658.912 220.335 660.007 220.619L659.478 222.656L644.546 224.809L644.041 222.434C645.004 222.684 646.072 222.354 647.243 221.443C648.315 220.552 649.142 218.991 649.721 216.757ZM669.426 220.05L677.219 190.032C677.639 188.411 677.765 187.205 677.597 186.414C677.428 185.622 676.797 185.084 675.702 184.8L676.231 182.764L691.163 180.611L691.668 182.985C690.704 182.735 689.637 183.066 688.466 183.977C687.393 184.867 686.567 186.429 685.987 188.662L677.973 219.534C677.666 220.717 677.642 221.622 677.899 222.249C678.168 222.833 678.785 223.251 679.748 223.501L679.27 225.34C669.369 226.929 664.397 227.719 664.353 227.707L663.848 225.332C664.198 225.423 664.654 225.378 665.215 225.197C665.82 225.027 666.349 224.79 666.802 224.487C667.994 223.674 668.869 222.196 669.426 220.05Z" fill="#302E2F"/>
<mask id="path-47-inside-3_167_2601" fill="white">
<path fill-rule="evenodd" clip-rule="evenodd" d="M718.893 345.935L676.844 333.264L662.223 381.782L704.271 394.454L718.893 345.935ZM676.416 365.911C679.605 355.327 695.283 349.277 695.283 349.277C695.283 349.277 705.007 362.982 701.818 373.566C700.879 376.683 697.589 378.448 694.472 377.509C691.699 376.673 690.001 373.977 690.32 371.197C689.821 373.512 689.224 377.648 690.587 380.186L682.119 377.635C684.657 376.272 686.445 372.494 687.308 370.289C686.039 372.783 683.133 374.092 680.359 373.256C677.243 372.317 675.476 369.028 676.416 365.911Z"/>
</mask>
<path fill-rule="evenodd" clip-rule="evenodd" d="M718.893 345.935L676.844 333.264L662.223 381.782L704.271 394.454L718.893 345.935ZM676.416 365.911C679.605 355.327 695.283 349.277 695.283 349.277C695.283 349.277 705.007 362.982 701.818 373.566C700.879 376.683 697.589 378.448 694.472 377.509C691.699 376.673 690.001 373.977 690.32 371.197C689.821 373.512 689.224 377.648 690.587 380.186L682.119 377.635C684.657 376.272 686.445 372.494 687.308 370.289C686.039 372.783 683.133 374.092 680.359 373.256C677.243 372.317 675.476 369.028 676.416 365.911Z" fill="#302E2F"/>
<path d="M676.844 333.264L676.989 332.784L676.509 332.64L676.365 333.119L676.844 333.264ZM718.893 345.935L719.372 346.08L719.516 345.6L719.037 345.456L718.893 345.935ZM662.223 381.782L661.743 381.638L661.599 382.117L662.078 382.262L662.223 381.782ZM704.271 394.454L704.127 394.933L704.606 395.078L704.75 394.598L704.271 394.454ZM695.283 349.277L695.691 348.987L695.466 348.67L695.103 348.81L695.283 349.277ZM701.818 373.566L702.298 373.71L702.298 373.71L701.818 373.566ZM690.32 371.197L690.818 371.255L689.831 371.092L690.32 371.197ZM690.587 380.186L690.442 380.666L691.599 381.014L691.028 379.949L690.587 380.186ZM682.119 377.635L681.882 377.193L680.817 377.765L681.975 378.114L682.119 377.635ZM687.308 370.289L687.774 370.472L686.861 370.062L687.308 370.289ZM676.7 333.743L718.748 346.415L719.037 345.456L676.989 332.784L676.7 333.743ZM662.702 381.927L677.324 333.408L676.365 333.119L661.743 381.638L662.702 381.927ZM704.415 393.975L662.367 381.303L662.078 382.262L704.127 394.933L704.415 393.975ZM718.413 345.791L703.792 394.31L704.75 394.598L719.372 346.08L718.413 345.791ZM695.283 349.277C695.103 348.81 695.103 348.81 695.102 348.81C695.102 348.81 695.102 348.81 695.102 348.81C695.101 348.81 695.1 348.811 695.099 348.811C695.097 348.812 695.094 348.813 695.089 348.815C695.081 348.818 695.069 348.823 695.054 348.829C695.023 348.841 694.977 348.859 694.918 348.883C694.8 348.931 694.627 349.003 694.406 349.097C693.965 349.286 693.333 349.567 692.566 349.937C691.032 350.676 688.953 351.774 686.771 353.206C682.429 356.057 677.584 360.299 675.937 365.766L676.895 366.055C678.437 360.939 683.026 356.863 687.32 354.043C689.456 352.641 691.495 351.564 693.001 350.838C693.753 350.476 694.371 350.201 694.8 350.018C695.014 349.926 695.181 349.857 695.294 349.811C695.351 349.788 695.394 349.771 695.422 349.76C695.436 349.754 695.447 349.75 695.454 349.747C695.457 349.746 695.46 349.745 695.461 349.745C695.462 349.744 695.463 349.744 695.463 349.744C695.463 349.744 695.463 349.744 695.463 349.744C695.463 349.744 695.463 349.744 695.283 349.277ZM702.298 373.71C703.945 368.243 702.25 362.031 700.207 357.255C699.18 354.856 698.053 352.792 697.183 351.328C696.748 350.596 696.376 350.013 696.113 349.612C695.981 349.411 695.877 349.256 695.805 349.151C695.768 349.098 695.741 349.058 695.721 349.03C695.712 349.016 695.705 349.006 695.699 348.999C695.697 348.995 695.695 348.992 695.694 348.99C695.693 348.989 695.692 348.989 695.692 348.988C695.692 348.988 695.692 348.988 695.691 348.987C695.691 348.987 695.691 348.987 695.283 349.277C694.875 349.566 694.875 349.566 694.875 349.566C694.875 349.566 694.875 349.567 694.875 349.567C694.875 349.567 694.875 349.567 694.876 349.568C694.877 349.569 694.878 349.572 694.881 349.575C694.885 349.581 694.891 349.59 694.9 349.603C694.918 349.628 694.944 349.666 694.978 349.716C695.047 349.816 695.148 349.966 695.276 350.161C695.532 350.551 695.896 351.121 696.322 351.839C697.176 353.276 698.281 355.3 699.286 357.649C701.308 362.373 702.881 368.305 701.339 373.422L702.298 373.71ZM694.328 377.988C697.709 379.007 701.278 377.093 702.298 373.71L701.339 373.421C700.479 376.274 697.469 377.889 694.617 377.03L694.328 377.988ZM689.823 371.14C689.476 374.156 691.318 377.081 694.328 377.988L694.617 377.03C692.08 376.265 690.525 373.799 690.818 371.255L689.823 371.14ZM691.028 379.949C690.408 378.795 690.215 377.23 690.255 375.621C690.296 374.023 690.563 372.444 690.81 371.303L689.831 371.092C689.578 372.265 689.297 373.912 689.255 375.595C689.213 377.267 689.403 379.04 690.146 380.423L691.028 379.949ZM681.975 378.114L690.442 380.666L690.731 379.707L682.263 377.155L681.975 378.114ZM686.841 370.107C686.416 371.194 685.767 372.658 684.917 374.012C684.062 375.376 683.037 376.573 681.882 377.193L682.356 378.076C683.739 377.333 684.877 375.96 685.765 374.544C686.66 373.117 687.336 371.59 687.774 370.472L686.841 370.107ZM680.215 373.735C683.225 374.642 686.377 373.222 687.754 370.516L686.861 370.062C685.7 372.345 683.041 373.541 680.504 372.777L680.215 373.735ZM675.937 365.766C674.917 369.148 676.834 372.716 680.215 373.735L680.504 372.777C677.652 371.917 676.036 368.908 676.895 366.055L675.937 365.766Z" fill="#302E2F" mask="url(#path-47-inside-3_167_2601)"/>
<mask id="path-49-inside-4_167_2601" fill="white">
<path fill-rule="evenodd" clip-rule="evenodd" d="M703.293 397.698L661.245 385.027L646.624 433.546L688.672 446.217L703.293 397.698ZM660.817 417.674C664.007 407.09 679.684 401.04 679.684 401.04C679.684 401.04 689.408 414.745 686.22 425.329C685.28 428.446 681.99 430.211 678.874 429.272C676.1 428.436 674.402 425.74 674.722 422.961C674.222 425.275 673.625 429.411 674.988 431.949L666.52 429.398C669.058 428.035 670.846 424.258 671.709 422.053C670.44 424.547 667.535 425.855 664.761 425.019C661.644 424.08 659.878 420.791 660.817 417.674Z"/>
</mask>
<path fill-rule="evenodd" clip-rule="evenodd" d="M703.293 397.698L661.245 385.027L646.624 433.546L688.672 446.217L703.293 397.698ZM660.817 417.674C664.007 407.09 679.684 401.04 679.684 401.04C679.684 401.04 689.408 414.745 686.22 425.329C685.28 428.446 681.99 430.211 678.874 429.272C676.1 428.436 674.402 425.74 674.722 422.961C674.222 425.275 673.625 429.411 674.988 431.949L666.52 429.398C669.058 428.035 670.846 424.258 671.709 422.053C670.44 424.547 667.535 425.855 664.761 425.019C661.644 424.08 659.878 420.791 660.817 417.674Z" fill="#302E2F"/>
<path d="M661.245 385.027L661.39 384.548L660.91 384.403L660.766 384.882L661.245 385.027ZM703.293 397.698L703.773 397.843L703.917 397.364L703.438 397.219L703.293 397.698ZM646.624 433.546L646.144 433.401L646 433.88L646.479 434.025L646.624 433.546ZM688.672 446.217L688.527 446.696L689.007 446.841L689.151 446.362L688.672 446.217ZM679.684 401.04L680.092 400.75L679.867 400.433L679.504 400.573L679.684 401.04ZM686.22 425.329L686.699 425.474L686.699 425.473L686.22 425.329ZM674.722 422.961L675.219 423.018L674.232 422.855L674.722 422.961ZM674.988 431.949L674.843 432.429L676.001 432.777L675.429 431.713L674.988 431.949ZM666.52 429.398L666.284 428.957L665.219 429.528L666.376 429.877L666.52 429.398ZM671.709 422.053L672.175 422.235L671.263 421.826L671.709 422.053ZM661.101 385.506L703.149 398.178L703.438 397.219L661.39 384.548L661.101 385.506ZM647.103 433.69L661.724 385.171L660.766 384.882L646.144 433.401L647.103 433.69ZM688.816 445.738L646.768 433.066L646.479 434.025L688.527 446.696L688.816 445.738ZM702.814 397.554L688.193 446.073L689.151 446.362L703.773 397.843L702.814 397.554ZM679.684 401.04C679.504 400.573 679.504 400.573 679.504 400.573C679.503 400.573 679.503 400.573 679.503 400.573C679.502 400.574 679.501 400.574 679.5 400.574C679.498 400.575 679.495 400.576 679.491 400.578C679.483 400.581 679.471 400.586 679.455 400.592C679.424 400.604 679.378 400.623 679.319 400.647C679.201 400.695 679.028 400.766 678.807 400.86C678.366 401.049 677.735 401.33 676.967 401.7C675.434 402.439 673.354 403.537 671.172 404.97C666.83 407.82 661.986 412.062 660.338 417.529L661.296 417.818C662.838 412.702 667.427 408.627 671.722 405.806C673.858 404.404 675.897 403.327 677.402 402.602C678.154 402.239 678.772 401.964 679.201 401.781C679.416 401.689 679.583 401.62 679.696 401.574C679.752 401.551 679.795 401.534 679.823 401.523C679.837 401.517 679.848 401.513 679.855 401.511C679.858 401.509 679.861 401.508 679.863 401.508C679.863 401.507 679.864 401.507 679.864 401.507C679.864 401.507 679.864 401.507 679.865 401.507C679.865 401.507 679.864 401.507 679.684 401.04ZM686.699 425.473C688.346 420.006 686.651 413.794 684.608 409.019C683.581 406.619 682.454 404.555 681.584 403.091C681.149 402.359 680.778 401.776 680.514 401.375C680.383 401.174 680.278 401.019 680.206 400.914C680.17 400.861 680.142 400.821 680.123 400.793C680.113 400.78 680.106 400.769 680.101 400.762C680.098 400.758 680.096 400.756 680.095 400.754C680.094 400.753 680.094 400.752 680.093 400.751C680.093 400.751 680.093 400.751 680.093 400.751C680.093 400.75 680.092 400.75 679.684 401.04C679.276 401.33 679.276 401.33 679.276 401.33C679.276 401.33 679.276 401.33 679.276 401.33C679.276 401.33 679.277 401.331 679.277 401.331C679.278 401.333 679.28 401.335 679.282 401.338C679.286 401.344 679.293 401.353 679.301 401.366C679.319 401.391 679.345 401.429 679.38 401.479C679.448 401.58 679.549 401.729 679.677 401.924C679.933 402.314 680.297 402.884 680.723 403.602C681.577 405.039 682.682 407.063 683.687 409.412C685.709 414.136 687.282 420.068 685.74 425.185L686.699 425.473ZM678.729 429.751C682.111 430.77 685.68 428.856 686.699 425.474L685.74 425.185C684.881 428.037 681.87 429.652 679.018 428.793L678.729 429.751ZM674.224 422.903C673.877 425.919 675.719 428.844 678.729 429.751L679.018 428.793C676.482 428.028 674.926 425.562 675.219 423.018L674.224 422.903ZM675.429 431.713C674.809 430.558 674.616 428.993 674.657 427.384C674.697 425.786 674.965 424.207 675.211 423.066L674.232 422.855C673.979 424.029 673.698 425.675 673.656 427.358C673.614 429.03 673.804 430.803 674.547 432.186L675.429 431.713ZM666.376 429.877L674.843 432.429L675.132 431.47L666.665 428.918L666.376 429.877ZM671.243 421.87C670.817 422.957 670.168 424.421 669.319 425.775C668.463 427.139 667.438 428.337 666.284 428.957L666.757 429.839C668.14 429.096 669.278 427.724 670.167 426.307C671.062 424.88 671.737 423.353 672.175 422.235L671.243 421.87ZM664.616 425.498C667.627 426.405 670.778 424.985 672.155 422.28L671.263 421.826C670.101 424.108 667.442 425.304 664.905 424.54L664.616 425.498ZM660.338 417.529C659.319 420.912 661.235 424.479 664.616 425.498L664.905 424.54C662.054 423.68 660.437 420.671 661.296 417.818L660.338 417.529Z" fill="#302E2F" mask="url(#path-49-inside-4_167_2601)"/>
<rect x="722.661" y="347.182" width="13.1749" height="50.504" transform="rotate(16.7706 722.661 347.182)" fill="#302E2F" stroke="#302E2F" stroke-width="0.16891"/>
<rect x="718.861" y="359.797" width="13.1749" height="38.8492" transform="rotate(-73.2294 718.861 359.797)" fill="#302E2F" stroke="#302E2F" stroke-width="0.16891"/>
<rect x="708.089" y="395.538" width="13.1749" height="38.8492" transform="rotate(-73.2294 708.089 395.538)" fill="#302E2F" stroke="#302E2F" stroke-width="0.16891"/>
<rect x="713.45" y="377.748" width="13.1749" height="38.8492" transform="rotate(-73.2294 713.45 377.748)" fill="#302E2F" stroke="#302E2F" stroke-width="0.16891"/>
<rect x="707.066" y="398.934" width="13.1749" height="50.504" transform="rotate(16.7706 707.066 398.934)" fill="#302E2F" stroke="#302E2F" stroke-width="0.16891"/>
<rect x="703.265" y="411.549" width="13.1749" height="38.8492" transform="rotate(-73.2294 703.265 411.549)" fill="#302E2F" stroke="#302E2F" stroke-width="0.16891"/>
<rect x="692.494" y="447.29" width="13.1749" height="38.8492" transform="rotate(-73.2294 692.494 447.29)" fill="#302E2F" stroke="#302E2F" stroke-width="0.16891"/>
<rect x="697.855" y="429.501" width="13.1749" height="38.8492" transform="rotate(-73.2294 697.855 429.501)" fill="#302E2F" stroke="#302E2F" stroke-width="0.16891"/>
<rect x="763.741" y="359.562" width="13.1749" height="50.504" transform="rotate(16.7706 763.741 359.562)" fill="#302E2F" stroke="#302E2F" stroke-width="0.16891"/>
<rect x="801.099" y="370.82" width="13.1749" height="50.504" transform="rotate(16.7706 801.099 370.82)" fill="#302E2F" stroke="#302E2F" stroke-width="0.16891"/>
<rect x="782.5" y="365.216" width="13.1749" height="50.504" transform="rotate(16.7706 782.5 365.216)" fill="#302E2F" stroke="#302E2F" stroke-width="0.16891"/>
<rect x="772.716" y="376.027" width="13.1749" height="38.8492" transform="rotate(-73.2294 772.716 376.027)" fill="#302E2F" stroke="#302E2F" stroke-width="0.16891"/>
<rect x="748.145" y="411.313" width="13.1749" height="50.504" transform="rotate(16.7706 748.145 411.313)" fill="#302E2F" stroke="#302E2F" stroke-width="0.16891"/>
<rect x="785.504" y="422.572" width="13.1749" height="50.504" transform="rotate(16.7706 785.504 422.572)" fill="#302E2F" stroke="#302E2F" stroke-width="0.16891"/>
<rect x="766.905" y="416.967" width="13.1749" height="50.504" transform="rotate(16.7706 766.905 416.967)" fill="#302E2F" stroke="#302E2F" stroke-width="0.16891"/>
<rect x="757.12" y="427.778" width="13.1749" height="38.8492" transform="rotate(-73.2294 757.12 427.778)" fill="#302E2F" stroke="#302E2F" stroke-width="0.16891"/>
<path d="M729.867 337.531L740.906 318.204C744.376 312.129 751.581 309.255 758.279 311.274L857.913 341.299C866.957 344.024 871.269 354.322 866.867 362.678L790.564 507.508C787.213 513.868 779.826 516.961 772.944 514.887L672.934 484.748C663.345 481.858 659.217 470.571 664.681 462.177L672.148 450.704" stroke="#302E2F" stroke-width="5.91183"/>
<path d="M656.688 241.533C656.688 241.533 628.325 253.509 623.09 273.072C621.548 278.834 624.971 284.756 630.731 286.297C635.858 287.669 641.104 285.107 643.285 280.468C641.831 284.555 638.773 291.575 634.204 294.215L649.856 298.403C647.215 293.834 648.071 286.225 648.854 281.958C648.427 287.067 651.692 291.906 656.818 293.278C662.58 294.82 668.503 291.4 670.045 285.638C675.279 266.074 656.688 241.533 656.688 241.533Z" fill="#302E2F"/>
<path d="M831.67 574.813C831.67 574.813 813.079 550.272 818.314 530.708C819.856 524.946 825.78 521.526 831.54 523.067C836.667 524.439 839.932 529.279 839.504 534.388C840.286 530.121 841.143 522.512 838.503 517.942L854.155 522.131C849.584 524.771 846.526 531.791 845.074 535.878C847.255 531.239 852.501 528.677 857.627 530.048C863.388 531.59 866.812 537.511 865.27 543.274C860.033 562.837 831.67 574.813 831.67 574.813Z" fill="#302E2F"/>
</g>
<defs>
<filter id="filter0_d_167_2601" x="152.341" y="71.3779" width="463.662" height="551.764" filterUnits="userSpaceOnUse" color-interpolation-filters="sRGB">
<feFlood flood-opacity="0" result="BackgroundImageFix"/>
<feColorMatrix in="SourceAlpha" type="matrix" values="0 0 0 0 0 0 0 0 0 0 0 0 0 0 0 0 0 0 127 0" result="hardAlpha"/>
<feOffset dy="6.439"/>
<feGaussianBlur stdDeviation="3.2195"/>
<feComposite in2="hardAlpha" operator="out"/>
<feColorMatrix type="matrix" values="0 0 0 0 0 0 0 0 0 0 0 0 0 0 0 0 0 0 0.25 0"/>
<feBlend mode="normal" in2="BackgroundImageFix" result="effect1_dropShadow_167_2601"/>
<feBlend mode="normal" in="SourceGraphic" in2="effect1_dropShadow_167_2601" result="shape"/>
</filter>
<filter id="filter1_d_167_2601" x="405.028" y="16.9551" width="405.152" height="515.08" filterUnits="userSpaceOnUse" color-interpolation-filters="sRGB">
<feFlood flood-opacity="0" result="BackgroundImageFix"/>
<feColorMatrix in="SourceAlpha" type="matrix" values="0 0 0 0 0 0 0 0 0 0 0 0 0 0 0 0 0 0 127 0" result="hardAlpha"/>
<feOffset dy="6.439"/>
<feGaussianBlur stdDeviation="3.2195"/>
<feComposite in2="hardAlpha" operator="out"/>
<feColorMatrix type="matrix" values="0 0 0 0 0 0 0 0 0 0 0 0 0 0 0 0 0 0 0.25 0"/>
<feBlend mode="normal" in2="BackgroundImageFix" result="effect1_dropShadow_167_2601"/>
<feBlend mode="normal" in="SourceGraphic" in2="effect1_dropShadow_167_2601" result="shape"/>
</filter>
<filter id="filter2_d_167_2601" x="515.667" y="145.658" width="471.928" height="560.565" filterUnits="userSpaceOnUse" color-interpolation-filters="sRGB">
<feFlood flood-opacity="0" result="BackgroundImageFix"/>
<feColorMatrix in="SourceAlpha" type="matrix" values="0 0 0 0 0 0 0 0 0 0 0 0 0 0 0 0 0 0 127 0" result="hardAlpha"/>
<feOffset dy="6.439"/>
<feGaussianBlur stdDeviation="3.2195"/>
<feComposite in2="hardAlpha" operator="out"/>
<feColorMatrix type="matrix" values="0 0 0 0 0 0 0 0 0 0 0 0 0 0 0 0 0 0 0.25 0"/>
<feBlend mode="normal" in2="BackgroundImageFix" result="effect1_dropShadow_167_2601"/>
<feBlend mode="normal" in="SourceGraphic" in2="effect1_dropShadow_167_2601" result="shape"/>
</filter>
<clipPath id="clip0_167_2601">
<rect width="256.93" height="102.043" fill="white" transform="translate(229.792 298.751) rotate(-13.816)"/>
</clipPath>
</defs>
</svg>
