<svg width="25" height="24" viewBox="0 0 25 24" fill="none" xmlns="http://www.w3.org/2000/svg">
    <path d="M17.1002 5.82C16.4166 5.03962 16.0399 4.03743 16.0402 3H12.9502V15.4C12.9263 16.071 12.643 16.7066 12.1599 17.1729C11.6768 17.6393 11.0316 17.8999 10.3602 17.9C8.94016 17.9 7.76016 16.74 7.76016 15.3C7.76016 13.58 9.42016 12.29 11.1302 12.82V9.66C7.68016 9.2 4.66016 11.88 4.66016 15.3C4.66016 18.63 7.42016 21 10.3502 21C13.4902 21 16.0402 18.45 16.0402 15.3V9.01C17.2932 9.90985 18.7975 10.3926 20.3402 10.39V7.3C20.3402 7.3 18.4602 7.39 17.1002 5.82Z" fill="white"/>
    </svg>
    