<svg width="25" height="24" viewBox="0 0 25 24" fill="none" xmlns="http://www.w3.org/2000/svg">
    <g clip-path="url(#clip0_180_2410)">
    <path d="M23.6426 12C23.6426 14.9553 22.4687 17.7895 20.379 19.8792C18.2893 21.9689 15.4551 23.1429 12.4998 23.1429C9.54452 23.1429 6.71029 21.9689 4.6206 19.8792C2.53091 17.7895 1.35693 14.9553 1.35693 12M23.6426 12C23.6426 9.04477 22.4687 6.21054 20.379 4.12085C18.2893 2.03115 15.4551 0.857178 12.4998 0.857178C9.54452 0.857178 6.71029 2.03115 4.6206 4.12085C2.53091 6.21054 1.35693 9.04477 1.35693 12M23.6426 12H1.35693" stroke="white" stroke-width="2" stroke-linecap="round" stroke-linejoin="round"/>
    <path d="M16.7853 12C16.5748 16.0749 15.0739 19.9772 12.4996 23.1429C9.92527 19.9772 8.42438 16.0749 8.21387 12C8.42438 7.92519 9.92527 4.02287 12.4996 0.857178C15.0739 4.02287 16.5748 7.92519 16.7853 12Z" stroke="white" stroke-width="2" stroke-linecap="round" stroke-linejoin="round"/>
    </g>
    <defs>
    <clipPath id="clip0_180_2410">
    <rect width="24" height="24" fill="white" transform="translate(0.5)"/>
    </clipPath>
    </defs>
    </svg>
    