<svg width="74" height="74" viewBox="0 0 74 74" fill="none" xmlns="http://www.w3.org/2000/svg">
<path d="M58.6433 15.3919C55.8288 12.5488 52.4763 10.2947 48.7814 8.76084C45.0866 7.22702 41.1233 6.44425 37.1227 6.45819C20.3606 6.45819 6.69909 20.1196 6.69909 36.8818C6.69909 42.2543 8.11129 47.4733 10.7515 52.0783L6.45349 67.858L22.5709 63.6214C27.0224 66.0467 32.0265 67.3361 37.1227 67.3361C53.8849 67.3361 67.5463 53.6747 67.5463 36.9125C67.5463 28.777 64.3842 21.1327 58.6433 15.3919ZM37.1227 62.1785C32.5791 62.1785 28.1276 60.9505 24.2287 58.648L23.3077 58.0954L13.7294 60.6128L16.2775 51.2801L15.6635 50.3284C13.1392 46.2974 11.7988 41.638 11.7953 36.8818C11.7953 22.944 23.1542 11.5851 37.092 11.5851C43.846 11.5851 50.2009 14.2253 54.9594 19.0145C57.3155 21.3598 59.1827 24.1495 60.4528 27.2218C61.7228 30.2942 62.3704 33.588 62.358 36.9125C62.4194 50.8503 51.0605 62.1785 37.1227 62.1785ZM50.9991 43.2674C50.2316 42.899 46.4862 41.057 45.8108 40.7807C45.1047 40.5351 44.6135 40.4123 44.0916 41.1491C43.5697 41.9166 42.1268 43.6358 41.697 44.127C41.2672 44.6489 40.8067 44.7103 40.0392 44.3112C39.2717 43.9428 36.8157 43.1139 33.9299 40.5351C31.6581 38.5089 30.1538 36.0222 29.6933 35.2547C29.2635 34.4872 29.6319 34.0881 30.031 33.689C30.3687 33.3513 30.7985 32.7987 31.1669 32.3689C31.5353 31.9391 31.6888 31.6014 31.9344 31.1102C32.18 30.5883 32.0572 30.1585 31.873 29.7901C31.6888 29.4217 30.1538 25.6763 29.5398 24.1413C28.9258 22.6677 28.2811 22.8519 27.8206 22.8212H26.347C25.8251 22.8212 25.0269 23.0054 24.3208 23.7729C23.6454 24.5404 21.6806 26.3824 21.6806 30.1278C21.6806 33.8732 24.4129 37.4958 24.7813 37.987C25.1497 38.5089 30.1538 46.1839 37.7674 49.4688C39.5787 50.267 40.9909 50.7275 42.0961 51.0652C43.9074 51.6485 45.5652 51.5564 46.8853 51.3722C48.3589 51.1573 51.3982 49.5302 52.0122 47.7496C52.6569 45.969 52.6569 44.4647 52.442 44.127C52.2271 43.7893 51.7666 43.6358 50.9991 43.2674Z" fill="white"/>
</svg>
